%TF.GenerationSoftware,KiCad,Pcbnew,7.0.9*%
%TF.CreationDate,2023-12-30T10:08:20+11:00*%
%TF.ProjectId,4-bit-rca,342d6269-742d-4726-9361-2e6b69636164,rev?*%
%TF.SameCoordinates,Original*%
%TF.FileFunction,Copper,L1,Top*%
%TF.FilePolarity,Positive*%
%FSLAX46Y46*%
G04 Gerber Fmt 4.6, Leading zero omitted, Abs format (unit mm)*
G04 Created by KiCad (PCBNEW 7.0.9) date 2023-12-30 10:08:20*
%MOMM*%
%LPD*%
G01*
G04 APERTURE LIST*
%ADD10C,0.300000*%
%TA.AperFunction,NonConductor*%
%ADD11C,0.300000*%
%TD*%
%TA.AperFunction,ComponentPad*%
%ADD12C,1.600000*%
%TD*%
%TA.AperFunction,ComponentPad*%
%ADD13O,1.600000X1.600000*%
%TD*%
%TA.AperFunction,SMDPad,CuDef*%
%ADD14R,1.120000X2.440000*%
%TD*%
%TA.AperFunction,ComponentPad*%
%ADD15R,1.905000X2.000000*%
%TD*%
%TA.AperFunction,ComponentPad*%
%ADD16O,1.905000X2.000000*%
%TD*%
%TA.AperFunction,ComponentPad*%
%ADD17R,1.700000X1.700000*%
%TD*%
%TA.AperFunction,ComponentPad*%
%ADD18R,2.400000X1.600000*%
%TD*%
%TA.AperFunction,ComponentPad*%
%ADD19O,2.400000X1.600000*%
%TD*%
%TA.AperFunction,ComponentPad*%
%ADD20R,1.800000X1.800000*%
%TD*%
%TA.AperFunction,ComponentPad*%
%ADD21C,1.800000*%
%TD*%
%TA.AperFunction,ComponentPad*%
%ADD22O,1.700000X1.700000*%
%TD*%
%TA.AperFunction,ViaPad*%
%ADD23C,0.800000*%
%TD*%
%TA.AperFunction,Conductor*%
%ADD24C,0.500000*%
%TD*%
G04 APERTURE END LIST*
D10*
D11*
X171337653Y-120196828D02*
X170837653Y-119482542D01*
X170480510Y-120196828D02*
X170480510Y-118696828D01*
X170480510Y-118696828D02*
X171051939Y-118696828D01*
X171051939Y-118696828D02*
X171194796Y-118768257D01*
X171194796Y-118768257D02*
X171266225Y-118839685D01*
X171266225Y-118839685D02*
X171337653Y-118982542D01*
X171337653Y-118982542D02*
X171337653Y-119196828D01*
X171337653Y-119196828D02*
X171266225Y-119339685D01*
X171266225Y-119339685D02*
X171194796Y-119411114D01*
X171194796Y-119411114D02*
X171051939Y-119482542D01*
X171051939Y-119482542D02*
X170480510Y-119482542D01*
X172551939Y-120125400D02*
X172409082Y-120196828D01*
X172409082Y-120196828D02*
X172123368Y-120196828D01*
X172123368Y-120196828D02*
X171980510Y-120125400D01*
X171980510Y-120125400D02*
X171909082Y-119982542D01*
X171909082Y-119982542D02*
X171909082Y-119411114D01*
X171909082Y-119411114D02*
X171980510Y-119268257D01*
X171980510Y-119268257D02*
X172123368Y-119196828D01*
X172123368Y-119196828D02*
X172409082Y-119196828D01*
X172409082Y-119196828D02*
X172551939Y-119268257D01*
X172551939Y-119268257D02*
X172623368Y-119411114D01*
X172623368Y-119411114D02*
X172623368Y-119553971D01*
X172623368Y-119553971D02*
X171909082Y-119696828D01*
X173194796Y-120125400D02*
X173337653Y-120196828D01*
X173337653Y-120196828D02*
X173623367Y-120196828D01*
X173623367Y-120196828D02*
X173766224Y-120125400D01*
X173766224Y-120125400D02*
X173837653Y-119982542D01*
X173837653Y-119982542D02*
X173837653Y-119911114D01*
X173837653Y-119911114D02*
X173766224Y-119768257D01*
X173766224Y-119768257D02*
X173623367Y-119696828D01*
X173623367Y-119696828D02*
X173409082Y-119696828D01*
X173409082Y-119696828D02*
X173266224Y-119625400D01*
X173266224Y-119625400D02*
X173194796Y-119482542D01*
X173194796Y-119482542D02*
X173194796Y-119411114D01*
X173194796Y-119411114D02*
X173266224Y-119268257D01*
X173266224Y-119268257D02*
X173409082Y-119196828D01*
X173409082Y-119196828D02*
X173623367Y-119196828D01*
X173623367Y-119196828D02*
X173766224Y-119268257D01*
X175123368Y-119196828D02*
X175123368Y-120196828D01*
X174480510Y-119196828D02*
X174480510Y-119982542D01*
X174480510Y-119982542D02*
X174551939Y-120125400D01*
X174551939Y-120125400D02*
X174694796Y-120196828D01*
X174694796Y-120196828D02*
X174909082Y-120196828D01*
X174909082Y-120196828D02*
X175051939Y-120125400D01*
X175051939Y-120125400D02*
X175123368Y-120053971D01*
X176051939Y-120196828D02*
X175909082Y-120125400D01*
X175909082Y-120125400D02*
X175837653Y-119982542D01*
X175837653Y-119982542D02*
X175837653Y-118696828D01*
X176409082Y-119196828D02*
X176980510Y-119196828D01*
X176623367Y-118696828D02*
X176623367Y-119982542D01*
X176623367Y-119982542D02*
X176694796Y-120125400D01*
X176694796Y-120125400D02*
X176837653Y-120196828D01*
X176837653Y-120196828D02*
X176980510Y-120196828D01*
D10*
D11*
X141913368Y-50616828D02*
X141913368Y-51616828D01*
X141556225Y-50045400D02*
X141199082Y-51116828D01*
X141199082Y-51116828D02*
X142127653Y-51116828D01*
X144341938Y-50831114D02*
X144556224Y-50902542D01*
X144556224Y-50902542D02*
X144627653Y-50973971D01*
X144627653Y-50973971D02*
X144699081Y-51116828D01*
X144699081Y-51116828D02*
X144699081Y-51331114D01*
X144699081Y-51331114D02*
X144627653Y-51473971D01*
X144627653Y-51473971D02*
X144556224Y-51545400D01*
X144556224Y-51545400D02*
X144413367Y-51616828D01*
X144413367Y-51616828D02*
X143841938Y-51616828D01*
X143841938Y-51616828D02*
X143841938Y-50116828D01*
X143841938Y-50116828D02*
X144341938Y-50116828D01*
X144341938Y-50116828D02*
X144484796Y-50188257D01*
X144484796Y-50188257D02*
X144556224Y-50259685D01*
X144556224Y-50259685D02*
X144627653Y-50402542D01*
X144627653Y-50402542D02*
X144627653Y-50545400D01*
X144627653Y-50545400D02*
X144556224Y-50688257D01*
X144556224Y-50688257D02*
X144484796Y-50759685D01*
X144484796Y-50759685D02*
X144341938Y-50831114D01*
X144341938Y-50831114D02*
X143841938Y-50831114D01*
X145341938Y-51616828D02*
X145341938Y-50616828D01*
X145341938Y-50116828D02*
X145270510Y-50188257D01*
X145270510Y-50188257D02*
X145341938Y-50259685D01*
X145341938Y-50259685D02*
X145413367Y-50188257D01*
X145413367Y-50188257D02*
X145341938Y-50116828D01*
X145341938Y-50116828D02*
X145341938Y-50259685D01*
X145841939Y-50616828D02*
X146413367Y-50616828D01*
X146056224Y-50116828D02*
X146056224Y-51402542D01*
X146056224Y-51402542D02*
X146127653Y-51545400D01*
X146127653Y-51545400D02*
X146270510Y-51616828D01*
X146270510Y-51616828D02*
X146413367Y-51616828D01*
X147984796Y-51188257D02*
X148699082Y-51188257D01*
X147841939Y-51616828D02*
X148341939Y-50116828D01*
X148341939Y-50116828D02*
X148841939Y-51616828D01*
X149984796Y-51616828D02*
X149984796Y-50116828D01*
X149984796Y-51545400D02*
X149841938Y-51616828D01*
X149841938Y-51616828D02*
X149556224Y-51616828D01*
X149556224Y-51616828D02*
X149413367Y-51545400D01*
X149413367Y-51545400D02*
X149341938Y-51473971D01*
X149341938Y-51473971D02*
X149270510Y-51331114D01*
X149270510Y-51331114D02*
X149270510Y-50902542D01*
X149270510Y-50902542D02*
X149341938Y-50759685D01*
X149341938Y-50759685D02*
X149413367Y-50688257D01*
X149413367Y-50688257D02*
X149556224Y-50616828D01*
X149556224Y-50616828D02*
X149841938Y-50616828D01*
X149841938Y-50616828D02*
X149984796Y-50688257D01*
X151341939Y-51616828D02*
X151341939Y-50116828D01*
X151341939Y-51545400D02*
X151199081Y-51616828D01*
X151199081Y-51616828D02*
X150913367Y-51616828D01*
X150913367Y-51616828D02*
X150770510Y-51545400D01*
X150770510Y-51545400D02*
X150699081Y-51473971D01*
X150699081Y-51473971D02*
X150627653Y-51331114D01*
X150627653Y-51331114D02*
X150627653Y-50902542D01*
X150627653Y-50902542D02*
X150699081Y-50759685D01*
X150699081Y-50759685D02*
X150770510Y-50688257D01*
X150770510Y-50688257D02*
X150913367Y-50616828D01*
X150913367Y-50616828D02*
X151199081Y-50616828D01*
X151199081Y-50616828D02*
X151341939Y-50688257D01*
X152627653Y-51545400D02*
X152484796Y-51616828D01*
X152484796Y-51616828D02*
X152199082Y-51616828D01*
X152199082Y-51616828D02*
X152056224Y-51545400D01*
X152056224Y-51545400D02*
X151984796Y-51402542D01*
X151984796Y-51402542D02*
X151984796Y-50831114D01*
X151984796Y-50831114D02*
X152056224Y-50688257D01*
X152056224Y-50688257D02*
X152199082Y-50616828D01*
X152199082Y-50616828D02*
X152484796Y-50616828D01*
X152484796Y-50616828D02*
X152627653Y-50688257D01*
X152627653Y-50688257D02*
X152699082Y-50831114D01*
X152699082Y-50831114D02*
X152699082Y-50973971D01*
X152699082Y-50973971D02*
X151984796Y-51116828D01*
X153341938Y-51616828D02*
X153341938Y-50616828D01*
X153341938Y-50902542D02*
X153413367Y-50759685D01*
X153413367Y-50759685D02*
X153484796Y-50688257D01*
X153484796Y-50688257D02*
X153627653Y-50616828D01*
X153627653Y-50616828D02*
X153770510Y-50616828D01*
X155413366Y-51045400D02*
X156556224Y-51045400D01*
X159270509Y-51616828D02*
X158770509Y-50902542D01*
X158413366Y-51616828D02*
X158413366Y-50116828D01*
X158413366Y-50116828D02*
X158984795Y-50116828D01*
X158984795Y-50116828D02*
X159127652Y-50188257D01*
X159127652Y-50188257D02*
X159199081Y-50259685D01*
X159199081Y-50259685D02*
X159270509Y-50402542D01*
X159270509Y-50402542D02*
X159270509Y-50616828D01*
X159270509Y-50616828D02*
X159199081Y-50759685D01*
X159199081Y-50759685D02*
X159127652Y-50831114D01*
X159127652Y-50831114D02*
X158984795Y-50902542D01*
X158984795Y-50902542D02*
X158413366Y-50902542D01*
X160770509Y-51473971D02*
X160699081Y-51545400D01*
X160699081Y-51545400D02*
X160484795Y-51616828D01*
X160484795Y-51616828D02*
X160341938Y-51616828D01*
X160341938Y-51616828D02*
X160127652Y-51545400D01*
X160127652Y-51545400D02*
X159984795Y-51402542D01*
X159984795Y-51402542D02*
X159913366Y-51259685D01*
X159913366Y-51259685D02*
X159841938Y-50973971D01*
X159841938Y-50973971D02*
X159841938Y-50759685D01*
X159841938Y-50759685D02*
X159913366Y-50473971D01*
X159913366Y-50473971D02*
X159984795Y-50331114D01*
X159984795Y-50331114D02*
X160127652Y-50188257D01*
X160127652Y-50188257D02*
X160341938Y-50116828D01*
X160341938Y-50116828D02*
X160484795Y-50116828D01*
X160484795Y-50116828D02*
X160699081Y-50188257D01*
X160699081Y-50188257D02*
X160770509Y-50259685D01*
X161341938Y-51188257D02*
X162056224Y-51188257D01*
X161199081Y-51616828D02*
X161699081Y-50116828D01*
X161699081Y-50116828D02*
X162199081Y-51616828D01*
D10*
D11*
X132634510Y-139500828D02*
X132634510Y-138000828D01*
X133348796Y-138500828D02*
X133348796Y-139500828D01*
X133348796Y-138643685D02*
X133420225Y-138572257D01*
X133420225Y-138572257D02*
X133563082Y-138500828D01*
X133563082Y-138500828D02*
X133777368Y-138500828D01*
X133777368Y-138500828D02*
X133920225Y-138572257D01*
X133920225Y-138572257D02*
X133991654Y-138715114D01*
X133991654Y-138715114D02*
X133991654Y-139500828D01*
X134705939Y-138500828D02*
X134705939Y-140000828D01*
X134705939Y-138572257D02*
X134848797Y-138500828D01*
X134848797Y-138500828D02*
X135134511Y-138500828D01*
X135134511Y-138500828D02*
X135277368Y-138572257D01*
X135277368Y-138572257D02*
X135348797Y-138643685D01*
X135348797Y-138643685D02*
X135420225Y-138786542D01*
X135420225Y-138786542D02*
X135420225Y-139215114D01*
X135420225Y-139215114D02*
X135348797Y-139357971D01*
X135348797Y-139357971D02*
X135277368Y-139429400D01*
X135277368Y-139429400D02*
X135134511Y-139500828D01*
X135134511Y-139500828D02*
X134848797Y-139500828D01*
X134848797Y-139500828D02*
X134705939Y-139429400D01*
X136705940Y-138500828D02*
X136705940Y-139500828D01*
X136063082Y-138500828D02*
X136063082Y-139286542D01*
X136063082Y-139286542D02*
X136134511Y-139429400D01*
X136134511Y-139429400D02*
X136277368Y-139500828D01*
X136277368Y-139500828D02*
X136491654Y-139500828D01*
X136491654Y-139500828D02*
X136634511Y-139429400D01*
X136634511Y-139429400D02*
X136705940Y-139357971D01*
X137205940Y-138500828D02*
X137777368Y-138500828D01*
X137420225Y-138000828D02*
X137420225Y-139286542D01*
X137420225Y-139286542D02*
X137491654Y-139429400D01*
X137491654Y-139429400D02*
X137634511Y-139500828D01*
X137634511Y-139500828D02*
X137777368Y-139500828D01*
X139348797Y-139072257D02*
X140063083Y-139072257D01*
X139205940Y-139500828D02*
X139705940Y-138000828D01*
X139705940Y-138000828D02*
X140205940Y-139500828D01*
D10*
D11*
X144064510Y-139500828D02*
X144064510Y-138000828D01*
X144778796Y-138500828D02*
X144778796Y-139500828D01*
X144778796Y-138643685D02*
X144850225Y-138572257D01*
X144850225Y-138572257D02*
X144993082Y-138500828D01*
X144993082Y-138500828D02*
X145207368Y-138500828D01*
X145207368Y-138500828D02*
X145350225Y-138572257D01*
X145350225Y-138572257D02*
X145421654Y-138715114D01*
X145421654Y-138715114D02*
X145421654Y-139500828D01*
X146135939Y-138500828D02*
X146135939Y-140000828D01*
X146135939Y-138572257D02*
X146278797Y-138500828D01*
X146278797Y-138500828D02*
X146564511Y-138500828D01*
X146564511Y-138500828D02*
X146707368Y-138572257D01*
X146707368Y-138572257D02*
X146778797Y-138643685D01*
X146778797Y-138643685D02*
X146850225Y-138786542D01*
X146850225Y-138786542D02*
X146850225Y-139215114D01*
X146850225Y-139215114D02*
X146778797Y-139357971D01*
X146778797Y-139357971D02*
X146707368Y-139429400D01*
X146707368Y-139429400D02*
X146564511Y-139500828D01*
X146564511Y-139500828D02*
X146278797Y-139500828D01*
X146278797Y-139500828D02*
X146135939Y-139429400D01*
X148135940Y-138500828D02*
X148135940Y-139500828D01*
X147493082Y-138500828D02*
X147493082Y-139286542D01*
X147493082Y-139286542D02*
X147564511Y-139429400D01*
X147564511Y-139429400D02*
X147707368Y-139500828D01*
X147707368Y-139500828D02*
X147921654Y-139500828D01*
X147921654Y-139500828D02*
X148064511Y-139429400D01*
X148064511Y-139429400D02*
X148135940Y-139357971D01*
X148635940Y-138500828D02*
X149207368Y-138500828D01*
X148850225Y-138000828D02*
X148850225Y-139286542D01*
X148850225Y-139286542D02*
X148921654Y-139429400D01*
X148921654Y-139429400D02*
X149064511Y-139500828D01*
X149064511Y-139500828D02*
X149207368Y-139500828D01*
X151350225Y-138715114D02*
X151564511Y-138786542D01*
X151564511Y-138786542D02*
X151635940Y-138857971D01*
X151635940Y-138857971D02*
X151707368Y-139000828D01*
X151707368Y-139000828D02*
X151707368Y-139215114D01*
X151707368Y-139215114D02*
X151635940Y-139357971D01*
X151635940Y-139357971D02*
X151564511Y-139429400D01*
X151564511Y-139429400D02*
X151421654Y-139500828D01*
X151421654Y-139500828D02*
X150850225Y-139500828D01*
X150850225Y-139500828D02*
X150850225Y-138000828D01*
X150850225Y-138000828D02*
X151350225Y-138000828D01*
X151350225Y-138000828D02*
X151493083Y-138072257D01*
X151493083Y-138072257D02*
X151564511Y-138143685D01*
X151564511Y-138143685D02*
X151635940Y-138286542D01*
X151635940Y-138286542D02*
X151635940Y-138429400D01*
X151635940Y-138429400D02*
X151564511Y-138572257D01*
X151564511Y-138572257D02*
X151493083Y-138643685D01*
X151493083Y-138643685D02*
X151350225Y-138715114D01*
X151350225Y-138715114D02*
X150850225Y-138715114D01*
D12*
%TO.P,R12,1*%
%TO.N,Net-(R12-Pad1)*%
X124130000Y-106440000D03*
D13*
%TO.P,R12,2*%
%TO.N,Net-(R12-Pad2)*%
X124130000Y-116600000D03*
%TD*%
%TO.P,R6,2*%
%TO.N,Net-(R6-Pad2)*%
X148480000Y-116620000D03*
D12*
%TO.P,R6,1*%
%TO.N,Net-(R6-Pad1)*%
X148480000Y-106460000D03*
%TD*%
D14*
%TO.P,SW1,1*%
%TO.N,Net-(U1E-VCC)*%
X133350000Y-135890000D03*
%TO.P,SW1,2*%
X135890000Y-135890000D03*
%TO.P,SW1,3*%
X138430000Y-135890000D03*
%TO.P,SW1,4*%
X140970000Y-135890000D03*
%TO.P,SW1,5*%
X143510000Y-135890000D03*
%TO.P,SW1,6*%
X146050000Y-135890000D03*
%TO.P,SW1,7*%
X148590000Y-135890000D03*
%TO.P,SW1,8*%
X151130000Y-135890000D03*
%TO.P,SW1,9*%
%TO.N,Net-(R5-Pad2)*%
X151130000Y-127280000D03*
%TO.P,SW1,10*%
%TO.N,Net-(R6-Pad2)*%
X148590000Y-127280000D03*
%TO.P,SW1,11*%
%TO.N,Net-(R7-Pad2)*%
X146050000Y-127280000D03*
%TO.P,SW1,12*%
%TO.N,Net-(R8-Pad2)*%
X143510000Y-127280000D03*
%TO.P,SW1,13*%
%TO.N,Net-(R9-Pad2)*%
X140970000Y-127280000D03*
%TO.P,SW1,14*%
%TO.N,Net-(R10-Pad2)*%
X138430000Y-127280000D03*
%TO.P,SW1,15*%
%TO.N,Net-(R11-Pad2)*%
X135890000Y-127280000D03*
%TO.P,SW1,16*%
%TO.N,Net-(R12-Pad2)*%
X133350000Y-127280000D03*
%TD*%
D15*
%TO.P,U6,1,IN*%
%TO.N,Net-(BT1-+)*%
X186690000Y-130810000D03*
D16*
%TO.P,U6,2,GND*%
%TO.N,Net-(BT1--)*%
X189230000Y-130810000D03*
%TO.P,U6,3,OUT*%
%TO.N,Net-(U1E-VCC)*%
X191770000Y-130810000D03*
%TD*%
D12*
%TO.P,R7,1*%
%TO.N,Net-(R7-Pad1)*%
X144456000Y-106426000D03*
D13*
%TO.P,R7,2*%
%TO.N,Net-(R7-Pad2)*%
X144456000Y-116586000D03*
%TD*%
D12*
%TO.P,R8,1*%
%TO.N,Net-(R8-Pad1)*%
X140406000Y-106426000D03*
D13*
%TO.P,R8,2*%
%TO.N,Net-(R8-Pad2)*%
X140406000Y-116586000D03*
%TD*%
D12*
%TO.P,R10,1*%
%TO.N,Net-(R10-Pad1)*%
X132306000Y-106426000D03*
D13*
%TO.P,R10,2*%
%TO.N,Net-(R10-Pad2)*%
X132306000Y-116586000D03*
%TD*%
D12*
%TO.P,R11,1*%
%TO.N,Net-(R11-Pad1)*%
X128256000Y-106426000D03*
D13*
%TO.P,R11,2*%
%TO.N,Net-(R11-Pad2)*%
X128256000Y-116586000D03*
%TD*%
D12*
%TO.P,R9,1*%
%TO.N,Net-(R9-Pad1)*%
X136356000Y-106426000D03*
D13*
%TO.P,R9,2*%
%TO.N,Net-(R9-Pad2)*%
X136356000Y-116586000D03*
%TD*%
D12*
%TO.P,R5,1*%
%TO.N,Net-(R5-Pad1)*%
X152556000Y-106426000D03*
D13*
%TO.P,R5,2*%
%TO.N,Net-(R5-Pad2)*%
X152556000Y-116586000D03*
%TD*%
D12*
%TO.P,R3,1*%
%TO.N,Net-(D3-A)*%
X175260000Y-104140000D03*
D13*
%TO.P,R3,2*%
%TO.N,Net-(R3-Pad2)*%
X175260000Y-93980000D03*
%TD*%
D17*
%TO.P,J2,1,Pin_1*%
%TO.N,Net-(J2-Pin_1)*%
X199390000Y-120650000D03*
%TD*%
D18*
%TO.P,U4,1*%
%TO.N,Net-(R10-Pad1)*%
X168656000Y-61976000D03*
D19*
%TO.P,U4,2*%
%TO.N,Net-(R6-Pad1)*%
X168656000Y-64516000D03*
%TO.P,U4,3*%
%TO.N,Net-(U3-Pad9)*%
X168656000Y-67056000D03*
%TO.P,U4,4*%
%TO.N,Net-(U3-Pad6)*%
X168656000Y-69596000D03*
%TO.P,U4,5*%
%TO.N,Net-(U4-Pad5)*%
X168656000Y-72136000D03*
%TO.P,U4,6*%
%TO.N,Net-(U3-Pad10)*%
X168656000Y-74676000D03*
%TO.P,U4,7,GND*%
%TO.N,Net-(BT1--)*%
X168656000Y-77216000D03*
%TO.P,U4,8*%
%TO.N,Net-(U3-Pad12)*%
X176276000Y-77216000D03*
%TO.P,U4,9*%
%TO.N,Net-(R9-Pad1)*%
X176276000Y-74676000D03*
%TO.P,U4,10*%
%TO.N,Net-(R5-Pad1)*%
X176276000Y-72136000D03*
%TO.P,U4,11*%
%TO.N,Net-(U3-Pad13)*%
X176276000Y-69596000D03*
%TO.P,U4,12*%
%TO.N,Net-(U3-Pad8)*%
X176276000Y-67056000D03*
%TO.P,U4,13*%
%TO.N,Net-(U4-Pad13)*%
X176276000Y-64516000D03*
%TO.P,U4,14,VCC*%
%TO.N,Net-(U1E-VCC)*%
X176276000Y-61976000D03*
%TD*%
D18*
%TO.P,U5,1*%
%TO.N,Net-(U3-Pad6)*%
X190256000Y-61971000D03*
D19*
%TO.P,U5,2*%
%TO.N,Net-(U4-Pad5)*%
X190256000Y-64511000D03*
%TO.P,U5,3*%
%TO.N,Net-(R3-Pad2)*%
X190256000Y-67051000D03*
%TO.P,U5,4*%
%TO.N,Net-(R10-Pad1)*%
X190256000Y-69591000D03*
%TO.P,U5,5*%
%TO.N,Net-(R6-Pad1)*%
X190256000Y-72131000D03*
%TO.P,U5,6*%
%TO.N,Net-(U4-Pad5)*%
X190256000Y-74671000D03*
%TO.P,U5,7,GND*%
%TO.N,Net-(BT1--)*%
X190256000Y-77211000D03*
%TO.P,U5,8*%
%TO.N,Net-(U4-Pad13)*%
X197876000Y-77211000D03*
%TO.P,U5,9*%
%TO.N,Net-(R9-Pad1)*%
X197876000Y-74671000D03*
%TO.P,U5,10*%
%TO.N,Net-(R5-Pad1)*%
X197876000Y-72131000D03*
%TO.P,U5,11*%
%TO.N,Net-(R4-Pad2)*%
X197876000Y-69591000D03*
%TO.P,U5,12*%
%TO.N,Net-(U3-Pad8)*%
X197876000Y-67051000D03*
%TO.P,U5,13*%
%TO.N,Net-(U4-Pad13)*%
X197876000Y-64511000D03*
%TO.P,U5,14,VCC*%
%TO.N,Net-(U1E-VCC)*%
X197876000Y-61971000D03*
%TD*%
D20*
%TO.P,D1,1,K*%
%TO.N,Net-(BT1--)*%
X160020000Y-111760000D03*
D21*
%TO.P,D1,2,A*%
%TO.N,Net-(D1-A)*%
X162560000Y-111760000D03*
%TD*%
D12*
%TO.P,R1,1*%
%TO.N,Net-(D1-A)*%
X165100000Y-104140000D03*
D13*
%TO.P,R1,2*%
%TO.N,Net-(R1-Pad2)*%
X165100000Y-93980000D03*
%TD*%
D17*
%TO.P,BT1,1,+*%
%TO.N,Net-(BT1-+)*%
X199390000Y-130810000D03*
D22*
%TO.P,BT1,2,-*%
%TO.N,Net-(BT1--)*%
X199390000Y-128270000D03*
%TD*%
D20*
%TO.P,D2,1,K*%
%TO.N,Net-(BT1--)*%
X167640000Y-111760000D03*
D21*
%TO.P,D2,2,A*%
%TO.N,Net-(D2-A)*%
X170180000Y-111760000D03*
%TD*%
D17*
%TO.P,J1,1,Pin_1*%
%TO.N,Net-(J1-Pin_1)*%
X199390000Y-114300000D03*
%TD*%
D18*
%TO.P,U1,1*%
%TO.N,Net-(R12-Pad1)*%
X110236000Y-61976000D03*
D19*
%TO.P,U1,2*%
%TO.N,Net-(R8-Pad1)*%
X110236000Y-64516000D03*
%TO.P,U1,3*%
%TO.N,Net-(U1-Pad3)*%
X110236000Y-67056000D03*
%TO.P,U1,4*%
X110236000Y-69596000D03*
%TO.P,U1,5*%
%TO.N,Net-(J1-Pin_1)*%
X110236000Y-72136000D03*
%TO.P,U1,6*%
%TO.N,Net-(R1-Pad2)*%
X110236000Y-74676000D03*
%TO.P,U1,7,GND*%
%TO.N,Net-(BT1--)*%
X110236000Y-77216000D03*
%TO.P,U1,8*%
%TO.N,Net-(R2-Pad2)*%
X117856000Y-77216000D03*
%TO.P,U1,9*%
%TO.N,Net-(U1-Pad11)*%
X117856000Y-74676000D03*
%TO.P,U1,10*%
%TO.N,Net-(U1-Pad10)*%
X117856000Y-72136000D03*
%TO.P,U1,11*%
%TO.N,Net-(U1-Pad11)*%
X117856000Y-69596000D03*
%TO.P,U1,12*%
%TO.N,Net-(R11-Pad1)*%
X117856000Y-67056000D03*
%TO.P,U1,13*%
%TO.N,Net-(R7-Pad1)*%
X117856000Y-64516000D03*
%TO.P,U1,14,VCC*%
%TO.N,Net-(U1E-VCC)*%
X117856000Y-61976000D03*
%TD*%
D20*
%TO.P,D4,1,K*%
%TO.N,Net-(BT1--)*%
X182880000Y-111760000D03*
D21*
%TO.P,D4,2,A*%
%TO.N,Net-(D4-A)*%
X185420000Y-111760000D03*
%TD*%
D18*
%TO.P,U2,1*%
%TO.N,Net-(J1-Pin_1)*%
X130556000Y-61976000D03*
D19*
%TO.P,U2,2*%
%TO.N,Net-(U1-Pad3)*%
X130556000Y-64516000D03*
%TO.P,U2,3*%
%TO.N,Net-(U2-Pad3)*%
X130556000Y-67056000D03*
%TO.P,U2,4*%
%TO.N,Net-(R12-Pad1)*%
X130556000Y-69596000D03*
%TO.P,U2,5*%
%TO.N,Net-(R5-Pad1)*%
X130556000Y-72136000D03*
%TO.P,U2,6*%
%TO.N,Net-(U2-Pad6)*%
X130556000Y-74676000D03*
%TO.P,U2,7,GND*%
%TO.N,Net-(BT1--)*%
X130556000Y-77216000D03*
%TO.P,U2,8*%
%TO.N,Net-(U2-Pad8)*%
X138176000Y-77216000D03*
%TO.P,U2,9*%
%TO.N,Net-(R11-Pad1)*%
X138176000Y-74676000D03*
%TO.P,U2,10*%
%TO.N,Net-(R7-Pad1)*%
X138176000Y-72136000D03*
%TO.P,U2,11*%
%TO.N,Net-(U2-Pad11)*%
X138176000Y-69596000D03*
%TO.P,U2,12*%
%TO.N,Net-(U1-Pad10)*%
X138176000Y-67056000D03*
%TO.P,U2,13*%
%TO.N,Net-(U1-Pad11)*%
X138176000Y-64516000D03*
%TO.P,U2,14,VCC*%
%TO.N,Net-(U1E-VCC)*%
X138176000Y-61976000D03*
%TD*%
D18*
%TO.P,U3,1*%
%TO.N,Net-(U2-Pad6)*%
X149616000Y-61971000D03*
D19*
%TO.P,U3,2*%
%TO.N,Net-(U2-Pad3)*%
X149616000Y-64511000D03*
%TO.P,U3,3*%
%TO.N,Net-(U1-Pad10)*%
X149616000Y-67051000D03*
%TO.P,U3,4*%
%TO.N,Net-(U2-Pad8)*%
X149616000Y-69591000D03*
%TO.P,U3,5*%
%TO.N,Net-(U2-Pad11)*%
X149616000Y-72131000D03*
%TO.P,U3,6*%
%TO.N,Net-(U3-Pad6)*%
X149616000Y-74671000D03*
%TO.P,U3,7,GND*%
%TO.N,Net-(BT1--)*%
X149616000Y-77211000D03*
%TO.P,U3,8*%
%TO.N,Net-(U3-Pad8)*%
X157236000Y-77211000D03*
%TO.P,U3,9*%
%TO.N,Net-(U3-Pad9)*%
X157236000Y-74671000D03*
%TO.P,U3,10*%
%TO.N,Net-(U3-Pad10)*%
X157236000Y-72131000D03*
%TO.P,U3,11*%
%TO.N,Net-(J2-Pin_1)*%
X157236000Y-69591000D03*
%TO.P,U3,12*%
%TO.N,Net-(U3-Pad12)*%
X157236000Y-67051000D03*
%TO.P,U3,13*%
%TO.N,Net-(U3-Pad13)*%
X157236000Y-64511000D03*
%TO.P,U3,14,VCC*%
%TO.N,Net-(U1E-VCC)*%
X157236000Y-61971000D03*
%TD*%
D12*
%TO.P,R4,1*%
%TO.N,Net-(D4-A)*%
X180340000Y-104140000D03*
D13*
%TO.P,R4,2*%
%TO.N,Net-(R4-Pad2)*%
X180340000Y-93980000D03*
%TD*%
D20*
%TO.P,D3,1,K*%
%TO.N,Net-(BT1--)*%
X175380000Y-111760000D03*
D21*
%TO.P,D3,2,A*%
%TO.N,Net-(D3-A)*%
X177920000Y-111760000D03*
%TD*%
D12*
%TO.P,R2,1*%
%TO.N,Net-(D2-A)*%
X170180000Y-104140000D03*
D13*
%TO.P,R2,2*%
%TO.N,Net-(R2-Pad2)*%
X170180000Y-93980000D03*
%TD*%
D23*
%TO.N,Net-(R5-Pad1)*%
X124460000Y-101600000D03*
X124460000Y-69850000D03*
%TO.N,Net-(U1E-VCC)*%
X156210000Y-135890000D03*
%TO.N,Net-(BT1--)*%
X189230000Y-128270000D03*
%TO.N,Net-(U1E-VCC)*%
X191770000Y-125730000D03*
%TO.N,Net-(BT1--)*%
X190500000Y-85090000D03*
X190500000Y-91440000D03*
%TO.N,Net-(R5-Pad1)*%
X172720000Y-101600000D03*
X172720000Y-86360000D03*
X153416000Y-101346000D03*
%TO.N,Net-(J1-Pin_1)*%
X113030000Y-62230000D03*
X113030000Y-71120000D03*
X128270000Y-85090000D03*
X148590000Y-97790000D03*
X128270000Y-61976000D03*
X160020000Y-106680000D03*
X199390000Y-106680000D03*
X160020000Y-97790000D03*
X148590000Y-85090000D03*
%TO.N,Net-(J2-Pin_1)*%
X157480000Y-87630000D03*
X154940000Y-87630000D03*
X157480000Y-104140000D03*
%TO.N,Net-(BT1--)*%
X182880000Y-116840000D03*
X187960000Y-116840000D03*
%TO.N,Net-(U1E-VCC)*%
X191770000Y-130810000D03*
%TO.N,Net-(BT1-+)*%
X186690000Y-134620000D03*
X199390000Y-134620000D03*
%TO.N,Net-(R9-Pad1)*%
X171450000Y-74930000D03*
X160020000Y-86360000D03*
X168910000Y-83820000D03*
X160020000Y-96520000D03*
X168910000Y-86360000D03*
X171450000Y-83820000D03*
%TO.N,Net-(R1-Pad2)*%
X114300000Y-95250000D03*
%TO.N,Net-(R3-Pad2)*%
X187960000Y-90170000D03*
X187960000Y-67310000D03*
%TO.N,Net-(U1E-VCC)*%
X156210000Y-115570000D03*
%TO.N,Net-(R6-Pad1)*%
X162306000Y-100076000D03*
X149606000Y-100076000D03*
%TO.N,Net-(R7-Pad1)*%
X153416000Y-98806000D03*
X144526000Y-98806000D03*
%TO.N,Net-(R8-Pad1)*%
X140716000Y-97536000D03*
X144526000Y-97536000D03*
%TO.N,Net-(R10-Pad1)*%
X125476000Y-102616000D03*
X131826000Y-102616000D03*
%TO.N,Net-(U1E-VCC)*%
X117856000Y-56896000D03*
%TO.N,Net-(R7-Pad1)*%
X134366000Y-72136000D03*
X134366000Y-63246000D03*
%TO.N,Net-(BT1--)*%
X110236000Y-81026000D03*
%TO.N,Net-(R4-Pad2)*%
X200406000Y-69596000D03*
%TO.N,Net-(R9-Pad1)*%
X135636000Y-96266000D03*
%TO.N,Net-(U2-Pad6)*%
X134366000Y-74676000D03*
%TO.N,Net-(U4-Pad5)*%
X186436000Y-64516000D03*
%TO.N,Net-(J2-Pin_1)*%
X154686000Y-69596000D03*
%TO.N,Net-(R12-Pad1)*%
X107732000Y-86070000D03*
%TO.N,Net-(U1E-VCC)*%
X162306000Y-56896000D03*
%TO.N,Net-(BT1--)*%
X130556000Y-81026000D03*
%TO.N,Net-(U4-Pad13)*%
X181356000Y-64516000D03*
X181356000Y-59436000D03*
%TO.N,Net-(U1E-VCC)*%
X157226000Y-83566000D03*
%TO.N,Net-(U2-Pad8)*%
X143256000Y-77216000D03*
%TO.N,Net-(U1-Pad11)*%
X135636000Y-59436000D03*
X135636000Y-64516000D03*
X121666000Y-59436000D03*
X121666000Y-74676000D03*
X121666000Y-69596000D03*
%TO.N,Net-(U2-Pad6)*%
X144526000Y-73406000D03*
X134366000Y-73406000D03*
X144526000Y-61976000D03*
%TO.N,Net-(U2-Pad8)*%
X147066000Y-68326000D03*
X143256000Y-68326000D03*
X147066000Y-69596000D03*
%TO.N,Net-(U1E-VCC)*%
X162306000Y-83566000D03*
%TO.N,Net-(U3-Pad8)*%
X164846000Y-77216000D03*
%TO.N,Net-(U1E-VCC)*%
X197876000Y-58166000D03*
X138176000Y-56896000D03*
%TO.N,Net-(U3-Pad8)*%
X172466000Y-67056000D03*
%TO.N,Net-(U1E-VCC)*%
X176276000Y-56896000D03*
%TO.N,Net-(R12-Pad1)*%
X107696000Y-68326000D03*
X107696000Y-61976000D03*
%TO.N,Net-(R6-Pad1)*%
X182626000Y-70866000D03*
X166116000Y-55626000D03*
%TO.N,Net-(U4-Pad5)*%
X186436000Y-74671000D03*
%TO.N,Net-(R6-Pad1)*%
X185166000Y-70866000D03*
X185166000Y-72136000D03*
X182626000Y-55626000D03*
X166116000Y-64516000D03*
%TO.N,Net-(R10-Pad1)*%
X185166000Y-58166000D03*
X185166000Y-69596000D03*
%TO.N,Net-(R11-Pad1)*%
X120396000Y-93726000D03*
X120396000Y-67056000D03*
%TO.N,Net-(U4-Pad5)*%
X172466000Y-72136000D03*
%TO.N,Net-(R10-Pad1)*%
X168656000Y-58166000D03*
%TO.N,Net-(U4-Pad5)*%
X185166000Y-83566000D03*
%TO.N,Net-(R5-Pad1)*%
X186436000Y-82296000D03*
X186436000Y-86106000D03*
%TO.N,Net-(U3-Pad6)*%
X163576000Y-69596000D03*
%TO.N,Net-(U4-Pad13)*%
X201676000Y-59436000D03*
%TO.N,Net-(U3-Pad6)*%
X163576000Y-73406000D03*
%TO.N,Net-(R5-Pad1)*%
X194056000Y-72136000D03*
X194056000Y-82296000D03*
X183896000Y-72136000D03*
%TO.N,Net-(R8-Pad1)*%
X144200000Y-90242000D03*
%TO.N,Net-(U1E-VCC)*%
X157226000Y-56896000D03*
%TO.N,Net-(U1-Pad10)*%
X122936000Y-73406000D03*
X133096000Y-67056000D03*
X122936000Y-72136000D03*
X133096000Y-73406000D03*
%TO.N,Net-(U3-Pad8)*%
X172466000Y-59436000D03*
%TO.N,Net-(R5-Pad1)*%
X183896000Y-82296000D03*
%TO.N,Net-(U4-Pad5)*%
X185166000Y-74676000D03*
%TO.N,Net-(R10-Pad1)*%
X125476000Y-54356000D03*
X168656000Y-54356000D03*
%TO.N,Net-(U1E-VCC)*%
X186436000Y-56896000D03*
X186436000Y-58166000D03*
%TO.N,Net-(U2-Pad3)*%
X147066000Y-65786000D03*
%TO.N,Net-(U3-Pad6)*%
X183896000Y-68326000D03*
X183896000Y-61976000D03*
%TO.N,Net-(U3-Pad12)*%
X176276000Y-82296000D03*
X161036000Y-67056000D03*
%TO.N,Net-(U3-Pad8)*%
X164846000Y-59436000D03*
%TO.N,Net-(R2-Pad2)*%
X117856000Y-91186000D03*
%TO.N,Net-(R9-Pad1)*%
X178816000Y-74676000D03*
%TO.N,Net-(R7-Pad1)*%
X141986000Y-88646000D03*
X152146000Y-88646000D03*
X141986000Y-72136000D03*
%TO.N,Net-(U2-Pad3)*%
X147066000Y-64516000D03*
%TO.N,Net-(U3-Pad13)*%
X171196000Y-63246000D03*
X171196000Y-69596000D03*
%TO.N,Net-(U4-Pad5)*%
X172466000Y-83566000D03*
%TO.N,Net-(U3-Pad12)*%
X161036000Y-82296000D03*
%TO.N,Net-(U4-Pad13)*%
X201676000Y-77216000D03*
X201676000Y-64516000D03*
%TO.N,Net-(U3-Pad9)*%
X163576000Y-67056000D03*
%TO.N,Net-(R3-Pad2)*%
X192786000Y-67056000D03*
%TO.N,Net-(U3-Pad8)*%
X195326000Y-63246000D03*
%TO.N,Net-(U3-Pad10)*%
X166116000Y-72136000D03*
%TO.N,Net-(R6-Pad1)*%
X162306000Y-88646000D03*
%TO.N,Net-(U3-Pad8)*%
X195326000Y-67056000D03*
%TO.N,Net-(U2-Pad11)*%
X145796000Y-72136000D03*
%TO.N,Net-(R8-Pad1)*%
X115316000Y-64516000D03*
X115316000Y-70866000D03*
%TO.N,Net-(U2-Pad11)*%
X145796000Y-69596000D03*
%TO.N,Net-(U3-Pad8)*%
X180086000Y-63246000D03*
%TO.N,Net-(R1-Pad2)*%
X114046000Y-74676000D03*
%TO.N,Net-(R11-Pad1)*%
X140716000Y-93726000D03*
X140716000Y-74676000D03*
%TO.N,Net-(BT1--)*%
X168656000Y-81026000D03*
%TO.N,Net-(R9-Pad1)*%
X178816000Y-73406000D03*
%TO.N,Net-(BT1--)*%
X149606000Y-81026000D03*
%TO.N,Net-(R12-Pad1)*%
X108930000Y-86070000D03*
%TO.N,Net-(U3-Pad10)*%
X166116000Y-74676000D03*
%TO.N,Net-(R8-Pad1)*%
X126746000Y-72136000D03*
X126746000Y-89916000D03*
%TO.N,Net-(U1-Pad3)*%
X114046000Y-67056000D03*
X114046000Y-65786000D03*
%TO.N,Net-(U3-Pad8)*%
X180086000Y-67056000D03*
%TO.N,Net-(R6-Pad1)*%
X181356000Y-88646000D03*
%TO.N,Net-(BT1--)*%
X190246000Y-81026000D03*
%TO.N,Net-(U3-Pad9)*%
X159766000Y-65786000D03*
%TO.N,Net-(R9-Pad1)*%
X195326000Y-73406000D03*
X195326000Y-74676000D03*
%TO.N,Net-(R6-Pad1)*%
X181356000Y-70866000D03*
%TO.N,Net-(U3-Pad9)*%
X159766000Y-74676000D03*
X163576000Y-65786000D03*
%TD*%
D24*
%TO.N,Net-(R5-Pad1)*%
X124460000Y-69850000D02*
X124460000Y-101600000D01*
%TO.N,Net-(R12-Pad2)*%
X133350000Y-127280000D02*
X124130000Y-118060000D01*
X124130000Y-118060000D02*
X124130000Y-116600000D01*
%TO.N,Net-(R11-Pad2)*%
X135890000Y-127280000D02*
X135890000Y-124220000D01*
X135890000Y-124220000D02*
X128256000Y-116586000D01*
%TO.N,Net-(R10-Pad2)*%
X138430000Y-127280000D02*
X138430000Y-122710000D01*
X138430000Y-122710000D02*
X132306000Y-116586000D01*
%TO.N,Net-(R9-Pad2)*%
X140970000Y-127280000D02*
X140970000Y-121200000D01*
X140970000Y-121200000D02*
X136356000Y-116586000D01*
%TO.N,Net-(R8-Pad2)*%
X143510000Y-127280000D02*
X143510000Y-119690000D01*
X143510000Y-119690000D02*
X140406000Y-116586000D01*
%TO.N,Net-(R7-Pad2)*%
X146050000Y-127280000D02*
X146050000Y-118180000D01*
X146050000Y-118180000D02*
X144456000Y-116586000D01*
%TO.N,Net-(R6-Pad2)*%
X148590000Y-127280000D02*
X148590000Y-116730000D01*
X148590000Y-116730000D02*
X148480000Y-116620000D01*
%TO.N,Net-(R5-Pad2)*%
X151130000Y-127280000D02*
X151130000Y-118012000D01*
X151130000Y-118012000D02*
X152556000Y-116586000D01*
%TO.N,Net-(U1E-VCC)*%
X133350000Y-135890000D02*
X156210000Y-135890000D01*
X156210000Y-135890000D02*
X186690000Y-135890000D01*
%TO.N,Net-(BT1--)*%
X189230000Y-128270000D02*
X189230000Y-118110000D01*
X189230000Y-118110000D02*
X187960000Y-116840000D01*
X189230000Y-128270000D02*
X189230000Y-130810000D01*
%TO.N,Net-(U1E-VCC)*%
X186690000Y-135890000D02*
X191168959Y-131411041D01*
X191770000Y-130810000D02*
X191770000Y-125730000D01*
%TO.N,Net-(BT1--)*%
X190500000Y-85090000D02*
X190500000Y-81280000D01*
X187960000Y-116840000D02*
X187960000Y-93980000D01*
X187960000Y-93980000D02*
X190500000Y-91440000D01*
X190500000Y-81280000D02*
X190246000Y-81026000D01*
%TO.N,Net-(R5-Pad1)*%
X172720000Y-86360000D02*
X172720000Y-101600000D01*
%TO.N,Net-(J1-Pin_1)*%
X113030000Y-71120000D02*
X113030000Y-62230000D01*
X148590000Y-97790000D02*
X148590000Y-85090000D01*
X199390000Y-114300000D02*
X199390000Y-106680000D01*
X160020000Y-106680000D02*
X160020000Y-97790000D01*
X128270000Y-85090000D02*
X128270000Y-61976000D01*
%TO.N,Net-(J2-Pin_1)*%
X157480000Y-104140000D02*
X157480000Y-87630000D01*
X154940000Y-87630000D02*
X154940000Y-83820000D01*
X154940000Y-83820000D02*
X154686000Y-83566000D01*
%TO.N,Net-(BT1--)*%
X182880000Y-116840000D02*
X182880000Y-111760000D01*
%TO.N,Net-(BT1-+)*%
X186690000Y-134620000D02*
X186690000Y-130810000D01*
X199390000Y-130810000D02*
X199390000Y-134620000D01*
%TO.N,Net-(BT1--)*%
X175380000Y-111760000D02*
X177585801Y-113965801D01*
%TO.N,Net-(R9-Pad1)*%
X171450000Y-83820000D02*
X171450000Y-74930000D01*
X160020000Y-96520000D02*
X160020000Y-86360000D01*
X168910000Y-86360000D02*
X168910000Y-83820000D01*
%TO.N,Net-(R1-Pad2)*%
X114300000Y-95250000D02*
X114300000Y-92710000D01*
X114300000Y-92710000D02*
X114046000Y-92456000D01*
%TO.N,Net-(R3-Pad2)*%
X187960000Y-90170000D02*
X187960000Y-67310000D01*
%TO.N,Net-(R4-Pad2)*%
X185420000Y-93980000D02*
X200660000Y-78740000D01*
X200660000Y-69850000D02*
X200406000Y-69596000D01*
X180340000Y-93980000D02*
X185420000Y-93980000D01*
X200660000Y-78740000D02*
X200660000Y-69850000D01*
%TO.N,Net-(U1E-VCC)*%
X157226000Y-83566000D02*
X156210000Y-84582000D01*
X156210000Y-84582000D02*
X156210000Y-115570000D01*
%TO.N,Net-(R12-Pad1)*%
X108930000Y-86070000D02*
X108966000Y-86106000D01*
X108966000Y-86106000D02*
X108966000Y-106426000D01*
%TO.N,Net-(R5-Pad1)*%
X152556000Y-106426000D02*
X152556000Y-102206000D01*
X152556000Y-102206000D02*
X153416000Y-101346000D01*
%TO.N,Net-(R6-Pad1)*%
X148506000Y-106426000D02*
X148506000Y-101176000D01*
X148506000Y-101176000D02*
X149606000Y-100076000D01*
X162306000Y-100076000D02*
X162306000Y-89298000D01*
X162306000Y-89298000D02*
X161980000Y-88972000D01*
%TO.N,Net-(R7-Pad1)*%
X153416000Y-98806000D02*
X153416000Y-89916000D01*
X144456000Y-106426000D02*
X144456000Y-98876000D01*
X144456000Y-98876000D02*
X144526000Y-98806000D01*
X153416000Y-89916000D02*
X152146000Y-88646000D01*
%TO.N,Net-(R8-Pad1)*%
X144526000Y-90568000D02*
X144200000Y-90242000D01*
X140406000Y-106426000D02*
X140406000Y-97846000D01*
X140406000Y-97846000D02*
X140716000Y-97536000D01*
X144526000Y-97536000D02*
X144526000Y-90568000D01*
%TO.N,Net-(R9-Pad1)*%
X135636000Y-96266000D02*
X135636000Y-105706000D01*
X135636000Y-105706000D02*
X136356000Y-106426000D01*
%TO.N,Net-(R10-Pad1)*%
X125476000Y-102616000D02*
X125476000Y-54356000D01*
X132306000Y-103096000D02*
X131826000Y-102616000D01*
X132306000Y-106426000D02*
X132306000Y-103096000D01*
%TO.N,Net-(R11-Pad1)*%
X128016000Y-103886000D02*
X120396000Y-103886000D01*
X128256000Y-106426000D02*
X128256000Y-104126000D01*
X128256000Y-104126000D02*
X128016000Y-103886000D01*
X120396000Y-103886000D02*
X120396000Y-93726000D01*
%TO.N,Net-(R12-Pad1)*%
X124206000Y-106426000D02*
X108966000Y-106426000D01*
%TO.N,Net-(R7-Pad2)*%
X144910000Y-116586000D02*
X144456000Y-116586000D01*
%TO.N,Net-(R10-Pad1)*%
X185166000Y-58166000D02*
X185166000Y-69596000D01*
X168656000Y-61976000D02*
X168656000Y-58166000D01*
%TO.N,Net-(U4-Pad5)*%
X186436000Y-74671000D02*
X186436000Y-64516000D01*
X172466000Y-72136000D02*
X172466000Y-83566000D01*
%TO.N,Net-(U3-Pad10)*%
X166116000Y-72136000D02*
X166116000Y-74676000D01*
%TO.N,Net-(U3-Pad12)*%
X176276000Y-82296000D02*
X176276000Y-77216000D01*
X161036000Y-67056000D02*
X161036000Y-82296000D01*
%TO.N,Net-(U3-Pad13)*%
X171196000Y-63246000D02*
X171196000Y-69596000D01*
%TO.N,Net-(R8-Pad1)*%
X126746000Y-72136000D02*
X126746000Y-89916000D01*
%TO.N,Net-(U3-Pad8)*%
X172466000Y-59436000D02*
X172466000Y-67056000D01*
%TO.N,Net-(R5-Pad1)*%
X194056000Y-82296000D02*
X194056000Y-72136000D01*
X183896000Y-72136000D02*
X183896000Y-82296000D01*
%TO.N,Net-(U1E-VCC)*%
X162306000Y-83566000D02*
X162306000Y-56896000D01*
%TO.N,Net-(U3-Pad8)*%
X164846000Y-68698233D02*
X164846000Y-67056000D01*
X164846000Y-77216000D02*
X164846000Y-68698233D01*
X164846000Y-67056000D02*
X164846000Y-59436000D01*
%TO.N,Net-(U4-Pad5)*%
X185166000Y-83566000D02*
X185166000Y-74676000D01*
%TO.N,Net-(R9-Pad1)*%
X195326000Y-73406000D02*
X195326000Y-74676000D01*
%TO.N,Net-(R12-Pad1)*%
X107696000Y-86034000D02*
X107696000Y-84836000D01*
X107732000Y-86070000D02*
X107696000Y-86034000D01*
%TO.N,Net-(BT1--)*%
X149606000Y-81026000D02*
X149606000Y-77221000D01*
X149606000Y-77221000D02*
X149616000Y-77211000D01*
X190246000Y-81026000D02*
X190246000Y-77221000D01*
X190246000Y-77221000D02*
X190256000Y-77211000D01*
X110236000Y-81026000D02*
X110236000Y-77216000D01*
%TO.N,Net-(R11-Pad1)*%
X140716000Y-93726000D02*
X140716000Y-74676000D01*
%TO.N,Net-(BT1--)*%
X130556000Y-81026000D02*
X130556000Y-77216000D01*
%TO.N,Net-(R3-Pad2)*%
X193040000Y-67310000D02*
X192786000Y-67056000D01*
%TO.N,Net-(R2-Pad2)*%
X117856000Y-91186000D02*
X117856000Y-77216000D01*
%TO.N,Net-(BT1--)*%
X168656000Y-81026000D02*
X168656000Y-77216000D01*
%TO.N,Net-(R12-Pad1)*%
X107696000Y-84836000D02*
X107696000Y-68326000D01*
%TO.N,Net-(U2-Pad8)*%
X143256000Y-77216000D02*
X143256000Y-68326000D01*
X147066000Y-68326000D02*
X147066000Y-69596000D01*
%TO.N,Net-(J2-Pin_1)*%
X154686000Y-83566000D02*
X154686000Y-69596000D01*
%TO.N,Net-(U2-Pad6)*%
X144526000Y-73406000D02*
X144526000Y-61976000D01*
X134366000Y-74676000D02*
X134366000Y-73406000D01*
%TO.N,Net-(U3-Pad6)*%
X163576000Y-73406000D02*
X163576000Y-69596000D01*
%TO.N,Net-(U2-Pad11)*%
X145796000Y-69596000D02*
X145796000Y-72136000D01*
%TO.N,Net-(U3-Pad6)*%
X183896000Y-68326000D02*
X183896000Y-61976000D01*
%TO.N,Net-(R7-Pad1)*%
X141986000Y-72136000D02*
X141986000Y-88646000D01*
%TO.N,Net-(R11-Pad1)*%
X120396000Y-67056000D02*
X120396000Y-93726000D01*
%TO.N,Net-(U1-Pad10)*%
X133096000Y-67056000D02*
X133096000Y-73406000D01*
%TO.N,Net-(U1-Pad11)*%
X121666000Y-69596000D02*
X121666000Y-59436000D01*
X135636000Y-59436000D02*
X135636000Y-64516000D01*
X121666000Y-74676000D02*
X121666000Y-69596000D01*
%TO.N,Net-(U1-Pad10)*%
X122936000Y-73406000D02*
X122936000Y-72136000D01*
%TO.N,Net-(U2-Pad3)*%
X147066000Y-65786000D02*
X147066000Y-64516000D01*
%TO.N,Net-(D3-A)*%
X175260000Y-104140000D02*
X175260000Y-109100000D01*
X175260000Y-109100000D02*
X177920000Y-111760000D01*
%TO.N,Net-(D2-A)*%
X170180000Y-104140000D02*
X170180000Y-111760000D01*
%TO.N,Net-(R12-Pad1)*%
X107696000Y-68326000D02*
X107696000Y-61976000D01*
%TO.N,Net-(D4-A)*%
X180340000Y-106680000D02*
X185420000Y-111760000D01*
X180340000Y-104140000D02*
X180340000Y-106680000D01*
%TO.N,Net-(R1-Pad2)*%
X114046000Y-74676000D02*
X114046000Y-92456000D01*
%TO.N,Net-(U1-Pad3)*%
X110236000Y-69596000D02*
X110236000Y-67056000D01*
%TO.N,Net-(D1-A)*%
X165100000Y-109220000D02*
X162560000Y-111760000D01*
X165100000Y-104140000D02*
X165100000Y-109220000D01*
%TO.N,Net-(U1E-VCC)*%
X117856000Y-61976000D02*
X117856000Y-56896000D01*
%TO.N,Net-(R7-Pad1)*%
X134366000Y-63246000D02*
X134366000Y-72136000D01*
%TO.N,Net-(U1-Pad3)*%
X114046000Y-65786000D02*
X114046000Y-67056000D01*
%TO.N,Net-(U1E-VCC)*%
X176276000Y-61976000D02*
X176276000Y-56896000D01*
%TO.N,Net-(R8-Pad1)*%
X115316000Y-64516000D02*
X115316000Y-70866000D01*
%TO.N,Net-(U1E-VCC)*%
X138176000Y-61976000D02*
X138176000Y-56896000D01*
X157236000Y-61971000D02*
X157236000Y-56906000D01*
X157236000Y-56906000D02*
X157226000Y-56896000D01*
X186436000Y-58166000D02*
X186436000Y-56896000D01*
X197876000Y-58166000D02*
X197876000Y-61971000D01*
%TO.N,Net-(R6-Pad1)*%
X181356000Y-88646000D02*
X181356000Y-70866000D01*
X161980000Y-88972000D02*
X162306000Y-88646000D01*
%TO.N,Net-(R10-Pad1)*%
X168656000Y-54356000D02*
X168656000Y-58166000D01*
%TO.N,Net-(U4-Pad13)*%
X201676000Y-64516000D02*
X201676000Y-59436000D01*
%TO.N,Net-(R6-Pad1)*%
X166116000Y-55626000D02*
X166116000Y-64516000D01*
X182626000Y-70866000D02*
X182626000Y-55626000D01*
X185166000Y-72136000D02*
X185166000Y-70866000D01*
%TO.N,Net-(R9-Pad1)*%
X178816000Y-74676000D02*
X178816000Y-73406000D01*
%TO.N,Net-(U3-Pad9)*%
X159766000Y-65786000D02*
X159766000Y-74676000D01*
X163576000Y-67056000D02*
X163576000Y-65786000D01*
%TO.N,Net-(R5-Pad1)*%
X186436000Y-86106000D02*
X186436000Y-82296000D01*
%TO.N,Net-(U4-Pad13)*%
X201676000Y-64516000D02*
X201676000Y-77216000D01*
X181356000Y-59436000D02*
X181356000Y-64516000D01*
%TO.N,Net-(U3-Pad8)*%
X180086000Y-63246000D02*
X180086000Y-67056000D01*
X195326000Y-67056000D02*
X195326000Y-63246000D01*
%TD*%
M02*
