%TF.GenerationSoftware,KiCad,Pcbnew,7.0.9*%
%TF.CreationDate,2023-12-30T10:08:20+11:00*%
%TF.ProjectId,4-bit-rca,342d6269-742d-4726-9361-2e6b69636164,rev?*%
%TF.SameCoordinates,Original*%
%TF.FileFunction,Legend,Top*%
%TF.FilePolarity,Positive*%
%FSLAX46Y46*%
G04 Gerber Fmt 4.6, Leading zero omitted, Abs format (unit mm)*
G04 Created by KiCad (PCBNEW 7.0.9) date 2023-12-30 10:08:20*
%MOMM*%
%LPD*%
G01*
G04 APERTURE LIST*
%ADD10C,0.150000*%
%ADD11C,0.120000*%
G04 APERTURE END LIST*
D10*
X126954819Y-112162857D02*
X126478628Y-112496190D01*
X126954819Y-112734285D02*
X125954819Y-112734285D01*
X125954819Y-112734285D02*
X125954819Y-112353333D01*
X125954819Y-112353333D02*
X126002438Y-112258095D01*
X126002438Y-112258095D02*
X126050057Y-112210476D01*
X126050057Y-112210476D02*
X126145295Y-112162857D01*
X126145295Y-112162857D02*
X126288152Y-112162857D01*
X126288152Y-112162857D02*
X126383390Y-112210476D01*
X126383390Y-112210476D02*
X126431009Y-112258095D01*
X126431009Y-112258095D02*
X126478628Y-112353333D01*
X126478628Y-112353333D02*
X126478628Y-112734285D01*
X126954819Y-111210476D02*
X126954819Y-111781904D01*
X126954819Y-111496190D02*
X125954819Y-111496190D01*
X125954819Y-111496190D02*
X126097676Y-111591428D01*
X126097676Y-111591428D02*
X126192914Y-111686666D01*
X126192914Y-111686666D02*
X126240533Y-111781904D01*
X126050057Y-110829523D02*
X126002438Y-110781904D01*
X126002438Y-110781904D02*
X125954819Y-110686666D01*
X125954819Y-110686666D02*
X125954819Y-110448571D01*
X125954819Y-110448571D02*
X126002438Y-110353333D01*
X126002438Y-110353333D02*
X126050057Y-110305714D01*
X126050057Y-110305714D02*
X126145295Y-110258095D01*
X126145295Y-110258095D02*
X126240533Y-110258095D01*
X126240533Y-110258095D02*
X126383390Y-110305714D01*
X126383390Y-110305714D02*
X126954819Y-110877142D01*
X126954819Y-110877142D02*
X126954819Y-110258095D01*
X151304819Y-111706666D02*
X150828628Y-112039999D01*
X151304819Y-112278094D02*
X150304819Y-112278094D01*
X150304819Y-112278094D02*
X150304819Y-111897142D01*
X150304819Y-111897142D02*
X150352438Y-111801904D01*
X150352438Y-111801904D02*
X150400057Y-111754285D01*
X150400057Y-111754285D02*
X150495295Y-111706666D01*
X150495295Y-111706666D02*
X150638152Y-111706666D01*
X150638152Y-111706666D02*
X150733390Y-111754285D01*
X150733390Y-111754285D02*
X150781009Y-111801904D01*
X150781009Y-111801904D02*
X150828628Y-111897142D01*
X150828628Y-111897142D02*
X150828628Y-112278094D01*
X150304819Y-110849523D02*
X150304819Y-111039999D01*
X150304819Y-111039999D02*
X150352438Y-111135237D01*
X150352438Y-111135237D02*
X150400057Y-111182856D01*
X150400057Y-111182856D02*
X150542914Y-111278094D01*
X150542914Y-111278094D02*
X150733390Y-111325713D01*
X150733390Y-111325713D02*
X151114342Y-111325713D01*
X151114342Y-111325713D02*
X151209580Y-111278094D01*
X151209580Y-111278094D02*
X151257200Y-111230475D01*
X151257200Y-111230475D02*
X151304819Y-111135237D01*
X151304819Y-111135237D02*
X151304819Y-110944761D01*
X151304819Y-110944761D02*
X151257200Y-110849523D01*
X151257200Y-110849523D02*
X151209580Y-110801904D01*
X151209580Y-110801904D02*
X151114342Y-110754285D01*
X151114342Y-110754285D02*
X150876247Y-110754285D01*
X150876247Y-110754285D02*
X150781009Y-110801904D01*
X150781009Y-110801904D02*
X150733390Y-110849523D01*
X150733390Y-110849523D02*
X150685771Y-110944761D01*
X150685771Y-110944761D02*
X150685771Y-111135237D01*
X150685771Y-111135237D02*
X150733390Y-111230475D01*
X150733390Y-111230475D02*
X150781009Y-111278094D01*
X150781009Y-111278094D02*
X150876247Y-111325713D01*
X130337200Y-132918332D02*
X130384819Y-132775475D01*
X130384819Y-132775475D02*
X130384819Y-132537380D01*
X130384819Y-132537380D02*
X130337200Y-132442142D01*
X130337200Y-132442142D02*
X130289580Y-132394523D01*
X130289580Y-132394523D02*
X130194342Y-132346904D01*
X130194342Y-132346904D02*
X130099104Y-132346904D01*
X130099104Y-132346904D02*
X130003866Y-132394523D01*
X130003866Y-132394523D02*
X129956247Y-132442142D01*
X129956247Y-132442142D02*
X129908628Y-132537380D01*
X129908628Y-132537380D02*
X129861009Y-132727856D01*
X129861009Y-132727856D02*
X129813390Y-132823094D01*
X129813390Y-132823094D02*
X129765771Y-132870713D01*
X129765771Y-132870713D02*
X129670533Y-132918332D01*
X129670533Y-132918332D02*
X129575295Y-132918332D01*
X129575295Y-132918332D02*
X129480057Y-132870713D01*
X129480057Y-132870713D02*
X129432438Y-132823094D01*
X129432438Y-132823094D02*
X129384819Y-132727856D01*
X129384819Y-132727856D02*
X129384819Y-132489761D01*
X129384819Y-132489761D02*
X129432438Y-132346904D01*
X129384819Y-132013570D02*
X130384819Y-131775475D01*
X130384819Y-131775475D02*
X129670533Y-131584999D01*
X129670533Y-131584999D02*
X130384819Y-131394523D01*
X130384819Y-131394523D02*
X129384819Y-131156428D01*
X130384819Y-130251666D02*
X130384819Y-130823094D01*
X130384819Y-130537380D02*
X129384819Y-130537380D01*
X129384819Y-130537380D02*
X129527676Y-130632618D01*
X129527676Y-130632618D02*
X129622914Y-130727856D01*
X129622914Y-130727856D02*
X129670533Y-130823094D01*
X188468095Y-125994819D02*
X188468095Y-126804342D01*
X188468095Y-126804342D02*
X188515714Y-126899580D01*
X188515714Y-126899580D02*
X188563333Y-126947200D01*
X188563333Y-126947200D02*
X188658571Y-126994819D01*
X188658571Y-126994819D02*
X188849047Y-126994819D01*
X188849047Y-126994819D02*
X188944285Y-126947200D01*
X188944285Y-126947200D02*
X188991904Y-126899580D01*
X188991904Y-126899580D02*
X189039523Y-126804342D01*
X189039523Y-126804342D02*
X189039523Y-125994819D01*
X189944285Y-125994819D02*
X189753809Y-125994819D01*
X189753809Y-125994819D02*
X189658571Y-126042438D01*
X189658571Y-126042438D02*
X189610952Y-126090057D01*
X189610952Y-126090057D02*
X189515714Y-126232914D01*
X189515714Y-126232914D02*
X189468095Y-126423390D01*
X189468095Y-126423390D02*
X189468095Y-126804342D01*
X189468095Y-126804342D02*
X189515714Y-126899580D01*
X189515714Y-126899580D02*
X189563333Y-126947200D01*
X189563333Y-126947200D02*
X189658571Y-126994819D01*
X189658571Y-126994819D02*
X189849047Y-126994819D01*
X189849047Y-126994819D02*
X189944285Y-126947200D01*
X189944285Y-126947200D02*
X189991904Y-126899580D01*
X189991904Y-126899580D02*
X190039523Y-126804342D01*
X190039523Y-126804342D02*
X190039523Y-126566247D01*
X190039523Y-126566247D02*
X189991904Y-126471009D01*
X189991904Y-126471009D02*
X189944285Y-126423390D01*
X189944285Y-126423390D02*
X189849047Y-126375771D01*
X189849047Y-126375771D02*
X189658571Y-126375771D01*
X189658571Y-126375771D02*
X189563333Y-126423390D01*
X189563333Y-126423390D02*
X189515714Y-126471009D01*
X189515714Y-126471009D02*
X189468095Y-126566247D01*
X147280819Y-111672666D02*
X146804628Y-112005999D01*
X147280819Y-112244094D02*
X146280819Y-112244094D01*
X146280819Y-112244094D02*
X146280819Y-111863142D01*
X146280819Y-111863142D02*
X146328438Y-111767904D01*
X146328438Y-111767904D02*
X146376057Y-111720285D01*
X146376057Y-111720285D02*
X146471295Y-111672666D01*
X146471295Y-111672666D02*
X146614152Y-111672666D01*
X146614152Y-111672666D02*
X146709390Y-111720285D01*
X146709390Y-111720285D02*
X146757009Y-111767904D01*
X146757009Y-111767904D02*
X146804628Y-111863142D01*
X146804628Y-111863142D02*
X146804628Y-112244094D01*
X146280819Y-111339332D02*
X146280819Y-110672666D01*
X146280819Y-110672666D02*
X147280819Y-111101237D01*
X143230819Y-111672666D02*
X142754628Y-112005999D01*
X143230819Y-112244094D02*
X142230819Y-112244094D01*
X142230819Y-112244094D02*
X142230819Y-111863142D01*
X142230819Y-111863142D02*
X142278438Y-111767904D01*
X142278438Y-111767904D02*
X142326057Y-111720285D01*
X142326057Y-111720285D02*
X142421295Y-111672666D01*
X142421295Y-111672666D02*
X142564152Y-111672666D01*
X142564152Y-111672666D02*
X142659390Y-111720285D01*
X142659390Y-111720285D02*
X142707009Y-111767904D01*
X142707009Y-111767904D02*
X142754628Y-111863142D01*
X142754628Y-111863142D02*
X142754628Y-112244094D01*
X142659390Y-111101237D02*
X142611771Y-111196475D01*
X142611771Y-111196475D02*
X142564152Y-111244094D01*
X142564152Y-111244094D02*
X142468914Y-111291713D01*
X142468914Y-111291713D02*
X142421295Y-111291713D01*
X142421295Y-111291713D02*
X142326057Y-111244094D01*
X142326057Y-111244094D02*
X142278438Y-111196475D01*
X142278438Y-111196475D02*
X142230819Y-111101237D01*
X142230819Y-111101237D02*
X142230819Y-110910761D01*
X142230819Y-110910761D02*
X142278438Y-110815523D01*
X142278438Y-110815523D02*
X142326057Y-110767904D01*
X142326057Y-110767904D02*
X142421295Y-110720285D01*
X142421295Y-110720285D02*
X142468914Y-110720285D01*
X142468914Y-110720285D02*
X142564152Y-110767904D01*
X142564152Y-110767904D02*
X142611771Y-110815523D01*
X142611771Y-110815523D02*
X142659390Y-110910761D01*
X142659390Y-110910761D02*
X142659390Y-111101237D01*
X142659390Y-111101237D02*
X142707009Y-111196475D01*
X142707009Y-111196475D02*
X142754628Y-111244094D01*
X142754628Y-111244094D02*
X142849866Y-111291713D01*
X142849866Y-111291713D02*
X143040342Y-111291713D01*
X143040342Y-111291713D02*
X143135580Y-111244094D01*
X143135580Y-111244094D02*
X143183200Y-111196475D01*
X143183200Y-111196475D02*
X143230819Y-111101237D01*
X143230819Y-111101237D02*
X143230819Y-110910761D01*
X143230819Y-110910761D02*
X143183200Y-110815523D01*
X143183200Y-110815523D02*
X143135580Y-110767904D01*
X143135580Y-110767904D02*
X143040342Y-110720285D01*
X143040342Y-110720285D02*
X142849866Y-110720285D01*
X142849866Y-110720285D02*
X142754628Y-110767904D01*
X142754628Y-110767904D02*
X142707009Y-110815523D01*
X142707009Y-110815523D02*
X142659390Y-110910761D01*
X135130819Y-112148857D02*
X134654628Y-112482190D01*
X135130819Y-112720285D02*
X134130819Y-112720285D01*
X134130819Y-112720285D02*
X134130819Y-112339333D01*
X134130819Y-112339333D02*
X134178438Y-112244095D01*
X134178438Y-112244095D02*
X134226057Y-112196476D01*
X134226057Y-112196476D02*
X134321295Y-112148857D01*
X134321295Y-112148857D02*
X134464152Y-112148857D01*
X134464152Y-112148857D02*
X134559390Y-112196476D01*
X134559390Y-112196476D02*
X134607009Y-112244095D01*
X134607009Y-112244095D02*
X134654628Y-112339333D01*
X134654628Y-112339333D02*
X134654628Y-112720285D01*
X135130819Y-111196476D02*
X135130819Y-111767904D01*
X135130819Y-111482190D02*
X134130819Y-111482190D01*
X134130819Y-111482190D02*
X134273676Y-111577428D01*
X134273676Y-111577428D02*
X134368914Y-111672666D01*
X134368914Y-111672666D02*
X134416533Y-111767904D01*
X134130819Y-110577428D02*
X134130819Y-110482190D01*
X134130819Y-110482190D02*
X134178438Y-110386952D01*
X134178438Y-110386952D02*
X134226057Y-110339333D01*
X134226057Y-110339333D02*
X134321295Y-110291714D01*
X134321295Y-110291714D02*
X134511771Y-110244095D01*
X134511771Y-110244095D02*
X134749866Y-110244095D01*
X134749866Y-110244095D02*
X134940342Y-110291714D01*
X134940342Y-110291714D02*
X135035580Y-110339333D01*
X135035580Y-110339333D02*
X135083200Y-110386952D01*
X135083200Y-110386952D02*
X135130819Y-110482190D01*
X135130819Y-110482190D02*
X135130819Y-110577428D01*
X135130819Y-110577428D02*
X135083200Y-110672666D01*
X135083200Y-110672666D02*
X135035580Y-110720285D01*
X135035580Y-110720285D02*
X134940342Y-110767904D01*
X134940342Y-110767904D02*
X134749866Y-110815523D01*
X134749866Y-110815523D02*
X134511771Y-110815523D01*
X134511771Y-110815523D02*
X134321295Y-110767904D01*
X134321295Y-110767904D02*
X134226057Y-110720285D01*
X134226057Y-110720285D02*
X134178438Y-110672666D01*
X134178438Y-110672666D02*
X134130819Y-110577428D01*
X131080819Y-112148857D02*
X130604628Y-112482190D01*
X131080819Y-112720285D02*
X130080819Y-112720285D01*
X130080819Y-112720285D02*
X130080819Y-112339333D01*
X130080819Y-112339333D02*
X130128438Y-112244095D01*
X130128438Y-112244095D02*
X130176057Y-112196476D01*
X130176057Y-112196476D02*
X130271295Y-112148857D01*
X130271295Y-112148857D02*
X130414152Y-112148857D01*
X130414152Y-112148857D02*
X130509390Y-112196476D01*
X130509390Y-112196476D02*
X130557009Y-112244095D01*
X130557009Y-112244095D02*
X130604628Y-112339333D01*
X130604628Y-112339333D02*
X130604628Y-112720285D01*
X131080819Y-111196476D02*
X131080819Y-111767904D01*
X131080819Y-111482190D02*
X130080819Y-111482190D01*
X130080819Y-111482190D02*
X130223676Y-111577428D01*
X130223676Y-111577428D02*
X130318914Y-111672666D01*
X130318914Y-111672666D02*
X130366533Y-111767904D01*
X131080819Y-110244095D02*
X131080819Y-110815523D01*
X131080819Y-110529809D02*
X130080819Y-110529809D01*
X130080819Y-110529809D02*
X130223676Y-110625047D01*
X130223676Y-110625047D02*
X130318914Y-110720285D01*
X130318914Y-110720285D02*
X130366533Y-110815523D01*
X139180819Y-111672666D02*
X138704628Y-112005999D01*
X139180819Y-112244094D02*
X138180819Y-112244094D01*
X138180819Y-112244094D02*
X138180819Y-111863142D01*
X138180819Y-111863142D02*
X138228438Y-111767904D01*
X138228438Y-111767904D02*
X138276057Y-111720285D01*
X138276057Y-111720285D02*
X138371295Y-111672666D01*
X138371295Y-111672666D02*
X138514152Y-111672666D01*
X138514152Y-111672666D02*
X138609390Y-111720285D01*
X138609390Y-111720285D02*
X138657009Y-111767904D01*
X138657009Y-111767904D02*
X138704628Y-111863142D01*
X138704628Y-111863142D02*
X138704628Y-112244094D01*
X139180819Y-111196475D02*
X139180819Y-111005999D01*
X139180819Y-111005999D02*
X139133200Y-110910761D01*
X139133200Y-110910761D02*
X139085580Y-110863142D01*
X139085580Y-110863142D02*
X138942723Y-110767904D01*
X138942723Y-110767904D02*
X138752247Y-110720285D01*
X138752247Y-110720285D02*
X138371295Y-110720285D01*
X138371295Y-110720285D02*
X138276057Y-110767904D01*
X138276057Y-110767904D02*
X138228438Y-110815523D01*
X138228438Y-110815523D02*
X138180819Y-110910761D01*
X138180819Y-110910761D02*
X138180819Y-111101237D01*
X138180819Y-111101237D02*
X138228438Y-111196475D01*
X138228438Y-111196475D02*
X138276057Y-111244094D01*
X138276057Y-111244094D02*
X138371295Y-111291713D01*
X138371295Y-111291713D02*
X138609390Y-111291713D01*
X138609390Y-111291713D02*
X138704628Y-111244094D01*
X138704628Y-111244094D02*
X138752247Y-111196475D01*
X138752247Y-111196475D02*
X138799866Y-111101237D01*
X138799866Y-111101237D02*
X138799866Y-110910761D01*
X138799866Y-110910761D02*
X138752247Y-110815523D01*
X138752247Y-110815523D02*
X138704628Y-110767904D01*
X138704628Y-110767904D02*
X138609390Y-110720285D01*
X155380819Y-111672666D02*
X154904628Y-112005999D01*
X155380819Y-112244094D02*
X154380819Y-112244094D01*
X154380819Y-112244094D02*
X154380819Y-111863142D01*
X154380819Y-111863142D02*
X154428438Y-111767904D01*
X154428438Y-111767904D02*
X154476057Y-111720285D01*
X154476057Y-111720285D02*
X154571295Y-111672666D01*
X154571295Y-111672666D02*
X154714152Y-111672666D01*
X154714152Y-111672666D02*
X154809390Y-111720285D01*
X154809390Y-111720285D02*
X154857009Y-111767904D01*
X154857009Y-111767904D02*
X154904628Y-111863142D01*
X154904628Y-111863142D02*
X154904628Y-112244094D01*
X154380819Y-110767904D02*
X154380819Y-111244094D01*
X154380819Y-111244094D02*
X154857009Y-111291713D01*
X154857009Y-111291713D02*
X154809390Y-111244094D01*
X154809390Y-111244094D02*
X154761771Y-111148856D01*
X154761771Y-111148856D02*
X154761771Y-110910761D01*
X154761771Y-110910761D02*
X154809390Y-110815523D01*
X154809390Y-110815523D02*
X154857009Y-110767904D01*
X154857009Y-110767904D02*
X154952247Y-110720285D01*
X154952247Y-110720285D02*
X155190342Y-110720285D01*
X155190342Y-110720285D02*
X155285580Y-110767904D01*
X155285580Y-110767904D02*
X155333200Y-110815523D01*
X155333200Y-110815523D02*
X155380819Y-110910761D01*
X155380819Y-110910761D02*
X155380819Y-111148856D01*
X155380819Y-111148856D02*
X155333200Y-111244094D01*
X155333200Y-111244094D02*
X155285580Y-111291713D01*
X173344819Y-99226666D02*
X172868628Y-99559999D01*
X173344819Y-99798094D02*
X172344819Y-99798094D01*
X172344819Y-99798094D02*
X172344819Y-99417142D01*
X172344819Y-99417142D02*
X172392438Y-99321904D01*
X172392438Y-99321904D02*
X172440057Y-99274285D01*
X172440057Y-99274285D02*
X172535295Y-99226666D01*
X172535295Y-99226666D02*
X172678152Y-99226666D01*
X172678152Y-99226666D02*
X172773390Y-99274285D01*
X172773390Y-99274285D02*
X172821009Y-99321904D01*
X172821009Y-99321904D02*
X172868628Y-99417142D01*
X172868628Y-99417142D02*
X172868628Y-99798094D01*
X172344819Y-98893332D02*
X172344819Y-98274285D01*
X172344819Y-98274285D02*
X172725771Y-98607618D01*
X172725771Y-98607618D02*
X172725771Y-98464761D01*
X172725771Y-98464761D02*
X172773390Y-98369523D01*
X172773390Y-98369523D02*
X172821009Y-98321904D01*
X172821009Y-98321904D02*
X172916247Y-98274285D01*
X172916247Y-98274285D02*
X173154342Y-98274285D01*
X173154342Y-98274285D02*
X173249580Y-98321904D01*
X173249580Y-98321904D02*
X173297200Y-98369523D01*
X173297200Y-98369523D02*
X173344819Y-98464761D01*
X173344819Y-98464761D02*
X173344819Y-98750475D01*
X173344819Y-98750475D02*
X173297200Y-98845713D01*
X173297200Y-98845713D02*
X173249580Y-98893332D01*
X199056666Y-117774819D02*
X199056666Y-118489104D01*
X199056666Y-118489104D02*
X199009047Y-118631961D01*
X199009047Y-118631961D02*
X198913809Y-118727200D01*
X198913809Y-118727200D02*
X198770952Y-118774819D01*
X198770952Y-118774819D02*
X198675714Y-118774819D01*
X199485238Y-117870057D02*
X199532857Y-117822438D01*
X199532857Y-117822438D02*
X199628095Y-117774819D01*
X199628095Y-117774819D02*
X199866190Y-117774819D01*
X199866190Y-117774819D02*
X199961428Y-117822438D01*
X199961428Y-117822438D02*
X200009047Y-117870057D01*
X200009047Y-117870057D02*
X200056666Y-117965295D01*
X200056666Y-117965295D02*
X200056666Y-118060533D01*
X200056666Y-118060533D02*
X200009047Y-118203390D01*
X200009047Y-118203390D02*
X199437619Y-118774819D01*
X199437619Y-118774819D02*
X200056666Y-118774819D01*
X171704095Y-59100819D02*
X171704095Y-59910342D01*
X171704095Y-59910342D02*
X171751714Y-60005580D01*
X171751714Y-60005580D02*
X171799333Y-60053200D01*
X171799333Y-60053200D02*
X171894571Y-60100819D01*
X171894571Y-60100819D02*
X172085047Y-60100819D01*
X172085047Y-60100819D02*
X172180285Y-60053200D01*
X172180285Y-60053200D02*
X172227904Y-60005580D01*
X172227904Y-60005580D02*
X172275523Y-59910342D01*
X172275523Y-59910342D02*
X172275523Y-59100819D01*
X173180285Y-59434152D02*
X173180285Y-60100819D01*
X172942190Y-59053200D02*
X172704095Y-59767485D01*
X172704095Y-59767485D02*
X173323142Y-59767485D01*
X193304095Y-59095819D02*
X193304095Y-59905342D01*
X193304095Y-59905342D02*
X193351714Y-60000580D01*
X193351714Y-60000580D02*
X193399333Y-60048200D01*
X193399333Y-60048200D02*
X193494571Y-60095819D01*
X193494571Y-60095819D02*
X193685047Y-60095819D01*
X193685047Y-60095819D02*
X193780285Y-60048200D01*
X193780285Y-60048200D02*
X193827904Y-60000580D01*
X193827904Y-60000580D02*
X193875523Y-59905342D01*
X193875523Y-59905342D02*
X193875523Y-59095819D01*
X194827904Y-59095819D02*
X194351714Y-59095819D01*
X194351714Y-59095819D02*
X194304095Y-59572009D01*
X194304095Y-59572009D02*
X194351714Y-59524390D01*
X194351714Y-59524390D02*
X194446952Y-59476771D01*
X194446952Y-59476771D02*
X194685047Y-59476771D01*
X194685047Y-59476771D02*
X194780285Y-59524390D01*
X194780285Y-59524390D02*
X194827904Y-59572009D01*
X194827904Y-59572009D02*
X194875523Y-59667247D01*
X194875523Y-59667247D02*
X194875523Y-59905342D01*
X194875523Y-59905342D02*
X194827904Y-60000580D01*
X194827904Y-60000580D02*
X194780285Y-60048200D01*
X194780285Y-60048200D02*
X194685047Y-60095819D01*
X194685047Y-60095819D02*
X194446952Y-60095819D01*
X194446952Y-60095819D02*
X194351714Y-60048200D01*
X194351714Y-60048200D02*
X194304095Y-60000580D01*
X160551905Y-108254819D02*
X160551905Y-107254819D01*
X160551905Y-107254819D02*
X160790000Y-107254819D01*
X160790000Y-107254819D02*
X160932857Y-107302438D01*
X160932857Y-107302438D02*
X161028095Y-107397676D01*
X161028095Y-107397676D02*
X161075714Y-107492914D01*
X161075714Y-107492914D02*
X161123333Y-107683390D01*
X161123333Y-107683390D02*
X161123333Y-107826247D01*
X161123333Y-107826247D02*
X161075714Y-108016723D01*
X161075714Y-108016723D02*
X161028095Y-108111961D01*
X161028095Y-108111961D02*
X160932857Y-108207200D01*
X160932857Y-108207200D02*
X160790000Y-108254819D01*
X160790000Y-108254819D02*
X160551905Y-108254819D01*
X162075714Y-108254819D02*
X161504286Y-108254819D01*
X161790000Y-108254819D02*
X161790000Y-107254819D01*
X161790000Y-107254819D02*
X161694762Y-107397676D01*
X161694762Y-107397676D02*
X161599524Y-107492914D01*
X161599524Y-107492914D02*
X161504286Y-107540533D01*
X163184819Y-99226666D02*
X162708628Y-99559999D01*
X163184819Y-99798094D02*
X162184819Y-99798094D01*
X162184819Y-99798094D02*
X162184819Y-99417142D01*
X162184819Y-99417142D02*
X162232438Y-99321904D01*
X162232438Y-99321904D02*
X162280057Y-99274285D01*
X162280057Y-99274285D02*
X162375295Y-99226666D01*
X162375295Y-99226666D02*
X162518152Y-99226666D01*
X162518152Y-99226666D02*
X162613390Y-99274285D01*
X162613390Y-99274285D02*
X162661009Y-99321904D01*
X162661009Y-99321904D02*
X162708628Y-99417142D01*
X162708628Y-99417142D02*
X162708628Y-99798094D01*
X163184819Y-98274285D02*
X163184819Y-98845713D01*
X163184819Y-98559999D02*
X162184819Y-98559999D01*
X162184819Y-98559999D02*
X162327676Y-98655237D01*
X162327676Y-98655237D02*
X162422914Y-98750475D01*
X162422914Y-98750475D02*
X162470533Y-98845713D01*
X198604285Y-133071009D02*
X198747142Y-133118628D01*
X198747142Y-133118628D02*
X198794761Y-133166247D01*
X198794761Y-133166247D02*
X198842380Y-133261485D01*
X198842380Y-133261485D02*
X198842380Y-133404342D01*
X198842380Y-133404342D02*
X198794761Y-133499580D01*
X198794761Y-133499580D02*
X198747142Y-133547200D01*
X198747142Y-133547200D02*
X198651904Y-133594819D01*
X198651904Y-133594819D02*
X198270952Y-133594819D01*
X198270952Y-133594819D02*
X198270952Y-132594819D01*
X198270952Y-132594819D02*
X198604285Y-132594819D01*
X198604285Y-132594819D02*
X198699523Y-132642438D01*
X198699523Y-132642438D02*
X198747142Y-132690057D01*
X198747142Y-132690057D02*
X198794761Y-132785295D01*
X198794761Y-132785295D02*
X198794761Y-132880533D01*
X198794761Y-132880533D02*
X198747142Y-132975771D01*
X198747142Y-132975771D02*
X198699523Y-133023390D01*
X198699523Y-133023390D02*
X198604285Y-133071009D01*
X198604285Y-133071009D02*
X198270952Y-133071009D01*
X199128095Y-132594819D02*
X199699523Y-132594819D01*
X199413809Y-133594819D02*
X199413809Y-132594819D01*
X200556666Y-133594819D02*
X199985238Y-133594819D01*
X200270952Y-133594819D02*
X200270952Y-132594819D01*
X200270952Y-132594819D02*
X200175714Y-132737676D01*
X200175714Y-132737676D02*
X200080476Y-132832914D01*
X200080476Y-132832914D02*
X199985238Y-132880533D01*
X168171905Y-108254819D02*
X168171905Y-107254819D01*
X168171905Y-107254819D02*
X168410000Y-107254819D01*
X168410000Y-107254819D02*
X168552857Y-107302438D01*
X168552857Y-107302438D02*
X168648095Y-107397676D01*
X168648095Y-107397676D02*
X168695714Y-107492914D01*
X168695714Y-107492914D02*
X168743333Y-107683390D01*
X168743333Y-107683390D02*
X168743333Y-107826247D01*
X168743333Y-107826247D02*
X168695714Y-108016723D01*
X168695714Y-108016723D02*
X168648095Y-108111961D01*
X168648095Y-108111961D02*
X168552857Y-108207200D01*
X168552857Y-108207200D02*
X168410000Y-108254819D01*
X168410000Y-108254819D02*
X168171905Y-108254819D01*
X169124286Y-107350057D02*
X169171905Y-107302438D01*
X169171905Y-107302438D02*
X169267143Y-107254819D01*
X169267143Y-107254819D02*
X169505238Y-107254819D01*
X169505238Y-107254819D02*
X169600476Y-107302438D01*
X169600476Y-107302438D02*
X169648095Y-107350057D01*
X169648095Y-107350057D02*
X169695714Y-107445295D01*
X169695714Y-107445295D02*
X169695714Y-107540533D01*
X169695714Y-107540533D02*
X169648095Y-107683390D01*
X169648095Y-107683390D02*
X169076667Y-108254819D01*
X169076667Y-108254819D02*
X169695714Y-108254819D01*
X199056666Y-111424819D02*
X199056666Y-112139104D01*
X199056666Y-112139104D02*
X199009047Y-112281961D01*
X199009047Y-112281961D02*
X198913809Y-112377200D01*
X198913809Y-112377200D02*
X198770952Y-112424819D01*
X198770952Y-112424819D02*
X198675714Y-112424819D01*
X200056666Y-112424819D02*
X199485238Y-112424819D01*
X199770952Y-112424819D02*
X199770952Y-111424819D01*
X199770952Y-111424819D02*
X199675714Y-111567676D01*
X199675714Y-111567676D02*
X199580476Y-111662914D01*
X199580476Y-111662914D02*
X199485238Y-111710533D01*
X113284095Y-59100819D02*
X113284095Y-59910342D01*
X113284095Y-59910342D02*
X113331714Y-60005580D01*
X113331714Y-60005580D02*
X113379333Y-60053200D01*
X113379333Y-60053200D02*
X113474571Y-60100819D01*
X113474571Y-60100819D02*
X113665047Y-60100819D01*
X113665047Y-60100819D02*
X113760285Y-60053200D01*
X113760285Y-60053200D02*
X113807904Y-60005580D01*
X113807904Y-60005580D02*
X113855523Y-59910342D01*
X113855523Y-59910342D02*
X113855523Y-59100819D01*
X114855523Y-60100819D02*
X114284095Y-60100819D01*
X114569809Y-60100819D02*
X114569809Y-59100819D01*
X114569809Y-59100819D02*
X114474571Y-59243676D01*
X114474571Y-59243676D02*
X114379333Y-59338914D01*
X114379333Y-59338914D02*
X114284095Y-59386533D01*
X183411905Y-108254819D02*
X183411905Y-107254819D01*
X183411905Y-107254819D02*
X183650000Y-107254819D01*
X183650000Y-107254819D02*
X183792857Y-107302438D01*
X183792857Y-107302438D02*
X183888095Y-107397676D01*
X183888095Y-107397676D02*
X183935714Y-107492914D01*
X183935714Y-107492914D02*
X183983333Y-107683390D01*
X183983333Y-107683390D02*
X183983333Y-107826247D01*
X183983333Y-107826247D02*
X183935714Y-108016723D01*
X183935714Y-108016723D02*
X183888095Y-108111961D01*
X183888095Y-108111961D02*
X183792857Y-108207200D01*
X183792857Y-108207200D02*
X183650000Y-108254819D01*
X183650000Y-108254819D02*
X183411905Y-108254819D01*
X184840476Y-107588152D02*
X184840476Y-108254819D01*
X184602381Y-107207200D02*
X184364286Y-107921485D01*
X184364286Y-107921485D02*
X184983333Y-107921485D01*
X133604095Y-59100819D02*
X133604095Y-59910342D01*
X133604095Y-59910342D02*
X133651714Y-60005580D01*
X133651714Y-60005580D02*
X133699333Y-60053200D01*
X133699333Y-60053200D02*
X133794571Y-60100819D01*
X133794571Y-60100819D02*
X133985047Y-60100819D01*
X133985047Y-60100819D02*
X134080285Y-60053200D01*
X134080285Y-60053200D02*
X134127904Y-60005580D01*
X134127904Y-60005580D02*
X134175523Y-59910342D01*
X134175523Y-59910342D02*
X134175523Y-59100819D01*
X134604095Y-59196057D02*
X134651714Y-59148438D01*
X134651714Y-59148438D02*
X134746952Y-59100819D01*
X134746952Y-59100819D02*
X134985047Y-59100819D01*
X134985047Y-59100819D02*
X135080285Y-59148438D01*
X135080285Y-59148438D02*
X135127904Y-59196057D01*
X135127904Y-59196057D02*
X135175523Y-59291295D01*
X135175523Y-59291295D02*
X135175523Y-59386533D01*
X135175523Y-59386533D02*
X135127904Y-59529390D01*
X135127904Y-59529390D02*
X134556476Y-60100819D01*
X134556476Y-60100819D02*
X135175523Y-60100819D01*
X152664095Y-59095819D02*
X152664095Y-59905342D01*
X152664095Y-59905342D02*
X152711714Y-60000580D01*
X152711714Y-60000580D02*
X152759333Y-60048200D01*
X152759333Y-60048200D02*
X152854571Y-60095819D01*
X152854571Y-60095819D02*
X153045047Y-60095819D01*
X153045047Y-60095819D02*
X153140285Y-60048200D01*
X153140285Y-60048200D02*
X153187904Y-60000580D01*
X153187904Y-60000580D02*
X153235523Y-59905342D01*
X153235523Y-59905342D02*
X153235523Y-59095819D01*
X153616476Y-59095819D02*
X154235523Y-59095819D01*
X154235523Y-59095819D02*
X153902190Y-59476771D01*
X153902190Y-59476771D02*
X154045047Y-59476771D01*
X154045047Y-59476771D02*
X154140285Y-59524390D01*
X154140285Y-59524390D02*
X154187904Y-59572009D01*
X154187904Y-59572009D02*
X154235523Y-59667247D01*
X154235523Y-59667247D02*
X154235523Y-59905342D01*
X154235523Y-59905342D02*
X154187904Y-60000580D01*
X154187904Y-60000580D02*
X154140285Y-60048200D01*
X154140285Y-60048200D02*
X154045047Y-60095819D01*
X154045047Y-60095819D02*
X153759333Y-60095819D01*
X153759333Y-60095819D02*
X153664095Y-60048200D01*
X153664095Y-60048200D02*
X153616476Y-60000580D01*
X178424819Y-99226666D02*
X177948628Y-99559999D01*
X178424819Y-99798094D02*
X177424819Y-99798094D01*
X177424819Y-99798094D02*
X177424819Y-99417142D01*
X177424819Y-99417142D02*
X177472438Y-99321904D01*
X177472438Y-99321904D02*
X177520057Y-99274285D01*
X177520057Y-99274285D02*
X177615295Y-99226666D01*
X177615295Y-99226666D02*
X177758152Y-99226666D01*
X177758152Y-99226666D02*
X177853390Y-99274285D01*
X177853390Y-99274285D02*
X177901009Y-99321904D01*
X177901009Y-99321904D02*
X177948628Y-99417142D01*
X177948628Y-99417142D02*
X177948628Y-99798094D01*
X177758152Y-98369523D02*
X178424819Y-98369523D01*
X177377200Y-98607618D02*
X178091485Y-98845713D01*
X178091485Y-98845713D02*
X178091485Y-98226666D01*
X175911905Y-108254819D02*
X175911905Y-107254819D01*
X175911905Y-107254819D02*
X176150000Y-107254819D01*
X176150000Y-107254819D02*
X176292857Y-107302438D01*
X176292857Y-107302438D02*
X176388095Y-107397676D01*
X176388095Y-107397676D02*
X176435714Y-107492914D01*
X176435714Y-107492914D02*
X176483333Y-107683390D01*
X176483333Y-107683390D02*
X176483333Y-107826247D01*
X176483333Y-107826247D02*
X176435714Y-108016723D01*
X176435714Y-108016723D02*
X176388095Y-108111961D01*
X176388095Y-108111961D02*
X176292857Y-108207200D01*
X176292857Y-108207200D02*
X176150000Y-108254819D01*
X176150000Y-108254819D02*
X175911905Y-108254819D01*
X176816667Y-107254819D02*
X177435714Y-107254819D01*
X177435714Y-107254819D02*
X177102381Y-107635771D01*
X177102381Y-107635771D02*
X177245238Y-107635771D01*
X177245238Y-107635771D02*
X177340476Y-107683390D01*
X177340476Y-107683390D02*
X177388095Y-107731009D01*
X177388095Y-107731009D02*
X177435714Y-107826247D01*
X177435714Y-107826247D02*
X177435714Y-108064342D01*
X177435714Y-108064342D02*
X177388095Y-108159580D01*
X177388095Y-108159580D02*
X177340476Y-108207200D01*
X177340476Y-108207200D02*
X177245238Y-108254819D01*
X177245238Y-108254819D02*
X176959524Y-108254819D01*
X176959524Y-108254819D02*
X176864286Y-108207200D01*
X176864286Y-108207200D02*
X176816667Y-108159580D01*
X168264819Y-99226666D02*
X167788628Y-99559999D01*
X168264819Y-99798094D02*
X167264819Y-99798094D01*
X167264819Y-99798094D02*
X167264819Y-99417142D01*
X167264819Y-99417142D02*
X167312438Y-99321904D01*
X167312438Y-99321904D02*
X167360057Y-99274285D01*
X167360057Y-99274285D02*
X167455295Y-99226666D01*
X167455295Y-99226666D02*
X167598152Y-99226666D01*
X167598152Y-99226666D02*
X167693390Y-99274285D01*
X167693390Y-99274285D02*
X167741009Y-99321904D01*
X167741009Y-99321904D02*
X167788628Y-99417142D01*
X167788628Y-99417142D02*
X167788628Y-99798094D01*
X167360057Y-98845713D02*
X167312438Y-98798094D01*
X167312438Y-98798094D02*
X167264819Y-98702856D01*
X167264819Y-98702856D02*
X167264819Y-98464761D01*
X167264819Y-98464761D02*
X167312438Y-98369523D01*
X167312438Y-98369523D02*
X167360057Y-98321904D01*
X167360057Y-98321904D02*
X167455295Y-98274285D01*
X167455295Y-98274285D02*
X167550533Y-98274285D01*
X167550533Y-98274285D02*
X167693390Y-98321904D01*
X167693390Y-98321904D02*
X168264819Y-98893332D01*
X168264819Y-98893332D02*
X168264819Y-98274285D01*
D11*
%TO.C,R12*%
X124130000Y-115560000D02*
X124130000Y-114790000D01*
X124130000Y-107480000D02*
X124130000Y-108250000D01*
X125500000Y-108250000D02*
X122760000Y-108250000D01*
X122760000Y-114790000D02*
X125500000Y-114790000D01*
X122760000Y-108250000D02*
X122760000Y-114790000D01*
X125500000Y-114790000D02*
X125500000Y-108250000D01*
%TO.C,R6*%
X149850000Y-114810000D02*
X149850000Y-108270000D01*
X147110000Y-108270000D02*
X147110000Y-114810000D01*
X147110000Y-114810000D02*
X149850000Y-114810000D01*
X149850000Y-108270000D02*
X147110000Y-108270000D01*
X148480000Y-107500000D02*
X148480000Y-108270000D01*
X148480000Y-115580000D02*
X148480000Y-114810000D01*
%TO.C,SW1*%
X141415000Y-133615000D02*
X141415000Y-132261667D01*
X142875000Y-133615000D02*
X144145000Y-133615000D01*
X146495000Y-133615000D02*
X146495000Y-132261667D01*
X145415000Y-133615000D02*
X146685000Y-133615000D01*
X138995000Y-133615000D02*
X138995000Y-132261667D01*
X132715000Y-132261667D02*
X133985000Y-132261667D01*
X145415000Y-129555000D02*
X145415000Y-133615000D01*
X143595000Y-133615000D02*
X143595000Y-132261667D01*
X147955000Y-129555000D02*
X147955000Y-133615000D01*
X146255000Y-133615000D02*
X146255000Y-132261667D01*
X142995000Y-133615000D02*
X142995000Y-132261667D01*
X144311000Y-126635000D02*
X145251000Y-126635000D01*
X141605000Y-129555000D02*
X140335000Y-129555000D01*
X147955000Y-133615000D02*
X149225000Y-133615000D01*
X143475000Y-133615000D02*
X143475000Y-132261667D01*
X146851000Y-126635000D02*
X147791000Y-126635000D01*
X136455000Y-133615000D02*
X136455000Y-132261667D01*
X142875000Y-132261667D02*
X144145000Y-132261667D01*
X133985000Y-129555000D02*
X132715000Y-129555000D01*
X133435000Y-133615000D02*
X133435000Y-132261667D01*
X137915000Y-133615000D02*
X137915000Y-132261667D01*
X130690000Y-136775000D02*
X130690000Y-135391000D01*
X150975000Y-133615000D02*
X150975000Y-132261667D01*
X147955000Y-132261667D02*
X149225000Y-132261667D01*
X135855000Y-133615000D02*
X135855000Y-132261667D01*
X141055000Y-133615000D02*
X141055000Y-132261667D01*
X146615000Y-133615000D02*
X146615000Y-132261667D01*
X145535000Y-133615000D02*
X145535000Y-132261667D01*
X150495000Y-133615000D02*
X151765000Y-133615000D01*
X141175000Y-133615000D02*
X141175000Y-132261667D01*
X145415000Y-132261667D02*
X146685000Y-132261667D01*
X136095000Y-133615000D02*
X136095000Y-132261667D01*
X136690000Y-136535000D02*
X137630000Y-136535000D01*
X149225000Y-129555000D02*
X147955000Y-129555000D01*
X148435000Y-133615000D02*
X148435000Y-132261667D01*
X146135000Y-133615000D02*
X146135000Y-132261667D01*
X136525000Y-133615000D02*
X136525000Y-129555000D01*
X132715000Y-133615000D02*
X133985000Y-133615000D01*
X136525000Y-129555000D02*
X135255000Y-129555000D01*
X143235000Y-133615000D02*
X143235000Y-132261667D01*
X135255000Y-133615000D02*
X136525000Y-133615000D01*
X149391000Y-126635000D02*
X150330000Y-126635000D01*
X133075000Y-133615000D02*
X133075000Y-132261667D01*
X140455000Y-133615000D02*
X140455000Y-132261667D01*
X130930000Y-136535000D02*
X132550000Y-136535000D01*
X134150000Y-136535000D02*
X135090000Y-136535000D01*
X146375000Y-133615000D02*
X146375000Y-132261667D01*
X143355000Y-133615000D02*
X143355000Y-132261667D01*
X142875000Y-129555000D02*
X142875000Y-133615000D01*
X151095000Y-133615000D02*
X151095000Y-132261667D01*
X135615000Y-133615000D02*
X135615000Y-132261667D01*
X136215000Y-133615000D02*
X136215000Y-132261667D01*
X149155000Y-133615000D02*
X149155000Y-132261667D01*
X130930000Y-136535000D02*
X130930000Y-126635000D01*
X150495000Y-129555000D02*
X150495000Y-133615000D01*
X132835000Y-133615000D02*
X132835000Y-132261667D01*
X135975000Y-133615000D02*
X135975000Y-132261667D01*
X132715000Y-129555000D02*
X132715000Y-133615000D01*
X135375000Y-133615000D02*
X135375000Y-132261667D01*
X146685000Y-133615000D02*
X146685000Y-129555000D01*
X130690000Y-136775000D02*
X132073000Y-136775000D01*
X136335000Y-133615000D02*
X136335000Y-132261667D01*
X137795000Y-129555000D02*
X137795000Y-133615000D01*
X151765000Y-129555000D02*
X150495000Y-129555000D01*
X137795000Y-133615000D02*
X139065000Y-133615000D01*
X138635000Y-133615000D02*
X138635000Y-132261667D01*
X146685000Y-129555000D02*
X145415000Y-129555000D01*
X153551000Y-136535000D02*
X153551000Y-126635000D01*
X151930000Y-126635000D02*
X153551000Y-126635000D01*
X145655000Y-133615000D02*
X145655000Y-132261667D01*
X148075000Y-133615000D02*
X148075000Y-132261667D01*
X151215000Y-133615000D02*
X151215000Y-132261667D01*
X149225000Y-133615000D02*
X149225000Y-129555000D01*
X135735000Y-133615000D02*
X135735000Y-132261667D01*
X130930000Y-126635000D02*
X132550000Y-126635000D01*
X141771000Y-126635000D02*
X142711000Y-126635000D01*
X145895000Y-133615000D02*
X145895000Y-132261667D01*
X138155000Y-133615000D02*
X138155000Y-132261667D01*
X146015000Y-133615000D02*
X146015000Y-132261667D01*
X134151000Y-126635000D02*
X135091000Y-126635000D01*
X140935000Y-133615000D02*
X140935000Y-132261667D01*
X138875000Y-133615000D02*
X138875000Y-132261667D01*
X148675000Y-133615000D02*
X148675000Y-132261667D01*
X148555000Y-133615000D02*
X148555000Y-132261667D01*
X150735000Y-133615000D02*
X150735000Y-132261667D01*
X133315000Y-133615000D02*
X133315000Y-132261667D01*
X148795000Y-133615000D02*
X148795000Y-132261667D01*
X151695000Y-133615000D02*
X151695000Y-132261667D01*
X144145000Y-133615000D02*
X144145000Y-129555000D01*
X150615000Y-133615000D02*
X150615000Y-132261667D01*
X133985000Y-133615000D02*
X133985000Y-129555000D01*
X139065000Y-129555000D02*
X137795000Y-129555000D01*
X151335000Y-133615000D02*
X151335000Y-132261667D01*
X151575000Y-133615000D02*
X151575000Y-132261667D01*
X151455000Y-133615000D02*
X151455000Y-132261667D01*
X151930000Y-136535000D02*
X153551000Y-136535000D01*
X139230000Y-136535000D02*
X140170000Y-136535000D01*
X135495000Y-133615000D02*
X135495000Y-132261667D01*
X139231000Y-126635000D02*
X140171000Y-126635000D01*
X143715000Y-133615000D02*
X143715000Y-132261667D01*
X141605000Y-133615000D02*
X141605000Y-129555000D01*
X151765000Y-133615000D02*
X151765000Y-129555000D01*
X133795000Y-133615000D02*
X133795000Y-132261667D01*
X145775000Y-133615000D02*
X145775000Y-132261667D01*
X136691000Y-126635000D02*
X137631000Y-126635000D01*
X150855000Y-133615000D02*
X150855000Y-132261667D01*
X148915000Y-133615000D02*
X148915000Y-132261667D01*
X148195000Y-133615000D02*
X148195000Y-132261667D01*
X148315000Y-133615000D02*
X148315000Y-132261667D01*
X138755000Y-133615000D02*
X138755000Y-132261667D01*
X138035000Y-133615000D02*
X138035000Y-132261667D01*
X146850000Y-136535000D02*
X147790000Y-136535000D01*
X138275000Y-133615000D02*
X138275000Y-132261667D01*
X140335000Y-132261667D02*
X141605000Y-132261667D01*
X139065000Y-133615000D02*
X139065000Y-129555000D01*
X138395000Y-133615000D02*
X138395000Y-132261667D01*
X149390000Y-136535000D02*
X150330000Y-136535000D01*
X140575000Y-133615000D02*
X140575000Y-132261667D01*
X135255000Y-129555000D02*
X135255000Y-133615000D01*
X144075000Y-133615000D02*
X144075000Y-132261667D01*
X150495000Y-132261667D02*
X151765000Y-132261667D01*
X149035000Y-133615000D02*
X149035000Y-132261667D01*
X140815000Y-133615000D02*
X140815000Y-132261667D01*
X133555000Y-133615000D02*
X133555000Y-132261667D01*
X143115000Y-133615000D02*
X143115000Y-132261667D01*
X143835000Y-133615000D02*
X143835000Y-132261667D01*
X135255000Y-132261667D02*
X136525000Y-132261667D01*
X138515000Y-133615000D02*
X138515000Y-132261667D01*
X133195000Y-133615000D02*
X133195000Y-132261667D01*
X137795000Y-132261667D02*
X139065000Y-132261667D01*
X143955000Y-133615000D02*
X143955000Y-132261667D01*
X144310000Y-136535000D02*
X145250000Y-136535000D01*
X133915000Y-133615000D02*
X133915000Y-132261667D01*
X141535000Y-133615000D02*
X141535000Y-132261667D01*
X132955000Y-133615000D02*
X132955000Y-132261667D01*
X140695000Y-133615000D02*
X140695000Y-132261667D01*
X140335000Y-133615000D02*
X141605000Y-133615000D01*
X141295000Y-133615000D02*
X141295000Y-132261667D01*
X144145000Y-129555000D02*
X142875000Y-129555000D01*
X133675000Y-133615000D02*
X133675000Y-132261667D01*
X141770000Y-136535000D02*
X142710000Y-136535000D01*
X140335000Y-129555000D02*
X140335000Y-133615000D01*
%TO.C,U6*%
X184110000Y-127540000D02*
X194350000Y-127540000D01*
X187380000Y-127540000D02*
X187380000Y-129050000D01*
X191081000Y-127540000D02*
X191081000Y-129050000D01*
X184110000Y-127540000D02*
X184110000Y-132181000D01*
X184110000Y-132181000D02*
X194350000Y-132181000D01*
X194350000Y-127540000D02*
X194350000Y-132181000D01*
X184110000Y-129050000D02*
X194350000Y-129050000D01*
%TO.C,R7*%
X144456000Y-115546000D02*
X144456000Y-114776000D01*
X144456000Y-107466000D02*
X144456000Y-108236000D01*
X145826000Y-108236000D02*
X143086000Y-108236000D01*
X143086000Y-114776000D02*
X145826000Y-114776000D01*
X143086000Y-108236000D02*
X143086000Y-114776000D01*
X145826000Y-114776000D02*
X145826000Y-108236000D01*
%TO.C,R8*%
X140406000Y-115546000D02*
X140406000Y-114776000D01*
X140406000Y-107466000D02*
X140406000Y-108236000D01*
X141776000Y-108236000D02*
X139036000Y-108236000D01*
X139036000Y-114776000D02*
X141776000Y-114776000D01*
X139036000Y-108236000D02*
X139036000Y-114776000D01*
X141776000Y-114776000D02*
X141776000Y-108236000D01*
%TO.C,R10*%
X132306000Y-115546000D02*
X132306000Y-114776000D01*
X132306000Y-107466000D02*
X132306000Y-108236000D01*
X133676000Y-108236000D02*
X130936000Y-108236000D01*
X130936000Y-114776000D02*
X133676000Y-114776000D01*
X130936000Y-108236000D02*
X130936000Y-114776000D01*
X133676000Y-114776000D02*
X133676000Y-108236000D01*
%TO.C,R11*%
X128256000Y-115546000D02*
X128256000Y-114776000D01*
X128256000Y-107466000D02*
X128256000Y-108236000D01*
X129626000Y-108236000D02*
X126886000Y-108236000D01*
X126886000Y-114776000D02*
X129626000Y-114776000D01*
X126886000Y-108236000D02*
X126886000Y-114776000D01*
X129626000Y-114776000D02*
X129626000Y-108236000D01*
%TO.C,R9*%
X136356000Y-115546000D02*
X136356000Y-114776000D01*
X136356000Y-107466000D02*
X136356000Y-108236000D01*
X137726000Y-108236000D02*
X134986000Y-108236000D01*
X134986000Y-114776000D02*
X137726000Y-114776000D01*
X134986000Y-108236000D02*
X134986000Y-114776000D01*
X137726000Y-114776000D02*
X137726000Y-108236000D01*
%TO.C,R5*%
X152556000Y-115546000D02*
X152556000Y-114776000D01*
X152556000Y-107466000D02*
X152556000Y-108236000D01*
X153926000Y-108236000D02*
X151186000Y-108236000D01*
X151186000Y-114776000D02*
X153926000Y-114776000D01*
X151186000Y-108236000D02*
X151186000Y-114776000D01*
X153926000Y-114776000D02*
X153926000Y-108236000D01*
%TO.C,R3*%
X175260000Y-103100000D02*
X175260000Y-102330000D01*
X173890000Y-102330000D02*
X176630000Y-102330000D01*
X176630000Y-102330000D02*
X176630000Y-95790000D01*
X173890000Y-95790000D02*
X173890000Y-102330000D01*
X176630000Y-95790000D02*
X173890000Y-95790000D01*
X175260000Y-95020000D02*
X175260000Y-95790000D01*
%TO.C,J2*%
X198060000Y-119320000D02*
X199390000Y-119320000D01*
X198060000Y-120650000D02*
X198060000Y-119320000D01*
X198060000Y-121920000D02*
X198060000Y-121980000D01*
X198060000Y-121920000D02*
X200720000Y-121920000D01*
X198060000Y-121980000D02*
X200720000Y-121980000D01*
X200720000Y-121920000D02*
X200720000Y-121980000D01*
%TO.C,U4*%
X167216000Y-60586000D02*
X167216000Y-78606000D01*
X167216000Y-78606000D02*
X177716000Y-78606000D01*
X170216000Y-60646000D02*
X170216000Y-78546000D01*
X170216000Y-78546000D02*
X174716000Y-78546000D01*
X171466000Y-60646000D02*
X170216000Y-60646000D01*
X174716000Y-60646000D02*
X173466000Y-60646000D01*
X174716000Y-78546000D02*
X174716000Y-60646000D01*
X177716000Y-60586000D02*
X167216000Y-60586000D01*
X177716000Y-78606000D02*
X177716000Y-60586000D01*
X171466000Y-60646000D02*
G75*
G03*
X173466000Y-60646000I1000000J0D01*
G01*
%TO.C,U5*%
X188816000Y-60581000D02*
X188816000Y-78601000D01*
X188816000Y-78601000D02*
X199316000Y-78601000D01*
X191816000Y-60641000D02*
X191816000Y-78541000D01*
X191816000Y-78541000D02*
X196316000Y-78541000D01*
X193066000Y-60641000D02*
X191816000Y-60641000D01*
X196316000Y-60641000D02*
X195066000Y-60641000D01*
X196316000Y-78541000D02*
X196316000Y-60641000D01*
X199316000Y-60581000D02*
X188816000Y-60581000D01*
X199316000Y-78601000D02*
X199316000Y-60581000D01*
X193066000Y-60641000D02*
G75*
G03*
X195066000Y-60641000I1000000J0D01*
G01*
%TO.C,D1*%
X158730000Y-110215000D02*
X158730000Y-113305000D01*
X164279999Y-111760462D02*
G75*
G03*
X158730001Y-110215170I-2989999J462D01*
G01*
X158730000Y-113304830D02*
G75*
G03*
X164280000Y-111759538I2560000J1544830D01*
G01*
X163790000Y-111760000D02*
G75*
G03*
X163790000Y-111760000I-2500000J0D01*
G01*
%TO.C,R1*%
X165100000Y-103100000D02*
X165100000Y-102330000D01*
X163730000Y-102330000D02*
X166470000Y-102330000D01*
X166470000Y-102330000D02*
X166470000Y-95790000D01*
X163730000Y-95790000D02*
X163730000Y-102330000D01*
X166470000Y-95790000D02*
X163730000Y-95790000D01*
X165100000Y-95020000D02*
X165100000Y-95790000D01*
%TO.C,BT1*%
X200720000Y-132140000D02*
X199390000Y-132140000D01*
X200720000Y-130810000D02*
X200720000Y-132140000D01*
X200720000Y-129540000D02*
X200720000Y-126940000D01*
X200720000Y-129540000D02*
X198060000Y-129540000D01*
X200720000Y-126940000D02*
X198060000Y-126940000D01*
X198060000Y-129540000D02*
X198060000Y-126940000D01*
%TO.C,D2*%
X166350000Y-110215000D02*
X166350000Y-113305000D01*
X171899999Y-111760462D02*
G75*
G03*
X166350001Y-110215170I-2989999J462D01*
G01*
X166350000Y-113304830D02*
G75*
G03*
X171900000Y-111759538I2560000J1544830D01*
G01*
X171410000Y-111760000D02*
G75*
G03*
X171410000Y-111760000I-2500000J0D01*
G01*
%TO.C,J1*%
X198060000Y-112970000D02*
X199390000Y-112970000D01*
X198060000Y-114300000D02*
X198060000Y-112970000D01*
X198060000Y-115570000D02*
X198060000Y-115630000D01*
X198060000Y-115570000D02*
X200720000Y-115570000D01*
X198060000Y-115630000D02*
X200720000Y-115630000D01*
X200720000Y-115570000D02*
X200720000Y-115630000D01*
%TO.C,U1*%
X108796000Y-60586000D02*
X108796000Y-78606000D01*
X108796000Y-78606000D02*
X119296000Y-78606000D01*
X111796000Y-60646000D02*
X111796000Y-78546000D01*
X111796000Y-78546000D02*
X116296000Y-78546000D01*
X113046000Y-60646000D02*
X111796000Y-60646000D01*
X116296000Y-60646000D02*
X115046000Y-60646000D01*
X116296000Y-78546000D02*
X116296000Y-60646000D01*
X119296000Y-60586000D02*
X108796000Y-60586000D01*
X119296000Y-78606000D02*
X119296000Y-60586000D01*
X113046000Y-60646000D02*
G75*
G03*
X115046000Y-60646000I1000000J0D01*
G01*
%TO.C,D4*%
X181590000Y-110215000D02*
X181590000Y-113305000D01*
X187139999Y-111760462D02*
G75*
G03*
X181590001Y-110215170I-2989999J462D01*
G01*
X181590000Y-113304830D02*
G75*
G03*
X187140000Y-111759538I2560000J1544830D01*
G01*
X186650000Y-111760000D02*
G75*
G03*
X186650000Y-111760000I-2500000J0D01*
G01*
%TO.C,U2*%
X129116000Y-60586000D02*
X129116000Y-78606000D01*
X129116000Y-78606000D02*
X139616000Y-78606000D01*
X132116000Y-60646000D02*
X132116000Y-78546000D01*
X132116000Y-78546000D02*
X136616000Y-78546000D01*
X133366000Y-60646000D02*
X132116000Y-60646000D01*
X136616000Y-60646000D02*
X135366000Y-60646000D01*
X136616000Y-78546000D02*
X136616000Y-60646000D01*
X139616000Y-60586000D02*
X129116000Y-60586000D01*
X139616000Y-78606000D02*
X139616000Y-60586000D01*
X133366000Y-60646000D02*
G75*
G03*
X135366000Y-60646000I1000000J0D01*
G01*
%TO.C,U3*%
X148176000Y-60581000D02*
X148176000Y-78601000D01*
X148176000Y-78601000D02*
X158676000Y-78601000D01*
X151176000Y-60641000D02*
X151176000Y-78541000D01*
X151176000Y-78541000D02*
X155676000Y-78541000D01*
X152426000Y-60641000D02*
X151176000Y-60641000D01*
X155676000Y-60641000D02*
X154426000Y-60641000D01*
X155676000Y-78541000D02*
X155676000Y-60641000D01*
X158676000Y-60581000D02*
X148176000Y-60581000D01*
X158676000Y-78601000D02*
X158676000Y-60581000D01*
X152426000Y-60641000D02*
G75*
G03*
X154426000Y-60641000I1000000J0D01*
G01*
%TO.C,R4*%
X180340000Y-103100000D02*
X180340000Y-102330000D01*
X178970000Y-102330000D02*
X181710000Y-102330000D01*
X181710000Y-102330000D02*
X181710000Y-95790000D01*
X178970000Y-95790000D02*
X178970000Y-102330000D01*
X181710000Y-95790000D02*
X178970000Y-95790000D01*
X180340000Y-95020000D02*
X180340000Y-95790000D01*
%TO.C,D3*%
X174090000Y-110215000D02*
X174090000Y-113305000D01*
X179639999Y-111760462D02*
G75*
G03*
X174090001Y-110215170I-2989999J462D01*
G01*
X174090000Y-113304830D02*
G75*
G03*
X179640000Y-111759538I2560000J1544830D01*
G01*
X179150000Y-111760000D02*
G75*
G03*
X179150000Y-111760000I-2500000J0D01*
G01*
%TO.C,R2*%
X170180000Y-103100000D02*
X170180000Y-102330000D01*
X168810000Y-102330000D02*
X171550000Y-102330000D01*
X171550000Y-102330000D02*
X171550000Y-95790000D01*
X168810000Y-95790000D02*
X168810000Y-102330000D01*
X171550000Y-95790000D02*
X168810000Y-95790000D01*
X170180000Y-95020000D02*
X170180000Y-95790000D01*
%TD*%
M02*
