%TF.GenerationSoftware,KiCad,Pcbnew,7.0.9*%
%TF.CreationDate,2023-12-30T10:08:20+11:00*%
%TF.ProjectId,4-bit-rca,342d6269-742d-4726-9361-2e6b69636164,rev?*%
%TF.SameCoordinates,Original*%
%TF.FileFunction,Copper,L2,Bot*%
%TF.FilePolarity,Positive*%
%FSLAX46Y46*%
G04 Gerber Fmt 4.6, Leading zero omitted, Abs format (unit mm)*
G04 Created by KiCad (PCBNEW 7.0.9) date 2023-12-30 10:08:20*
%MOMM*%
%LPD*%
G01*
G04 APERTURE LIST*
%TA.AperFunction,ComponentPad*%
%ADD10C,1.600000*%
%TD*%
%TA.AperFunction,ComponentPad*%
%ADD11O,1.600000X1.600000*%
%TD*%
%TA.AperFunction,ComponentPad*%
%ADD12R,1.905000X2.000000*%
%TD*%
%TA.AperFunction,ComponentPad*%
%ADD13O,1.905000X2.000000*%
%TD*%
%TA.AperFunction,ComponentPad*%
%ADD14R,1.700000X1.700000*%
%TD*%
%TA.AperFunction,ComponentPad*%
%ADD15R,2.400000X1.600000*%
%TD*%
%TA.AperFunction,ComponentPad*%
%ADD16O,2.400000X1.600000*%
%TD*%
%TA.AperFunction,ComponentPad*%
%ADD17R,1.800000X1.800000*%
%TD*%
%TA.AperFunction,ComponentPad*%
%ADD18C,1.800000*%
%TD*%
%TA.AperFunction,ComponentPad*%
%ADD19O,1.700000X1.700000*%
%TD*%
%TA.AperFunction,ViaPad*%
%ADD20C,0.800000*%
%TD*%
%TA.AperFunction,Conductor*%
%ADD21C,0.500000*%
%TD*%
%TA.AperFunction,Conductor*%
%ADD22C,1.000000*%
%TD*%
G04 APERTURE END LIST*
D10*
%TO.P,R12,1*%
%TO.N,Net-(R12-Pad1)*%
X124130000Y-106440000D03*
D11*
%TO.P,R12,2*%
%TO.N,Net-(R12-Pad2)*%
X124130000Y-116600000D03*
%TD*%
%TO.P,R6,2*%
%TO.N,Net-(R6-Pad2)*%
X148480000Y-116620000D03*
D10*
%TO.P,R6,1*%
%TO.N,Net-(R6-Pad1)*%
X148480000Y-106460000D03*
%TD*%
D12*
%TO.P,U6,1,IN*%
%TO.N,Net-(BT1-+)*%
X186690000Y-130810000D03*
D13*
%TO.P,U6,2,GND*%
%TO.N,Net-(BT1--)*%
X189230000Y-130810000D03*
%TO.P,U6,3,OUT*%
%TO.N,Net-(U1E-VCC)*%
X191770000Y-130810000D03*
%TD*%
D10*
%TO.P,R7,1*%
%TO.N,Net-(R7-Pad1)*%
X144456000Y-106426000D03*
D11*
%TO.P,R7,2*%
%TO.N,Net-(R7-Pad2)*%
X144456000Y-116586000D03*
%TD*%
D10*
%TO.P,R8,1*%
%TO.N,Net-(R8-Pad1)*%
X140406000Y-106426000D03*
D11*
%TO.P,R8,2*%
%TO.N,Net-(R8-Pad2)*%
X140406000Y-116586000D03*
%TD*%
D10*
%TO.P,R10,1*%
%TO.N,Net-(R10-Pad1)*%
X132306000Y-106426000D03*
D11*
%TO.P,R10,2*%
%TO.N,Net-(R10-Pad2)*%
X132306000Y-116586000D03*
%TD*%
D10*
%TO.P,R11,1*%
%TO.N,Net-(R11-Pad1)*%
X128256000Y-106426000D03*
D11*
%TO.P,R11,2*%
%TO.N,Net-(R11-Pad2)*%
X128256000Y-116586000D03*
%TD*%
D10*
%TO.P,R9,1*%
%TO.N,Net-(R9-Pad1)*%
X136356000Y-106426000D03*
D11*
%TO.P,R9,2*%
%TO.N,Net-(R9-Pad2)*%
X136356000Y-116586000D03*
%TD*%
D10*
%TO.P,R5,1*%
%TO.N,Net-(R5-Pad1)*%
X152556000Y-106426000D03*
D11*
%TO.P,R5,2*%
%TO.N,Net-(R5-Pad2)*%
X152556000Y-116586000D03*
%TD*%
D10*
%TO.P,R3,1*%
%TO.N,Net-(D3-A)*%
X175260000Y-104140000D03*
D11*
%TO.P,R3,2*%
%TO.N,Net-(R3-Pad2)*%
X175260000Y-93980000D03*
%TD*%
D14*
%TO.P,J2,1,Pin_1*%
%TO.N,Net-(J2-Pin_1)*%
X199390000Y-120650000D03*
%TD*%
D15*
%TO.P,U4,1*%
%TO.N,Net-(R10-Pad1)*%
X168656000Y-61976000D03*
D16*
%TO.P,U4,2*%
%TO.N,Net-(R6-Pad1)*%
X168656000Y-64516000D03*
%TO.P,U4,3*%
%TO.N,Net-(U3-Pad9)*%
X168656000Y-67056000D03*
%TO.P,U4,4*%
%TO.N,Net-(U3-Pad6)*%
X168656000Y-69596000D03*
%TO.P,U4,5*%
%TO.N,Net-(U4-Pad5)*%
X168656000Y-72136000D03*
%TO.P,U4,6*%
%TO.N,Net-(U3-Pad10)*%
X168656000Y-74676000D03*
%TO.P,U4,7,GND*%
%TO.N,Net-(BT1--)*%
X168656000Y-77216000D03*
%TO.P,U4,8*%
%TO.N,Net-(U3-Pad12)*%
X176276000Y-77216000D03*
%TO.P,U4,9*%
%TO.N,Net-(R9-Pad1)*%
X176276000Y-74676000D03*
%TO.P,U4,10*%
%TO.N,Net-(R5-Pad1)*%
X176276000Y-72136000D03*
%TO.P,U4,11*%
%TO.N,Net-(U3-Pad13)*%
X176276000Y-69596000D03*
%TO.P,U4,12*%
%TO.N,Net-(U3-Pad8)*%
X176276000Y-67056000D03*
%TO.P,U4,13*%
%TO.N,Net-(U4-Pad13)*%
X176276000Y-64516000D03*
%TO.P,U4,14,VCC*%
%TO.N,Net-(U1E-VCC)*%
X176276000Y-61976000D03*
%TD*%
D15*
%TO.P,U5,1*%
%TO.N,Net-(U3-Pad6)*%
X190256000Y-61971000D03*
D16*
%TO.P,U5,2*%
%TO.N,Net-(U4-Pad5)*%
X190256000Y-64511000D03*
%TO.P,U5,3*%
%TO.N,Net-(R3-Pad2)*%
X190256000Y-67051000D03*
%TO.P,U5,4*%
%TO.N,Net-(R10-Pad1)*%
X190256000Y-69591000D03*
%TO.P,U5,5*%
%TO.N,Net-(R6-Pad1)*%
X190256000Y-72131000D03*
%TO.P,U5,6*%
%TO.N,Net-(U4-Pad5)*%
X190256000Y-74671000D03*
%TO.P,U5,7,GND*%
%TO.N,Net-(BT1--)*%
X190256000Y-77211000D03*
%TO.P,U5,8*%
%TO.N,Net-(U4-Pad13)*%
X197876000Y-77211000D03*
%TO.P,U5,9*%
%TO.N,Net-(R9-Pad1)*%
X197876000Y-74671000D03*
%TO.P,U5,10*%
%TO.N,Net-(R5-Pad1)*%
X197876000Y-72131000D03*
%TO.P,U5,11*%
%TO.N,Net-(R4-Pad2)*%
X197876000Y-69591000D03*
%TO.P,U5,12*%
%TO.N,Net-(U3-Pad8)*%
X197876000Y-67051000D03*
%TO.P,U5,13*%
%TO.N,Net-(U4-Pad13)*%
X197876000Y-64511000D03*
%TO.P,U5,14,VCC*%
%TO.N,Net-(U1E-VCC)*%
X197876000Y-61971000D03*
%TD*%
D17*
%TO.P,D1,1,K*%
%TO.N,Net-(BT1--)*%
X160020000Y-111760000D03*
D18*
%TO.P,D1,2,A*%
%TO.N,Net-(D1-A)*%
X162560000Y-111760000D03*
%TD*%
D10*
%TO.P,R1,1*%
%TO.N,Net-(D1-A)*%
X165100000Y-104140000D03*
D11*
%TO.P,R1,2*%
%TO.N,Net-(R1-Pad2)*%
X165100000Y-93980000D03*
%TD*%
D14*
%TO.P,BT1,1,+*%
%TO.N,Net-(BT1-+)*%
X199390000Y-130810000D03*
D19*
%TO.P,BT1,2,-*%
%TO.N,Net-(BT1--)*%
X199390000Y-128270000D03*
%TD*%
D17*
%TO.P,D2,1,K*%
%TO.N,Net-(BT1--)*%
X167640000Y-111760000D03*
D18*
%TO.P,D2,2,A*%
%TO.N,Net-(D2-A)*%
X170180000Y-111760000D03*
%TD*%
D14*
%TO.P,J1,1,Pin_1*%
%TO.N,Net-(J1-Pin_1)*%
X199390000Y-114300000D03*
%TD*%
D15*
%TO.P,U1,1*%
%TO.N,Net-(R12-Pad1)*%
X110236000Y-61976000D03*
D16*
%TO.P,U1,2*%
%TO.N,Net-(R8-Pad1)*%
X110236000Y-64516000D03*
%TO.P,U1,3*%
%TO.N,Net-(U1-Pad3)*%
X110236000Y-67056000D03*
%TO.P,U1,4*%
X110236000Y-69596000D03*
%TO.P,U1,5*%
%TO.N,Net-(J1-Pin_1)*%
X110236000Y-72136000D03*
%TO.P,U1,6*%
%TO.N,Net-(R1-Pad2)*%
X110236000Y-74676000D03*
%TO.P,U1,7,GND*%
%TO.N,Net-(BT1--)*%
X110236000Y-77216000D03*
%TO.P,U1,8*%
%TO.N,Net-(R2-Pad2)*%
X117856000Y-77216000D03*
%TO.P,U1,9*%
%TO.N,Net-(U1-Pad11)*%
X117856000Y-74676000D03*
%TO.P,U1,10*%
%TO.N,Net-(U1-Pad10)*%
X117856000Y-72136000D03*
%TO.P,U1,11*%
%TO.N,Net-(U1-Pad11)*%
X117856000Y-69596000D03*
%TO.P,U1,12*%
%TO.N,Net-(R11-Pad1)*%
X117856000Y-67056000D03*
%TO.P,U1,13*%
%TO.N,Net-(R7-Pad1)*%
X117856000Y-64516000D03*
%TO.P,U1,14,VCC*%
%TO.N,Net-(U1E-VCC)*%
X117856000Y-61976000D03*
%TD*%
D17*
%TO.P,D4,1,K*%
%TO.N,Net-(BT1--)*%
X182880000Y-111760000D03*
D18*
%TO.P,D4,2,A*%
%TO.N,Net-(D4-A)*%
X185420000Y-111760000D03*
%TD*%
D15*
%TO.P,U2,1*%
%TO.N,Net-(J1-Pin_1)*%
X130556000Y-61976000D03*
D16*
%TO.P,U2,2*%
%TO.N,Net-(U1-Pad3)*%
X130556000Y-64516000D03*
%TO.P,U2,3*%
%TO.N,Net-(U2-Pad3)*%
X130556000Y-67056000D03*
%TO.P,U2,4*%
%TO.N,Net-(R12-Pad1)*%
X130556000Y-69596000D03*
%TO.P,U2,5*%
%TO.N,Net-(R5-Pad1)*%
X130556000Y-72136000D03*
%TO.P,U2,6*%
%TO.N,Net-(U2-Pad6)*%
X130556000Y-74676000D03*
%TO.P,U2,7,GND*%
%TO.N,Net-(BT1--)*%
X130556000Y-77216000D03*
%TO.P,U2,8*%
%TO.N,Net-(U2-Pad8)*%
X138176000Y-77216000D03*
%TO.P,U2,9*%
%TO.N,Net-(R11-Pad1)*%
X138176000Y-74676000D03*
%TO.P,U2,10*%
%TO.N,Net-(R7-Pad1)*%
X138176000Y-72136000D03*
%TO.P,U2,11*%
%TO.N,Net-(U2-Pad11)*%
X138176000Y-69596000D03*
%TO.P,U2,12*%
%TO.N,Net-(U1-Pad10)*%
X138176000Y-67056000D03*
%TO.P,U2,13*%
%TO.N,Net-(U1-Pad11)*%
X138176000Y-64516000D03*
%TO.P,U2,14,VCC*%
%TO.N,Net-(U1E-VCC)*%
X138176000Y-61976000D03*
%TD*%
D15*
%TO.P,U3,1*%
%TO.N,Net-(U2-Pad6)*%
X149616000Y-61971000D03*
D16*
%TO.P,U3,2*%
%TO.N,Net-(U2-Pad3)*%
X149616000Y-64511000D03*
%TO.P,U3,3*%
%TO.N,Net-(U1-Pad10)*%
X149616000Y-67051000D03*
%TO.P,U3,4*%
%TO.N,Net-(U2-Pad8)*%
X149616000Y-69591000D03*
%TO.P,U3,5*%
%TO.N,Net-(U2-Pad11)*%
X149616000Y-72131000D03*
%TO.P,U3,6*%
%TO.N,Net-(U3-Pad6)*%
X149616000Y-74671000D03*
%TO.P,U3,7,GND*%
%TO.N,Net-(BT1--)*%
X149616000Y-77211000D03*
%TO.P,U3,8*%
%TO.N,Net-(U3-Pad8)*%
X157236000Y-77211000D03*
%TO.P,U3,9*%
%TO.N,Net-(U3-Pad9)*%
X157236000Y-74671000D03*
%TO.P,U3,10*%
%TO.N,Net-(U3-Pad10)*%
X157236000Y-72131000D03*
%TO.P,U3,11*%
%TO.N,Net-(J2-Pin_1)*%
X157236000Y-69591000D03*
%TO.P,U3,12*%
%TO.N,Net-(U3-Pad12)*%
X157236000Y-67051000D03*
%TO.P,U3,13*%
%TO.N,Net-(U3-Pad13)*%
X157236000Y-64511000D03*
%TO.P,U3,14,VCC*%
%TO.N,Net-(U1E-VCC)*%
X157236000Y-61971000D03*
%TD*%
D10*
%TO.P,R4,1*%
%TO.N,Net-(D4-A)*%
X180340000Y-104140000D03*
D11*
%TO.P,R4,2*%
%TO.N,Net-(R4-Pad2)*%
X180340000Y-93980000D03*
%TD*%
D17*
%TO.P,D3,1,K*%
%TO.N,Net-(BT1--)*%
X175380000Y-111760000D03*
D18*
%TO.P,D3,2,A*%
%TO.N,Net-(D3-A)*%
X177920000Y-111760000D03*
%TD*%
D10*
%TO.P,R2,1*%
%TO.N,Net-(D2-A)*%
X170180000Y-104140000D03*
D11*
%TO.P,R2,2*%
%TO.N,Net-(R2-Pad2)*%
X170180000Y-93980000D03*
%TD*%
D20*
%TO.N,Net-(R5-Pad1)*%
X124460000Y-101600000D03*
X124460000Y-69850000D03*
%TO.N,Net-(U1E-VCC)*%
X156210000Y-135890000D03*
%TO.N,Net-(BT1--)*%
X189230000Y-128270000D03*
%TO.N,Net-(U1E-VCC)*%
X191770000Y-125730000D03*
%TO.N,Net-(BT1--)*%
X190500000Y-85090000D03*
X190500000Y-91440000D03*
%TO.N,Net-(R5-Pad1)*%
X172720000Y-101600000D03*
X172720000Y-86360000D03*
X153416000Y-101346000D03*
%TO.N,Net-(J1-Pin_1)*%
X113030000Y-62230000D03*
X113030000Y-71120000D03*
X128270000Y-85090000D03*
X148590000Y-97790000D03*
X128270000Y-61976000D03*
X160020000Y-106680000D03*
X199390000Y-106680000D03*
X160020000Y-97790000D03*
X148590000Y-85090000D03*
%TO.N,Net-(J2-Pin_1)*%
X157480000Y-87630000D03*
X154940000Y-87630000D03*
X157480000Y-104140000D03*
%TO.N,Net-(BT1--)*%
X182880000Y-116840000D03*
X187960000Y-116840000D03*
%TO.N,Net-(U1E-VCC)*%
X191770000Y-130810000D03*
%TO.N,Net-(BT1-+)*%
X186690000Y-134620000D03*
X199390000Y-134620000D03*
%TO.N,Net-(R9-Pad1)*%
X171450000Y-74930000D03*
X160020000Y-86360000D03*
X168910000Y-83820000D03*
X160020000Y-96520000D03*
X168910000Y-86360000D03*
X171450000Y-83820000D03*
%TO.N,Net-(R1-Pad2)*%
X114300000Y-95250000D03*
%TO.N,Net-(R3-Pad2)*%
X187960000Y-90170000D03*
X187960000Y-67310000D03*
%TO.N,Net-(U1E-VCC)*%
X156210000Y-115570000D03*
%TO.N,Net-(R6-Pad1)*%
X162306000Y-100076000D03*
X149606000Y-100076000D03*
%TO.N,Net-(R7-Pad1)*%
X153416000Y-98806000D03*
X144526000Y-98806000D03*
%TO.N,Net-(R8-Pad1)*%
X140716000Y-97536000D03*
X144526000Y-97536000D03*
%TO.N,Net-(R10-Pad1)*%
X125476000Y-102616000D03*
X131826000Y-102616000D03*
%TO.N,Net-(U1E-VCC)*%
X117856000Y-56896000D03*
%TO.N,Net-(R7-Pad1)*%
X134366000Y-72136000D03*
X134366000Y-63246000D03*
%TO.N,Net-(BT1--)*%
X110236000Y-81026000D03*
%TO.N,Net-(R4-Pad2)*%
X200406000Y-69596000D03*
%TO.N,Net-(R9-Pad1)*%
X135636000Y-96266000D03*
%TO.N,Net-(U2-Pad6)*%
X134366000Y-74676000D03*
%TO.N,Net-(U4-Pad5)*%
X186436000Y-64516000D03*
%TO.N,Net-(J2-Pin_1)*%
X154686000Y-69596000D03*
%TO.N,Net-(R12-Pad1)*%
X107732000Y-86070000D03*
%TO.N,Net-(U1E-VCC)*%
X162306000Y-56896000D03*
%TO.N,Net-(BT1--)*%
X130556000Y-81026000D03*
%TO.N,Net-(U4-Pad13)*%
X181356000Y-64516000D03*
X181356000Y-59436000D03*
%TO.N,Net-(U1E-VCC)*%
X157226000Y-83566000D03*
%TO.N,Net-(U2-Pad8)*%
X143256000Y-77216000D03*
%TO.N,Net-(U1-Pad11)*%
X135636000Y-59436000D03*
X135636000Y-64516000D03*
X121666000Y-59436000D03*
X121666000Y-74676000D03*
X121666000Y-69596000D03*
%TO.N,Net-(U2-Pad6)*%
X144526000Y-73406000D03*
X134366000Y-73406000D03*
X144526000Y-61976000D03*
%TO.N,Net-(U2-Pad8)*%
X147066000Y-68326000D03*
X143256000Y-68326000D03*
X147066000Y-69596000D03*
%TO.N,Net-(U1E-VCC)*%
X162306000Y-83566000D03*
%TO.N,Net-(U3-Pad8)*%
X164846000Y-77216000D03*
%TO.N,Net-(U1E-VCC)*%
X197876000Y-58166000D03*
X138176000Y-56896000D03*
%TO.N,Net-(U3-Pad8)*%
X172466000Y-67056000D03*
%TO.N,Net-(U1E-VCC)*%
X176276000Y-56896000D03*
%TO.N,Net-(R12-Pad1)*%
X107696000Y-68326000D03*
X107696000Y-61976000D03*
%TO.N,Net-(R6-Pad1)*%
X182626000Y-70866000D03*
X166116000Y-55626000D03*
%TO.N,Net-(U4-Pad5)*%
X186436000Y-74671000D03*
%TO.N,Net-(R6-Pad1)*%
X185166000Y-70866000D03*
X185166000Y-72136000D03*
X182626000Y-55626000D03*
X166116000Y-64516000D03*
%TO.N,Net-(R10-Pad1)*%
X185166000Y-58166000D03*
X185166000Y-69596000D03*
%TO.N,Net-(R11-Pad1)*%
X120396000Y-93726000D03*
X120396000Y-67056000D03*
%TO.N,Net-(U4-Pad5)*%
X172466000Y-72136000D03*
%TO.N,Net-(R10-Pad1)*%
X168656000Y-58166000D03*
%TO.N,Net-(U4-Pad5)*%
X185166000Y-83566000D03*
%TO.N,Net-(R5-Pad1)*%
X186436000Y-82296000D03*
X186436000Y-86106000D03*
%TO.N,Net-(U3-Pad6)*%
X163576000Y-69596000D03*
%TO.N,Net-(U4-Pad13)*%
X201676000Y-59436000D03*
%TO.N,Net-(U3-Pad6)*%
X163576000Y-73406000D03*
%TO.N,Net-(R5-Pad1)*%
X194056000Y-72136000D03*
X194056000Y-82296000D03*
X183896000Y-72136000D03*
%TO.N,Net-(R8-Pad1)*%
X144200000Y-90242000D03*
%TO.N,Net-(U1E-VCC)*%
X157226000Y-56896000D03*
%TO.N,Net-(U1-Pad10)*%
X122936000Y-73406000D03*
X133096000Y-67056000D03*
X122936000Y-72136000D03*
X133096000Y-73406000D03*
%TO.N,Net-(U3-Pad8)*%
X172466000Y-59436000D03*
%TO.N,Net-(R5-Pad1)*%
X183896000Y-82296000D03*
%TO.N,Net-(U4-Pad5)*%
X185166000Y-74676000D03*
%TO.N,Net-(R10-Pad1)*%
X125476000Y-54356000D03*
X168656000Y-54356000D03*
%TO.N,Net-(U1E-VCC)*%
X186436000Y-56896000D03*
X186436000Y-58166000D03*
%TO.N,Net-(U2-Pad3)*%
X147066000Y-65786000D03*
%TO.N,Net-(U3-Pad6)*%
X183896000Y-68326000D03*
X183896000Y-61976000D03*
%TO.N,Net-(U3-Pad12)*%
X176276000Y-82296000D03*
X161036000Y-67056000D03*
%TO.N,Net-(U3-Pad8)*%
X164846000Y-59436000D03*
%TO.N,Net-(R2-Pad2)*%
X117856000Y-91186000D03*
%TO.N,Net-(R9-Pad1)*%
X178816000Y-74676000D03*
%TO.N,Net-(R7-Pad1)*%
X141986000Y-88646000D03*
X152146000Y-88646000D03*
X141986000Y-72136000D03*
%TO.N,Net-(U2-Pad3)*%
X147066000Y-64516000D03*
%TO.N,Net-(U3-Pad13)*%
X171196000Y-63246000D03*
X171196000Y-69596000D03*
%TO.N,Net-(U4-Pad5)*%
X172466000Y-83566000D03*
%TO.N,Net-(U3-Pad12)*%
X161036000Y-82296000D03*
%TO.N,Net-(U4-Pad13)*%
X201676000Y-77216000D03*
X201676000Y-64516000D03*
%TO.N,Net-(U3-Pad9)*%
X163576000Y-67056000D03*
%TO.N,Net-(R3-Pad2)*%
X192786000Y-67056000D03*
%TO.N,Net-(U3-Pad8)*%
X195326000Y-63246000D03*
%TO.N,Net-(U3-Pad10)*%
X166116000Y-72136000D03*
%TO.N,Net-(R6-Pad1)*%
X162306000Y-88646000D03*
%TO.N,Net-(U3-Pad8)*%
X195326000Y-67056000D03*
%TO.N,Net-(U2-Pad11)*%
X145796000Y-72136000D03*
%TO.N,Net-(R8-Pad1)*%
X115316000Y-64516000D03*
X115316000Y-70866000D03*
%TO.N,Net-(U2-Pad11)*%
X145796000Y-69596000D03*
%TO.N,Net-(U3-Pad8)*%
X180086000Y-63246000D03*
%TO.N,Net-(R1-Pad2)*%
X114046000Y-74676000D03*
%TO.N,Net-(R11-Pad1)*%
X140716000Y-93726000D03*
X140716000Y-74676000D03*
%TO.N,Net-(BT1--)*%
X168656000Y-81026000D03*
%TO.N,Net-(R9-Pad1)*%
X178816000Y-73406000D03*
%TO.N,Net-(BT1--)*%
X149606000Y-81026000D03*
%TO.N,Net-(R12-Pad1)*%
X108930000Y-86070000D03*
%TO.N,Net-(U3-Pad10)*%
X166116000Y-74676000D03*
%TO.N,Net-(R8-Pad1)*%
X126746000Y-72136000D03*
X126746000Y-89916000D03*
%TO.N,Net-(U1-Pad3)*%
X114046000Y-67056000D03*
X114046000Y-65786000D03*
%TO.N,Net-(U3-Pad8)*%
X180086000Y-67056000D03*
%TO.N,Net-(R6-Pad1)*%
X181356000Y-88646000D03*
%TO.N,Net-(BT1--)*%
X190246000Y-81026000D03*
%TO.N,Net-(U3-Pad9)*%
X159766000Y-65786000D03*
%TO.N,Net-(R9-Pad1)*%
X195326000Y-73406000D03*
X195326000Y-74676000D03*
%TO.N,Net-(R6-Pad1)*%
X181356000Y-70866000D03*
%TO.N,Net-(U3-Pad9)*%
X159766000Y-74676000D03*
X163576000Y-65786000D03*
%TD*%
D21*
%TO.N,Net-(R5-Pad1)*%
X128270000Y-69850000D02*
X124460000Y-69850000D01*
X130556000Y-72136000D02*
X128270000Y-69850000D01*
X153162000Y-101600000D02*
X153416000Y-101346000D01*
X124460000Y-101600000D02*
X153162000Y-101600000D01*
%TO.N,Net-(R8-Pad1)*%
X115316000Y-70866000D02*
X127000000Y-70866000D01*
X126746000Y-72136000D02*
X127000000Y-71882000D01*
X127000000Y-71882000D02*
X127000000Y-70866000D01*
%TO.N,Net-(U1E-VCC)*%
X156210000Y-115570000D02*
X156210000Y-135890000D01*
%TO.N,Net-(BT1--)*%
X199390000Y-128270000D02*
X189230000Y-128270000D01*
X110236000Y-81026000D02*
X177546000Y-81026000D01*
X190500000Y-91440000D02*
X190500000Y-85090000D01*
%TO.N,Net-(R5-Pad1)*%
X186436000Y-86106000D02*
X172974000Y-86106000D01*
X172974000Y-86106000D02*
X172720000Y-86360000D01*
X153670000Y-101600000D02*
X153416000Y-101346000D01*
X172720000Y-101600000D02*
X153670000Y-101600000D01*
%TO.N,Net-(J1-Pin_1)*%
X110236000Y-72136000D02*
X112014000Y-72136000D01*
X112014000Y-72136000D02*
X113030000Y-71120000D01*
X113030000Y-62230000D02*
X114026000Y-63226000D01*
X114026000Y-63226000D02*
X127020000Y-63226000D01*
X127020000Y-63226000D02*
X128270000Y-61976000D01*
X160020000Y-97790000D02*
X148590000Y-97790000D01*
X148590000Y-85090000D02*
X128270000Y-85090000D01*
X130556000Y-61976000D02*
X128270000Y-61976000D01*
X199390000Y-106680000D02*
X160020000Y-106680000D01*
%TO.N,Net-(J2-Pin_1)*%
X157480000Y-120650000D02*
X157480000Y-104140000D01*
X199390000Y-120650000D02*
X157480000Y-120650000D01*
X157480000Y-87630000D02*
X154940000Y-87630000D01*
%TO.N,Net-(BT1--)*%
X187960000Y-116840000D02*
X182880000Y-116840000D01*
%TO.N,Net-(BT1-+)*%
X199390000Y-134620000D02*
X186690000Y-134620000D01*
%TO.N,Net-(R9-Pad1)*%
X135636000Y-96266000D02*
X159766000Y-96266000D01*
X159766000Y-96266000D02*
X160020000Y-96520000D01*
X168910000Y-83820000D02*
X171450000Y-83820000D01*
X160020000Y-86360000D02*
X168910000Y-86360000D01*
X171450000Y-74930000D02*
X176022000Y-74930000D01*
X176022000Y-74930000D02*
X176276000Y-74676000D01*
%TO.N,Net-(R1-Pad2)*%
X163830000Y-95250000D02*
X114300000Y-95250000D01*
X165100000Y-93980000D02*
X163830000Y-95250000D01*
%TO.N,Net-(R2-Pad2)*%
X170180000Y-93980000D02*
X167640000Y-91440000D01*
X118110000Y-91440000D02*
X117856000Y-91186000D01*
X167640000Y-91440000D02*
X118110000Y-91440000D01*
%TO.N,Net-(R3-Pad2)*%
X175260000Y-93980000D02*
X179070000Y-90170000D01*
X179070000Y-90170000D02*
X187960000Y-90170000D01*
X189997000Y-67310000D02*
X190256000Y-67051000D01*
X187960000Y-67310000D02*
X189997000Y-67310000D01*
%TO.N,Net-(R6-Pad1)*%
X149606000Y-100076000D02*
X162306000Y-100076000D01*
%TO.N,Net-(R7-Pad1)*%
X144526000Y-98806000D02*
X153416000Y-98806000D01*
%TO.N,Net-(R8-Pad1)*%
X140716000Y-97536000D02*
X144526000Y-97536000D01*
%TO.N,Net-(R10-Pad1)*%
X131826000Y-102616000D02*
X125476000Y-102616000D01*
%TO.N,Net-(R11-Pad1)*%
X120396000Y-93726000D02*
X140716000Y-93726000D01*
%TO.N,Net-(R10-Pad1)*%
X168656000Y-58166000D02*
X185166000Y-58166000D01*
X185171000Y-69591000D02*
X190256000Y-69591000D01*
X185166000Y-69596000D02*
X185171000Y-69591000D01*
%TO.N,Net-(U4-Pad5)*%
X186436000Y-64516000D02*
X190251000Y-64516000D01*
X168656000Y-72136000D02*
X172466000Y-72136000D01*
X190251000Y-64516000D02*
X190256000Y-64511000D01*
X172466000Y-83566000D02*
X185166000Y-83566000D01*
%TO.N,Net-(U3-Pad10)*%
X166111000Y-72131000D02*
X166116000Y-72136000D01*
X166116000Y-74676000D02*
X168656000Y-74676000D01*
X157236000Y-72131000D02*
X166111000Y-72131000D01*
%TO.N,Net-(U3-Pad12)*%
X161036000Y-82296000D02*
X176276000Y-82296000D01*
X161031000Y-67051000D02*
X161036000Y-67056000D01*
X157236000Y-67051000D02*
X161031000Y-67051000D01*
%TO.N,Net-(U3-Pad13)*%
X157236000Y-64511000D02*
X158501000Y-63246000D01*
%TO.N,Net-(U3-Pad8)*%
X172466000Y-67056000D02*
X176276000Y-67056000D01*
%TO.N,Net-(U3-Pad13)*%
X171196000Y-69596000D02*
X176276000Y-69596000D01*
X158501000Y-63246000D02*
X171196000Y-63246000D01*
%TO.N,Net-(U3-Pad8)*%
X164846000Y-59436000D02*
X172466000Y-59436000D01*
%TO.N,Net-(R5-Pad1)*%
X194056000Y-72136000D02*
X197871000Y-72136000D01*
X176276000Y-72136000D02*
X183896000Y-72136000D01*
X197871000Y-72136000D02*
X197876000Y-72131000D01*
%TO.N,Net-(U1E-VCC)*%
X138176000Y-56896000D02*
X162306000Y-56896000D01*
X157226000Y-83566000D02*
X162306000Y-83566000D01*
%TO.N,Net-(U3-Pad8)*%
X164841000Y-77211000D02*
X164846000Y-77216000D01*
X157236000Y-77211000D02*
X164841000Y-77211000D01*
%TO.N,Net-(R9-Pad1)*%
X195326000Y-74676000D02*
X197871000Y-74676000D01*
X197871000Y-74676000D02*
X197876000Y-74671000D01*
%TO.N,Net-(R12-Pad1)*%
X108930000Y-86070000D02*
X107732000Y-86070000D01*
%TO.N,Net-(R11-Pad1)*%
X140716000Y-74676000D02*
X138176000Y-74676000D01*
%TO.N,Net-(R3-Pad2)*%
X192786000Y-67056000D02*
X190261000Y-67056000D01*
X190261000Y-67056000D02*
X190256000Y-67051000D01*
%TO.N,Net-(R4-Pad2)*%
X200406000Y-69596000D02*
X197881000Y-69596000D01*
X197881000Y-69596000D02*
X197876000Y-69591000D01*
%TO.N,Net-(U2-Pad11)*%
X145796000Y-72136000D02*
X149611000Y-72136000D01*
X149611000Y-72136000D02*
X149616000Y-72131000D01*
%TO.N,Net-(U3-Pad6)*%
X163576000Y-69596000D02*
X168656000Y-69596000D01*
%TO.N,Net-(U2-Pad8)*%
X138176000Y-77216000D02*
X143256000Y-77216000D01*
X143256000Y-68326000D02*
X147066000Y-68326000D01*
X149611000Y-69596000D02*
X149616000Y-69591000D01*
X147066000Y-69596000D02*
X149611000Y-69596000D01*
%TO.N,Net-(J2-Pin_1)*%
X157231000Y-69596000D02*
X157236000Y-69591000D01*
%TO.N,Net-(U3-Pad6)*%
X149616000Y-74671000D02*
X150881000Y-73406000D01*
%TO.N,Net-(J2-Pin_1)*%
X154686000Y-69596000D02*
X157231000Y-69596000D01*
%TO.N,Net-(U2-Pad6)*%
X130556000Y-74676000D02*
X134366000Y-74676000D01*
X144531000Y-61971000D02*
X149616000Y-61971000D01*
X144526000Y-61976000D02*
X144531000Y-61971000D01*
X134366000Y-73406000D02*
X144526000Y-73406000D01*
%TO.N,Net-(U3-Pad6)*%
X150881000Y-73406000D02*
X163576000Y-73406000D01*
%TO.N,Net-(U2-Pad11)*%
X138176000Y-69596000D02*
X145796000Y-69596000D01*
%TO.N,Net-(R8-Pad1)*%
X143874000Y-89916000D02*
X144200000Y-90242000D01*
X126746000Y-89916000D02*
X143874000Y-89916000D01*
%TO.N,Net-(U3-Pad6)*%
X183901000Y-61971000D02*
X190256000Y-61971000D01*
%TO.N,Net-(R7-Pad1)*%
X138176000Y-72136000D02*
X141986000Y-72136000D01*
%TO.N,Net-(U3-Pad6)*%
X183896000Y-61976000D02*
X183901000Y-61971000D01*
X168656000Y-69596000D02*
X169926000Y-68326000D01*
X169926000Y-68326000D02*
X183896000Y-68326000D01*
%TO.N,Net-(R7-Pad1)*%
X141986000Y-88646000D02*
X152146000Y-88646000D01*
%TO.N,Net-(R11-Pad1)*%
X117856000Y-67056000D02*
X120396000Y-67056000D01*
%TO.N,Net-(U1-Pad10)*%
X138176000Y-67056000D02*
X149611000Y-67056000D01*
X149611000Y-67056000D02*
X149616000Y-67051000D01*
%TO.N,Net-(R12-Pad1)*%
X107696000Y-86106000D02*
X107732000Y-86070000D01*
%TO.N,Net-(U1-Pad11)*%
X121666000Y-69596000D02*
X117856000Y-69596000D01*
X117856000Y-74676000D02*
X121666000Y-74676000D01*
X135636000Y-64516000D02*
X138176000Y-64516000D01*
X121666000Y-59436000D02*
X135636000Y-59436000D01*
%TO.N,Net-(U1-Pad10)*%
X133096000Y-73406000D02*
X122936000Y-73406000D01*
X122936000Y-72136000D02*
X117856000Y-72136000D01*
X138176000Y-67056000D02*
X133096000Y-67056000D01*
%TO.N,Net-(U2-Pad3)*%
X130556000Y-67056000D02*
X131826000Y-65786000D01*
X147066000Y-64516000D02*
X149611000Y-64516000D01*
X131826000Y-65786000D02*
X147066000Y-65786000D01*
X149611000Y-64516000D02*
X149616000Y-64511000D01*
%TO.N,Net-(R12-Pad1)*%
X107696000Y-61976000D02*
X110236000Y-61976000D01*
X129286000Y-68326000D02*
X107696000Y-68326000D01*
X130556000Y-69596000D02*
X129286000Y-68326000D01*
%TO.N,Net-(BT1--)*%
X175380000Y-111760000D02*
X174030000Y-113110000D01*
X174030000Y-113110000D02*
X168990000Y-113110000D01*
X168990000Y-113110000D02*
X167640000Y-111760000D01*
%TO.N,Net-(R1-Pad2)*%
X110236000Y-74676000D02*
X114046000Y-74676000D01*
%TO.N,Net-(BT1--)*%
X176730000Y-113110000D02*
X175380000Y-111760000D01*
X161370000Y-113110000D02*
X160020000Y-111760000D01*
X182880000Y-111760000D02*
X181530000Y-113110000D01*
X167640000Y-111760000D02*
X166290000Y-113110000D01*
X181530000Y-113110000D02*
X176730000Y-113110000D01*
X166290000Y-113110000D02*
X161370000Y-113110000D01*
%TO.N,Net-(R7-Pad1)*%
X126746000Y-64516000D02*
X128016000Y-63246000D01*
X134366000Y-72136000D02*
X138176000Y-72136000D01*
X128016000Y-63246000D02*
X134366000Y-63246000D01*
X117856000Y-64516000D02*
X126746000Y-64516000D01*
%TO.N,Net-(U1-Pad3)*%
X114046000Y-67056000D02*
X110236000Y-67056000D01*
X126746000Y-65786000D02*
X114046000Y-65786000D01*
X128016000Y-64516000D02*
X126746000Y-65786000D01*
X130556000Y-64516000D02*
X128016000Y-64516000D01*
%TO.N,Net-(R8-Pad1)*%
X110236000Y-64516000D02*
X115316000Y-64516000D01*
D22*
%TO.N,Net-(U1E-VCC)*%
X197866000Y-61961000D02*
X197876000Y-61971000D01*
D21*
X117856000Y-56896000D02*
X138176000Y-56896000D01*
X197876000Y-58166000D02*
X186436000Y-58166000D01*
X162306000Y-56896000D02*
X186436000Y-56896000D01*
%TO.N,Net-(BT1--)*%
X177546000Y-81026000D02*
X190246000Y-81026000D01*
%TO.N,Net-(R6-Pad1)*%
X181356000Y-70866000D02*
X182626000Y-70866000D01*
X162306000Y-88646000D02*
X181356000Y-88646000D01*
%TO.N,Net-(R10-Pad1)*%
X125476000Y-54356000D02*
X168656000Y-54356000D01*
%TO.N,Net-(U4-Pad5)*%
X185166000Y-74676000D02*
X185171000Y-74671000D01*
X185171000Y-74671000D02*
X190256000Y-74671000D01*
%TO.N,Net-(R6-Pad1)*%
X185171000Y-72131000D02*
X185166000Y-72136000D01*
X166116000Y-64516000D02*
X168656000Y-64516000D01*
X185166000Y-70866000D02*
X182626000Y-70866000D01*
X182626000Y-55626000D02*
X166116000Y-55626000D01*
X190256000Y-72131000D02*
X185171000Y-72131000D01*
%TO.N,Net-(R9-Pad1)*%
X178816000Y-73406000D02*
X195326000Y-73406000D01*
X176276000Y-74676000D02*
X178816000Y-74676000D01*
%TO.N,Net-(U3-Pad9)*%
X163576000Y-65786000D02*
X159766000Y-65786000D01*
X159766000Y-74676000D02*
X157241000Y-74676000D01*
X157241000Y-74676000D02*
X157236000Y-74671000D01*
X168656000Y-67056000D02*
X163576000Y-67056000D01*
%TO.N,Net-(R5-Pad1)*%
X183896000Y-82296000D02*
X186436000Y-82296000D01*
X186436000Y-82296000D02*
X194056000Y-82296000D01*
%TO.N,Net-(U4-Pad13)*%
X197881000Y-77216000D02*
X197876000Y-77211000D01*
X197876000Y-64511000D02*
X201671000Y-64511000D01*
X201676000Y-77216000D02*
X197881000Y-77216000D01*
X201671000Y-64511000D02*
X201676000Y-64516000D01*
X201676000Y-59436000D02*
X181356000Y-59436000D01*
X181356000Y-64516000D02*
X176276000Y-64516000D01*
%TO.N,Net-(U3-Pad8)*%
X197876000Y-67051000D02*
X195331000Y-67051000D01*
X195326000Y-63246000D02*
X180086000Y-63246000D01*
X180086000Y-67056000D02*
X176276000Y-67056000D01*
X195331000Y-67051000D02*
X195326000Y-67056000D01*
%TD*%
M02*
