%TF.GenerationSoftware,KiCad,Pcbnew,7.0.9*%
%TF.CreationDate,2023-12-29T15:51:12+11:00*%
%TF.ProjectId,cpu,6370752e-6b69-4636-9164-5f7063625858,rev?*%
%TF.SameCoordinates,Original*%
%TF.FileFunction,Copper,L1,Top*%
%TF.FilePolarity,Positive*%
%FSLAX46Y46*%
G04 Gerber Fmt 4.6, Leading zero omitted, Abs format (unit mm)*
G04 Created by KiCad (PCBNEW 7.0.9) date 2023-12-29 15:51:12*
%MOMM*%
%LPD*%
G01*
G04 APERTURE LIST*
%ADD10C,0.300000*%
%TA.AperFunction,NonConductor*%
%ADD11C,0.300000*%
%TD*%
%TA.AperFunction,ComponentPad*%
%ADD12C,1.600000*%
%TD*%
%TA.AperFunction,ComponentPad*%
%ADD13O,1.600000X1.600000*%
%TD*%
%TA.AperFunction,ComponentPad*%
%ADD14C,2.000000*%
%TD*%
%TA.AperFunction,ComponentPad*%
%ADD15R,1.800000X1.800000*%
%TD*%
%TA.AperFunction,ComponentPad*%
%ADD16C,1.800000*%
%TD*%
%TA.AperFunction,ComponentPad*%
%ADD17R,2.400000X1.600000*%
%TD*%
%TA.AperFunction,ComponentPad*%
%ADD18O,2.400000X1.600000*%
%TD*%
%TA.AperFunction,ComponentPad*%
%ADD19R,1.700000X1.700000*%
%TD*%
%TA.AperFunction,ComponentPad*%
%ADD20O,1.700000X1.700000*%
%TD*%
%TA.AperFunction,ComponentPad*%
%ADD21R,1.300000X1.300000*%
%TD*%
%TA.AperFunction,ComponentPad*%
%ADD22C,1.300000*%
%TD*%
%TA.AperFunction,ViaPad*%
%ADD23C,0.800000*%
%TD*%
%TA.AperFunction,Conductor*%
%ADD24C,0.250000*%
%TD*%
G04 APERTURE END LIST*
D10*
D11*
X90724510Y-149660828D02*
X90724510Y-148160828D01*
X91438796Y-148660828D02*
X91438796Y-149660828D01*
X91438796Y-148803685D02*
X91510225Y-148732257D01*
X91510225Y-148732257D02*
X91653082Y-148660828D01*
X91653082Y-148660828D02*
X91867368Y-148660828D01*
X91867368Y-148660828D02*
X92010225Y-148732257D01*
X92010225Y-148732257D02*
X92081654Y-148875114D01*
X92081654Y-148875114D02*
X92081654Y-149660828D01*
X92795939Y-148660828D02*
X92795939Y-150160828D01*
X92795939Y-148732257D02*
X92938797Y-148660828D01*
X92938797Y-148660828D02*
X93224511Y-148660828D01*
X93224511Y-148660828D02*
X93367368Y-148732257D01*
X93367368Y-148732257D02*
X93438797Y-148803685D01*
X93438797Y-148803685D02*
X93510225Y-148946542D01*
X93510225Y-148946542D02*
X93510225Y-149375114D01*
X93510225Y-149375114D02*
X93438797Y-149517971D01*
X93438797Y-149517971D02*
X93367368Y-149589400D01*
X93367368Y-149589400D02*
X93224511Y-149660828D01*
X93224511Y-149660828D02*
X92938797Y-149660828D01*
X92938797Y-149660828D02*
X92795939Y-149589400D01*
X94795940Y-148660828D02*
X94795940Y-149660828D01*
X94153082Y-148660828D02*
X94153082Y-149446542D01*
X94153082Y-149446542D02*
X94224511Y-149589400D01*
X94224511Y-149589400D02*
X94367368Y-149660828D01*
X94367368Y-149660828D02*
X94581654Y-149660828D01*
X94581654Y-149660828D02*
X94724511Y-149589400D01*
X94724511Y-149589400D02*
X94795940Y-149517971D01*
X95295940Y-148660828D02*
X95867368Y-148660828D01*
X95510225Y-148160828D02*
X95510225Y-149446542D01*
X95510225Y-149446542D02*
X95581654Y-149589400D01*
X95581654Y-149589400D02*
X95724511Y-149660828D01*
X95724511Y-149660828D02*
X95867368Y-149660828D01*
X97438797Y-149232257D02*
X98153083Y-149232257D01*
X97295940Y-149660828D02*
X97795940Y-148160828D01*
X97795940Y-148160828D02*
X98295940Y-149660828D01*
D10*
D11*
X121197368Y-151200828D02*
X121197368Y-152200828D01*
X120840225Y-150629400D02*
X120483082Y-151700828D01*
X120483082Y-151700828D02*
X121411653Y-151700828D01*
X123625938Y-151415114D02*
X123840224Y-151486542D01*
X123840224Y-151486542D02*
X123911653Y-151557971D01*
X123911653Y-151557971D02*
X123983081Y-151700828D01*
X123983081Y-151700828D02*
X123983081Y-151915114D01*
X123983081Y-151915114D02*
X123911653Y-152057971D01*
X123911653Y-152057971D02*
X123840224Y-152129400D01*
X123840224Y-152129400D02*
X123697367Y-152200828D01*
X123697367Y-152200828D02*
X123125938Y-152200828D01*
X123125938Y-152200828D02*
X123125938Y-150700828D01*
X123125938Y-150700828D02*
X123625938Y-150700828D01*
X123625938Y-150700828D02*
X123768796Y-150772257D01*
X123768796Y-150772257D02*
X123840224Y-150843685D01*
X123840224Y-150843685D02*
X123911653Y-150986542D01*
X123911653Y-150986542D02*
X123911653Y-151129400D01*
X123911653Y-151129400D02*
X123840224Y-151272257D01*
X123840224Y-151272257D02*
X123768796Y-151343685D01*
X123768796Y-151343685D02*
X123625938Y-151415114D01*
X123625938Y-151415114D02*
X123125938Y-151415114D01*
X124625938Y-152200828D02*
X124625938Y-151200828D01*
X124625938Y-150700828D02*
X124554510Y-150772257D01*
X124554510Y-150772257D02*
X124625938Y-150843685D01*
X124625938Y-150843685D02*
X124697367Y-150772257D01*
X124697367Y-150772257D02*
X124625938Y-150700828D01*
X124625938Y-150700828D02*
X124625938Y-150843685D01*
X125125939Y-151200828D02*
X125697367Y-151200828D01*
X125340224Y-150700828D02*
X125340224Y-151986542D01*
X125340224Y-151986542D02*
X125411653Y-152129400D01*
X125411653Y-152129400D02*
X125554510Y-152200828D01*
X125554510Y-152200828D02*
X125697367Y-152200828D01*
X127268796Y-151772257D02*
X127983082Y-151772257D01*
X127125939Y-152200828D02*
X127625939Y-150700828D01*
X127625939Y-150700828D02*
X128125939Y-152200828D01*
X129268796Y-152200828D02*
X129268796Y-150700828D01*
X129268796Y-152129400D02*
X129125938Y-152200828D01*
X129125938Y-152200828D02*
X128840224Y-152200828D01*
X128840224Y-152200828D02*
X128697367Y-152129400D01*
X128697367Y-152129400D02*
X128625938Y-152057971D01*
X128625938Y-152057971D02*
X128554510Y-151915114D01*
X128554510Y-151915114D02*
X128554510Y-151486542D01*
X128554510Y-151486542D02*
X128625938Y-151343685D01*
X128625938Y-151343685D02*
X128697367Y-151272257D01*
X128697367Y-151272257D02*
X128840224Y-151200828D01*
X128840224Y-151200828D02*
X129125938Y-151200828D01*
X129125938Y-151200828D02*
X129268796Y-151272257D01*
X130625939Y-152200828D02*
X130625939Y-150700828D01*
X130625939Y-152129400D02*
X130483081Y-152200828D01*
X130483081Y-152200828D02*
X130197367Y-152200828D01*
X130197367Y-152200828D02*
X130054510Y-152129400D01*
X130054510Y-152129400D02*
X129983081Y-152057971D01*
X129983081Y-152057971D02*
X129911653Y-151915114D01*
X129911653Y-151915114D02*
X129911653Y-151486542D01*
X129911653Y-151486542D02*
X129983081Y-151343685D01*
X129983081Y-151343685D02*
X130054510Y-151272257D01*
X130054510Y-151272257D02*
X130197367Y-151200828D01*
X130197367Y-151200828D02*
X130483081Y-151200828D01*
X130483081Y-151200828D02*
X130625939Y-151272257D01*
X131911653Y-152129400D02*
X131768796Y-152200828D01*
X131768796Y-152200828D02*
X131483082Y-152200828D01*
X131483082Y-152200828D02*
X131340224Y-152129400D01*
X131340224Y-152129400D02*
X131268796Y-151986542D01*
X131268796Y-151986542D02*
X131268796Y-151415114D01*
X131268796Y-151415114D02*
X131340224Y-151272257D01*
X131340224Y-151272257D02*
X131483082Y-151200828D01*
X131483082Y-151200828D02*
X131768796Y-151200828D01*
X131768796Y-151200828D02*
X131911653Y-151272257D01*
X131911653Y-151272257D02*
X131983082Y-151415114D01*
X131983082Y-151415114D02*
X131983082Y-151557971D01*
X131983082Y-151557971D02*
X131268796Y-151700828D01*
X132625938Y-152200828D02*
X132625938Y-151200828D01*
X132625938Y-151486542D02*
X132697367Y-151343685D01*
X132697367Y-151343685D02*
X132768796Y-151272257D01*
X132768796Y-151272257D02*
X132911653Y-151200828D01*
X132911653Y-151200828D02*
X133054510Y-151200828D01*
X134697366Y-151629400D02*
X135840224Y-151629400D01*
X138554509Y-152200828D02*
X138054509Y-151486542D01*
X137697366Y-152200828D02*
X137697366Y-150700828D01*
X137697366Y-150700828D02*
X138268795Y-150700828D01*
X138268795Y-150700828D02*
X138411652Y-150772257D01*
X138411652Y-150772257D02*
X138483081Y-150843685D01*
X138483081Y-150843685D02*
X138554509Y-150986542D01*
X138554509Y-150986542D02*
X138554509Y-151200828D01*
X138554509Y-151200828D02*
X138483081Y-151343685D01*
X138483081Y-151343685D02*
X138411652Y-151415114D01*
X138411652Y-151415114D02*
X138268795Y-151486542D01*
X138268795Y-151486542D02*
X137697366Y-151486542D01*
X140054509Y-152057971D02*
X139983081Y-152129400D01*
X139983081Y-152129400D02*
X139768795Y-152200828D01*
X139768795Y-152200828D02*
X139625938Y-152200828D01*
X139625938Y-152200828D02*
X139411652Y-152129400D01*
X139411652Y-152129400D02*
X139268795Y-151986542D01*
X139268795Y-151986542D02*
X139197366Y-151843685D01*
X139197366Y-151843685D02*
X139125938Y-151557971D01*
X139125938Y-151557971D02*
X139125938Y-151343685D01*
X139125938Y-151343685D02*
X139197366Y-151057971D01*
X139197366Y-151057971D02*
X139268795Y-150915114D01*
X139268795Y-150915114D02*
X139411652Y-150772257D01*
X139411652Y-150772257D02*
X139625938Y-150700828D01*
X139625938Y-150700828D02*
X139768795Y-150700828D01*
X139768795Y-150700828D02*
X139983081Y-150772257D01*
X139983081Y-150772257D02*
X140054509Y-150843685D01*
X140625938Y-151772257D02*
X141340224Y-151772257D01*
X140483081Y-152200828D02*
X140983081Y-150700828D01*
X140983081Y-150700828D02*
X141483081Y-152200828D01*
D12*
%TO.P,R3,1*%
%TO.N,Net-(D3-A)*%
X166624000Y-132334000D03*
D13*
%TO.P,R3,2*%
%TO.N,Net-(R3-Pad2)*%
X166624000Y-122174000D03*
%TD*%
D14*
%TO.P,SW8,2,B*%
%TO.N,Net-(SW8-B)*%
X144454000Y-143458000D03*
X144454000Y-136958000D03*
%TO.P,SW8,1,A*%
%TO.N,Net-(SW1-A)*%
X139954000Y-143458000D03*
X139954000Y-136958000D03*
%TD*%
%TO.P,SW7,2,B*%
%TO.N,Net-(SW7-B)*%
X135564000Y-143458000D03*
X135564000Y-136958000D03*
%TO.P,SW7,1,A*%
%TO.N,Net-(SW1-A)*%
X131064000Y-143458000D03*
X131064000Y-136958000D03*
%TD*%
%TO.P,SW6,1,A*%
%TO.N,Net-(SW1-A)*%
X122174000Y-136958000D03*
X122174000Y-143458000D03*
%TO.P,SW6,2,B*%
%TO.N,Net-(SW6-B)*%
X126674000Y-136958000D03*
X126674000Y-143458000D03*
%TD*%
%TO.P,SW5,2,B*%
%TO.N,Net-(SW5-B)*%
X117784000Y-143458000D03*
X117784000Y-136958000D03*
%TO.P,SW5,1,A*%
%TO.N,Net-(SW1-A)*%
X113284000Y-143458000D03*
X113284000Y-136958000D03*
%TD*%
%TO.P,SW4,1,A*%
%TO.N,Net-(SW1-A)*%
X104394000Y-136958000D03*
X104394000Y-143458000D03*
%TO.P,SW4,2,B*%
%TO.N,Net-(SW4-B)*%
X108894000Y-136958000D03*
X108894000Y-143458000D03*
%TD*%
%TO.P,SW3,1,A*%
%TO.N,Net-(SW1-A)*%
X95794000Y-136958000D03*
X95794000Y-143458000D03*
%TO.P,SW3,2,B*%
%TO.N,Net-(SW3-B)*%
X100294000Y-136958000D03*
X100294000Y-143458000D03*
%TD*%
%TO.P,SW2,1,A*%
%TO.N,Net-(SW1-A)*%
X86904000Y-136958000D03*
X86904000Y-143458000D03*
%TO.P,SW2,2,B*%
%TO.N,Net-(SW2-B)*%
X91404000Y-136958000D03*
X91404000Y-143458000D03*
%TD*%
%TO.P,SW1,1,A*%
%TO.N,Net-(SW1-A)*%
X78014000Y-136958000D03*
X78014000Y-143458000D03*
%TO.P,SW1,2,B*%
%TO.N,Net-(SW1-B)*%
X82514000Y-136958000D03*
X82514000Y-143458000D03*
%TD*%
D15*
%TO.P,D2,1,K*%
%TO.N,Net-(BT1--)*%
X159004000Y-139954000D03*
D16*
%TO.P,D2,2,A*%
%TO.N,Net-(D2-A)*%
X161544000Y-139954000D03*
%TD*%
D17*
%TO.P,U4,1*%
%TO.N,Net-(SW3-B)*%
X142240000Y-91440000D03*
D18*
%TO.P,U4,2*%
%TO.N,Net-(SW7-B)*%
X142240000Y-93980000D03*
%TO.P,U4,3*%
%TO.N,Net-(U3-Pad9)*%
X142240000Y-96520000D03*
%TO.P,U4,4*%
%TO.N,Net-(U3-Pad6)*%
X142240000Y-99060000D03*
%TO.P,U4,5*%
%TO.N,Net-(U4-Pad5)*%
X142240000Y-101600000D03*
%TO.P,U4,6*%
%TO.N,Net-(U3-Pad10)*%
X142240000Y-104140000D03*
%TO.P,U4,7,GND*%
%TO.N,Net-(BT1--)*%
X142240000Y-106680000D03*
%TO.P,U4,8*%
%TO.N,Net-(U3-Pad12)*%
X149860000Y-106680000D03*
%TO.P,U4,9*%
%TO.N,Net-(SW4-B)*%
X149860000Y-104140000D03*
%TO.P,U4,10*%
%TO.N,Net-(SW8-B)*%
X149860000Y-101600000D03*
%TO.P,U4,11*%
%TO.N,Net-(U3-Pad13)*%
X149860000Y-99060000D03*
%TO.P,U4,12*%
%TO.N,Net-(U3-Pad8)*%
X149860000Y-96520000D03*
%TO.P,U4,13*%
%TO.N,Net-(U4-Pad13)*%
X149860000Y-93980000D03*
%TO.P,U4,14,VCC*%
%TO.N,Net-(SW1-A)*%
X149860000Y-91440000D03*
%TD*%
D19*
%TO.P,J2,1,Pin_1*%
%TO.N,Net-(J2-Pin_1)*%
X71120000Y-137160000D03*
%TD*%
D17*
%TO.P,U5,1*%
%TO.N,Net-(U3-Pad6)*%
X163840000Y-91435000D03*
D18*
%TO.P,U5,2*%
%TO.N,Net-(U4-Pad5)*%
X163840000Y-93975000D03*
%TO.P,U5,3*%
%TO.N,Net-(R3-Pad2)*%
X163840000Y-96515000D03*
%TO.P,U5,4*%
%TO.N,Net-(SW3-B)*%
X163840000Y-99055000D03*
%TO.P,U5,5*%
%TO.N,Net-(SW7-B)*%
X163840000Y-101595000D03*
%TO.P,U5,6*%
%TO.N,Net-(U4-Pad5)*%
X163840000Y-104135000D03*
%TO.P,U5,7,GND*%
%TO.N,Net-(BT1--)*%
X163840000Y-106675000D03*
%TO.P,U5,8*%
%TO.N,Net-(U4-Pad13)*%
X171460000Y-106675000D03*
%TO.P,U5,9*%
%TO.N,Net-(SW4-B)*%
X171460000Y-104135000D03*
%TO.P,U5,10*%
%TO.N,Net-(SW8-B)*%
X171460000Y-101595000D03*
%TO.P,U5,11*%
%TO.N,Net-(R4-Pad2)*%
X171460000Y-99055000D03*
%TO.P,U5,12*%
%TO.N,Net-(U3-Pad8)*%
X171460000Y-96515000D03*
%TO.P,U5,13*%
%TO.N,Net-(U4-Pad13)*%
X171460000Y-93975000D03*
%TO.P,U5,14,VCC*%
%TO.N,Net-(SW1-A)*%
X171460000Y-91435000D03*
%TD*%
D15*
%TO.P,D1,1,K*%
%TO.N,Net-(BT1--)*%
X151384000Y-139954000D03*
D16*
%TO.P,D1,2,A*%
%TO.N,Net-(D1-A)*%
X153924000Y-139954000D03*
%TD*%
D19*
%TO.P,BT1,1,+*%
%TO.N,Net-(BT1-+)*%
X71120000Y-149860000D03*
D20*
%TO.P,BT1,2,-*%
%TO.N,Net-(BT1--)*%
X71120000Y-147320000D03*
%TD*%
D12*
%TO.P,R1,1*%
%TO.N,Net-(D1-A)*%
X156464000Y-132334000D03*
D13*
%TO.P,R1,2*%
%TO.N,Net-(R1-Pad2)*%
X156464000Y-122174000D03*
%TD*%
D21*
%TO.P,U6,1,IN*%
%TO.N,Net-(BT1-+)*%
X78740000Y-152400000D03*
D22*
%TO.P,U6,2,GND*%
%TO.N,Net-(BT1--)*%
X80010000Y-151130000D03*
%TO.P,U6,3,OUT*%
%TO.N,Net-(SW1-A)*%
X81280000Y-152400000D03*
%TD*%
D19*
%TO.P,J1,1,Pin_1*%
%TO.N,Net-(J1-Pin_1)*%
X71120000Y-130810000D03*
%TD*%
D17*
%TO.P,U1,1*%
%TO.N,Net-(SW1-B)*%
X83820000Y-91440000D03*
D18*
%TO.P,U1,2*%
%TO.N,Net-(SW5-B)*%
X83820000Y-93980000D03*
%TO.P,U1,3*%
%TO.N,Net-(U1-Pad3)*%
X83820000Y-96520000D03*
%TO.P,U1,4*%
X83820000Y-99060000D03*
%TO.P,U1,5*%
%TO.N,Net-(J1-Pin_1)*%
X83820000Y-101600000D03*
%TO.P,U1,6*%
%TO.N,Net-(R1-Pad2)*%
X83820000Y-104140000D03*
%TO.P,U1,7,GND*%
%TO.N,Net-(BT1--)*%
X83820000Y-106680000D03*
%TO.P,U1,8*%
%TO.N,Net-(R2-Pad2)*%
X91440000Y-106680000D03*
%TO.P,U1,9*%
%TO.N,Net-(U1-Pad11)*%
X91440000Y-104140000D03*
%TO.P,U1,10*%
%TO.N,Net-(U1-Pad10)*%
X91440000Y-101600000D03*
%TO.P,U1,11*%
%TO.N,Net-(U1-Pad11)*%
X91440000Y-99060000D03*
%TO.P,U1,12*%
%TO.N,Net-(SW2-B)*%
X91440000Y-96520000D03*
%TO.P,U1,13*%
%TO.N,Net-(SW6-B)*%
X91440000Y-93980000D03*
%TO.P,U1,14,VCC*%
%TO.N,Net-(SW1-A)*%
X91440000Y-91440000D03*
%TD*%
D15*
%TO.P,D4,1,K*%
%TO.N,Net-(BT1--)*%
X174244000Y-139954000D03*
D16*
%TO.P,D4,2,A*%
%TO.N,Net-(D4-A)*%
X176784000Y-139954000D03*
%TD*%
D17*
%TO.P,U2,1*%
%TO.N,Net-(J1-Pin_1)*%
X104140000Y-91440000D03*
D18*
%TO.P,U2,2*%
%TO.N,Net-(U1-Pad3)*%
X104140000Y-93980000D03*
%TO.P,U2,3*%
%TO.N,Net-(U2-Pad3)*%
X104140000Y-96520000D03*
%TO.P,U2,4*%
%TO.N,Net-(SW1-B)*%
X104140000Y-99060000D03*
%TO.P,U2,5*%
%TO.N,Net-(SW5-B)*%
X104140000Y-101600000D03*
%TO.P,U2,6*%
%TO.N,Net-(U2-Pad6)*%
X104140000Y-104140000D03*
%TO.P,U2,7,GND*%
%TO.N,Net-(BT1--)*%
X104140000Y-106680000D03*
%TO.P,U2,8*%
%TO.N,Net-(U2-Pad8)*%
X111760000Y-106680000D03*
%TO.P,U2,9*%
%TO.N,Net-(SW2-B)*%
X111760000Y-104140000D03*
%TO.P,U2,10*%
%TO.N,Net-(SW6-B)*%
X111760000Y-101600000D03*
%TO.P,U2,11*%
%TO.N,Net-(U2-Pad11)*%
X111760000Y-99060000D03*
%TO.P,U2,12*%
%TO.N,Net-(U1-Pad10)*%
X111760000Y-96520000D03*
%TO.P,U2,13*%
%TO.N,Net-(U1-Pad11)*%
X111760000Y-93980000D03*
%TO.P,U2,14,VCC*%
%TO.N,Net-(SW1-A)*%
X111760000Y-91440000D03*
%TD*%
D17*
%TO.P,U3,1*%
%TO.N,Net-(U2-Pad6)*%
X123200000Y-91435000D03*
D18*
%TO.P,U3,2*%
%TO.N,Net-(U2-Pad3)*%
X123200000Y-93975000D03*
%TO.P,U3,3*%
%TO.N,Net-(U1-Pad10)*%
X123200000Y-96515000D03*
%TO.P,U3,4*%
%TO.N,Net-(U2-Pad8)*%
X123200000Y-99055000D03*
%TO.P,U3,5*%
%TO.N,Net-(U2-Pad11)*%
X123200000Y-101595000D03*
%TO.P,U3,6*%
%TO.N,Net-(U3-Pad6)*%
X123200000Y-104135000D03*
%TO.P,U3,7,GND*%
%TO.N,Net-(BT1--)*%
X123200000Y-106675000D03*
%TO.P,U3,8*%
%TO.N,Net-(U3-Pad8)*%
X130820000Y-106675000D03*
%TO.P,U3,9*%
%TO.N,Net-(U3-Pad9)*%
X130820000Y-104135000D03*
%TO.P,U3,10*%
%TO.N,Net-(U3-Pad10)*%
X130820000Y-101595000D03*
%TO.P,U3,11*%
%TO.N,Net-(J2-Pin_1)*%
X130820000Y-99055000D03*
%TO.P,U3,12*%
%TO.N,Net-(U3-Pad12)*%
X130820000Y-96515000D03*
%TO.P,U3,13*%
%TO.N,Net-(U3-Pad13)*%
X130820000Y-93975000D03*
%TO.P,U3,14,VCC*%
%TO.N,Net-(SW1-A)*%
X130820000Y-91435000D03*
%TD*%
D12*
%TO.P,R4,1*%
%TO.N,Net-(D4-A)*%
X171704000Y-132334000D03*
D13*
%TO.P,R4,2*%
%TO.N,Net-(R4-Pad2)*%
X171704000Y-122174000D03*
%TD*%
D15*
%TO.P,D3,1,K*%
%TO.N,Net-(BT1--)*%
X166744000Y-139954000D03*
D16*
%TO.P,D3,2,A*%
%TO.N,Net-(D3-A)*%
X169284000Y-139954000D03*
%TD*%
D12*
%TO.P,R2,1*%
%TO.N,Net-(D2-A)*%
X161544000Y-132334000D03*
D13*
%TO.P,R2,2*%
%TO.N,Net-(R2-Pad2)*%
X161544000Y-122174000D03*
%TD*%
D23*
%TO.N,Net-(U4-Pad13)*%
X176530000Y-93980000D03*
X175260000Y-100330000D03*
%TO.N,Net-(BT1--)*%
X80010000Y-147320000D03*
%TO.N,Net-(SW1-B)*%
X82550000Y-125730000D03*
X99060000Y-125730000D03*
%TO.N,Net-(SW1-A)*%
X77470000Y-119380000D03*
X91440000Y-83820000D03*
X77470000Y-105410000D03*
X81280000Y-119380000D03*
%TO.N,Net-(BT1--)*%
X86360000Y-109220000D03*
X142089951Y-121769951D03*
X142240000Y-118655500D03*
X101600000Y-111760000D03*
X93980000Y-109220000D03*
X144780000Y-114300000D03*
X98335500Y-109220000D03*
%TO.N,Net-(J1-Pin_1)*%
X76200000Y-101600000D03*
X104140000Y-85635500D03*
%TO.N,Net-(R2-Pad2)*%
X91440000Y-119380000D03*
%TO.N,Net-(SW1-A)*%
X129540000Y-83820000D03*
X91440000Y-87084500D03*
%TO.N,Net-(U1-Pad3)*%
X93980000Y-91440000D03*
%TO.N,Net-(U1-Pad10)*%
X108707700Y-99572300D03*
X98335500Y-101600000D03*
X100875500Y-106680000D03*
%TO.N,Net-(U2-Pad6)*%
X106680000Y-84544500D03*
X106680000Y-96520000D03*
%TO.N,Net-(U2-Pad8)*%
X115024500Y-106680000D03*
%TO.N,Net-(U3-Pad6)*%
X138975500Y-99060000D03*
X167640000Y-104140000D03*
X165100000Y-114300000D03*
X152400000Y-116115500D03*
%TO.N,Net-(U3-Pad8)*%
X166915500Y-96520000D03*
X138975500Y-109220000D03*
X157480000Y-96520000D03*
X141515500Y-109220000D03*
%TO.N,Net-(U3-Pad9)*%
X134620000Y-96520000D03*
X138975500Y-96520000D03*
%TO.N,Net-(U3-Pad10)*%
X136435500Y-104140000D03*
X138975500Y-104140000D03*
%TO.N,Net-(U3-Pad12)*%
X147320000Y-93980000D03*
X147320000Y-85635500D03*
%TO.N,Net-(U3-Pad13)*%
X144780000Y-91440000D03*
%TO.N,Net-(U4-Pad5)*%
X146595500Y-101600000D03*
X148319502Y-85634811D03*
X149135500Y-88900000D03*
%TO.N,Net-(U4-Pad13)*%
X152400000Y-97244500D03*
X154940000Y-99060000D03*
X160744500Y-93980000D03*
%TO.N,Net-(J2-Pin_1)*%
X127000000Y-117931000D03*
X127000000Y-121195500D03*
X127000000Y-111760000D03*
%TO.N,Net-(SW8-B)*%
X147320000Y-117564500D03*
X157480000Y-114300000D03*
%TO.N,Net-(SW7-B)*%
X157480000Y-101600000D03*
X139700000Y-117564500D03*
%TO.N,Net-(SW6-B)*%
X101600000Y-96520000D03*
X116840000Y-117564500D03*
%TO.N,Net-(SW5-B)*%
X109220000Y-117564500D03*
%TO.N,Net-(SW2-B)*%
X101600000Y-114300000D03*
%TD*%
D24*
%TO.N,Net-(SW8-B)*%
X144454000Y-143458000D02*
X144454000Y-136958000D01*
%TO.N,Net-(SW7-B)*%
X135564000Y-143458000D02*
X135564000Y-136958000D01*
%TO.N,Net-(SW6-B)*%
X126674000Y-143458000D02*
X126674000Y-136958000D01*
%TO.N,Net-(SW5-B)*%
X117784000Y-143458000D02*
X117784000Y-136958000D01*
%TO.N,Net-(SW4-B)*%
X108894000Y-143458000D02*
X108894000Y-136958000D01*
%TO.N,Net-(SW3-B)*%
X100294000Y-143458000D02*
X100294000Y-136958000D01*
%TO.N,Net-(SW2-B)*%
X91404000Y-143458000D02*
X91404000Y-136958000D01*
%TO.N,Net-(SW1-B)*%
X82514000Y-143458000D02*
X82514000Y-136958000D01*
%TO.N,Net-(U4-Pad13)*%
X175260000Y-100330000D02*
X176530000Y-99060000D01*
X176530000Y-99060000D02*
X176530000Y-93980000D01*
%TO.N,Net-(SW1-A)*%
X81280000Y-152400000D02*
X81280000Y-149860000D01*
X78014000Y-143458000D02*
X78014000Y-146594000D01*
X78014000Y-146594000D02*
X81280000Y-149860000D01*
X86412000Y-143458000D02*
X86904000Y-143458000D01*
%TO.N,Net-(SW3-B)*%
X104140000Y-128270000D02*
X104140000Y-114750000D01*
%TO.N,Net-(SW8-B)*%
X144454000Y-126056000D02*
X147320000Y-123190000D01*
X147320000Y-123190000D02*
X147320000Y-117564500D01*
X144454000Y-136958000D02*
X144454000Y-126056000D01*
%TO.N,Net-(SW7-B)*%
X135564000Y-122246000D02*
X135890000Y-121920000D01*
X135564000Y-136958000D02*
X135564000Y-122246000D01*
X135890000Y-121920000D02*
X139700000Y-121920000D01*
%TO.N,Net-(SW6-B)*%
X126674000Y-136958000D02*
X116840000Y-127124000D01*
X116840000Y-127124000D02*
X116840000Y-117564500D01*
%TO.N,Net-(SW5-B)*%
X109220000Y-125730000D02*
X109220000Y-117564500D01*
X117784000Y-136958000D02*
X117784000Y-134294000D01*
X117784000Y-134294000D02*
X109220000Y-125730000D01*
%TO.N,Net-(SW4-B)*%
X108894000Y-136958000D02*
X108894000Y-129214000D01*
X108894000Y-129214000D02*
X107950000Y-128270000D01*
X107950000Y-128270000D02*
X106680000Y-128270000D01*
X106680000Y-128270000D02*
X106680000Y-116840000D01*
X106680000Y-116840000D02*
X160020000Y-116840000D01*
%TO.N,Net-(SW3-B)*%
X100294000Y-136958000D02*
X100294000Y-128306000D01*
X100294000Y-128306000D02*
X100330000Y-128270000D01*
X100330000Y-128270000D02*
X104140000Y-128270000D01*
%TO.N,Net-(SW2-B)*%
X91404000Y-136958000D02*
X91404000Y-127036000D01*
X91404000Y-127036000D02*
X91440000Y-127000000D01*
X91440000Y-127000000D02*
X101600000Y-127000000D01*
X101600000Y-127000000D02*
X101600000Y-114300000D01*
%TO.N,Net-(SW1-B)*%
X82514000Y-125766000D02*
X82550000Y-125730000D01*
X82514000Y-136958000D02*
X82514000Y-125766000D01*
X99060000Y-126010000D02*
X99060000Y-125730000D01*
X99060000Y-125730000D02*
X99060000Y-93980000D01*
%TO.N,Net-(SW1-A)*%
X86904000Y-136958000D02*
X86904000Y-125004000D01*
X86904000Y-125004000D02*
X81280000Y-119380000D01*
X77470000Y-119380000D02*
X77470000Y-105410000D01*
%TO.N,Net-(BT1--)*%
X80010000Y-115570000D02*
X86360000Y-109220000D01*
X80010000Y-147320000D02*
X80010000Y-115570000D01*
%TO.N,Net-(R1-Pad2)*%
X83820000Y-104140000D02*
X73660000Y-104140000D01*
X73660000Y-104140000D02*
X73660000Y-153670000D01*
X148590000Y-130048000D02*
X156464000Y-122174000D01*
X73660000Y-153670000D02*
X148590000Y-153670000D01*
X148590000Y-153670000D02*
X148590000Y-130048000D01*
%TO.N,Net-(BT1--)*%
X180340000Y-121920000D02*
X174244000Y-128016000D01*
X174244000Y-128016000D02*
X174244000Y-139954000D01*
X101600000Y-111760000D02*
X104140000Y-109220000D01*
X179210000Y-103010000D02*
X180340000Y-104140000D01*
X163840000Y-106675000D02*
X167505000Y-103010000D01*
X142240000Y-111760000D02*
X144780000Y-114300000D01*
X180340000Y-104140000D02*
X180340000Y-121920000D01*
X167505000Y-103010000D02*
X179210000Y-103010000D01*
X93980000Y-109220000D02*
X98335500Y-109220000D01*
X142240000Y-106680000D02*
X142240000Y-111760000D01*
X142240000Y-118655500D02*
X142240000Y-121619902D01*
X104140000Y-109220000D02*
X104140000Y-106680000D01*
X142240000Y-121619902D02*
X142089951Y-121769951D01*
%TO.N,Net-(J1-Pin_1)*%
X83820000Y-101600000D02*
X76200000Y-101600000D01*
X104140000Y-85635500D02*
X104140000Y-91440000D01*
%TO.N,Net-(R2-Pad2)*%
X91440000Y-119380000D02*
X91440000Y-106680000D01*
%TO.N,Net-(SW1-A)*%
X130820000Y-85100000D02*
X129540000Y-83820000D01*
X130820000Y-91435000D02*
X130820000Y-85100000D01*
X91440000Y-83820000D02*
X109220000Y-83820000D01*
X91440000Y-87084500D02*
X91440000Y-83820000D01*
X111760000Y-91440000D02*
X111760000Y-83820000D01*
X129540000Y-83820000D02*
X109220000Y-83820000D01*
X109220000Y-83820000D02*
X111760000Y-83820000D01*
%TO.N,Net-(U1-Pad3)*%
X83820000Y-99060000D02*
X83820000Y-96520000D01*
X87485000Y-92855000D02*
X92565000Y-92855000D01*
X83820000Y-96520000D02*
X87485000Y-92855000D01*
X92565000Y-92855000D02*
X93980000Y-91440000D01*
%TO.N,Net-(U1-Pad10)*%
X109220000Y-104140000D02*
X109220000Y-100084600D01*
X91440000Y-101600000D02*
X98335500Y-101600000D01*
X100875500Y-106680000D02*
X102000500Y-105555000D01*
X109220000Y-100084600D02*
X108707700Y-99572300D01*
X102000500Y-105555000D02*
X107805000Y-105555000D01*
X107805000Y-105555000D02*
X109220000Y-104140000D01*
%TO.N,Net-(U2-Pad6)*%
X106680000Y-96520000D02*
X106680000Y-84544500D01*
%TO.N,Net-(U2-Pad8)*%
X115575000Y-106680000D02*
X115024500Y-106680000D01*
X123200000Y-99055000D02*
X115575000Y-106680000D01*
%TO.N,Net-(U3-Pad6)*%
X150584500Y-114300000D02*
X152400000Y-116115500D01*
X167640000Y-111760000D02*
X167640000Y-104140000D01*
X138975500Y-99060000D02*
X142240000Y-99060000D01*
X144780000Y-111760000D02*
X147320000Y-114300000D01*
X144780000Y-99060000D02*
X144780000Y-111760000D01*
X147320000Y-114300000D02*
X150584500Y-114300000D01*
X165100000Y-114300000D02*
X167640000Y-111760000D01*
X142240000Y-99060000D02*
X144780000Y-99060000D01*
%TO.N,Net-(U3-Pad8)*%
X166915500Y-96520000D02*
X166920500Y-96515000D01*
X138975500Y-109220000D02*
X141515500Y-109220000D01*
X149860000Y-96520000D02*
X157480000Y-96520000D01*
X166920500Y-96515000D02*
X171460000Y-96515000D01*
%TO.N,Net-(U3-Pad9)*%
X134620000Y-104140000D02*
X134620000Y-96520000D01*
X134615000Y-104135000D02*
X134620000Y-104140000D01*
X130820000Y-104135000D02*
X134615000Y-104135000D01*
X138975500Y-96520000D02*
X142240000Y-96520000D01*
%TO.N,Net-(U3-Pad10)*%
X127450000Y-109220000D02*
X136710000Y-109220000D01*
X136710000Y-104414500D02*
X136435500Y-104140000D01*
X136710000Y-109220000D02*
X136710000Y-104414500D01*
X127450000Y-101600000D02*
X127450000Y-109220000D01*
X127455000Y-101595000D02*
X127450000Y-101600000D01*
X138975500Y-104140000D02*
X142240000Y-104140000D01*
X130820000Y-101595000D02*
X127455000Y-101595000D01*
%TO.N,Net-(U3-Pad12)*%
X147320000Y-106680000D02*
X149860000Y-106680000D01*
X134620000Y-92715000D02*
X134620000Y-83820000D01*
X134620000Y-83820000D02*
X147320000Y-83820000D01*
X147320000Y-83820000D02*
X147320000Y-85635500D01*
X130820000Y-96515000D02*
X134620000Y-92715000D01*
X147320000Y-93980000D02*
X147320000Y-106680000D01*
%TO.N,Net-(U3-Pad13)*%
X145805305Y-91440000D02*
X148045000Y-93679695D01*
X148045000Y-93679695D02*
X148045000Y-97245000D01*
X148045000Y-97245000D02*
X149860000Y-99060000D01*
X144780000Y-91440000D02*
X145805305Y-91440000D01*
%TO.N,Net-(U4-Pad5)*%
X162560000Y-86360000D02*
X162315000Y-86605000D01*
X163840000Y-104135000D02*
X170045000Y-97930000D01*
X165100000Y-86360000D02*
X162560000Y-86360000D01*
X149135500Y-88900000D02*
X147320000Y-88900000D01*
X162315000Y-86605000D02*
X162315000Y-92450000D01*
X165100000Y-86360000D02*
X165100000Y-83820000D01*
X162315000Y-92450000D02*
X163840000Y-93975000D01*
X165100000Y-83820000D02*
X150134313Y-83820000D01*
X146294695Y-88900000D02*
X144055000Y-91139695D01*
X146595500Y-100239104D02*
X146595500Y-101600000D01*
X175260000Y-86360000D02*
X165100000Y-86360000D01*
X175260000Y-96520000D02*
X175260000Y-86360000D01*
X147320000Y-88900000D02*
X146294695Y-88900000D01*
X170045000Y-97930000D02*
X173850000Y-97930000D01*
X150134313Y-83820000D02*
X148319502Y-85634811D01*
X173850000Y-97930000D02*
X175260000Y-96520000D01*
X144055000Y-97698604D02*
X146595500Y-100239104D01*
X144055000Y-91139695D02*
X144055000Y-97698604D01*
%TO.N,Net-(U4-Pad13)*%
X161864500Y-95100000D02*
X160744500Y-93980000D01*
X170335000Y-95100000D02*
X161864500Y-95100000D01*
X154940000Y-99060000D02*
X153124500Y-97244500D01*
X171460000Y-93975000D02*
X170335000Y-95100000D01*
X153124500Y-97244500D02*
X152400000Y-97244500D01*
%TO.N,Net-(J2-Pin_1)*%
X127005000Y-99055000D02*
X127000000Y-99060000D01*
X130820000Y-99055000D02*
X127005000Y-99055000D01*
X127000000Y-99060000D02*
X127000000Y-111760000D01*
X127000000Y-117931000D02*
X127000000Y-121195500D01*
%TO.N,Net-(SW8-B)*%
X157480000Y-104140000D02*
X154940000Y-101600000D01*
X154940000Y-101600000D02*
X149860000Y-101600000D01*
X170180000Y-101600000D02*
X170175000Y-101595000D01*
X157480000Y-114300000D02*
X157480000Y-104140000D01*
%TO.N,Net-(SW7-B)*%
X157480000Y-101600000D02*
X157485000Y-101595000D01*
X139700000Y-121920000D02*
X139700000Y-117564500D01*
X157485000Y-101595000D02*
X163840000Y-101595000D01*
%TO.N,Net-(SW6-B)*%
X111760000Y-101600000D02*
X108095000Y-97935000D01*
X108095000Y-97935000D02*
X103015000Y-97935000D01*
X103015000Y-97935000D02*
X101600000Y-96520000D01*
%TO.N,Net-(SW4-B)*%
X175260000Y-116840000D02*
X175260000Y-104140000D01*
X175260000Y-104140000D02*
X175255000Y-104135000D01*
X154940000Y-106680000D02*
X154940000Y-116840000D01*
X152400000Y-104140000D02*
X154940000Y-106680000D01*
X154940000Y-116840000D02*
X160020000Y-116840000D01*
X175255000Y-104135000D02*
X171460000Y-104135000D01*
X149860000Y-104140000D02*
X152400000Y-104140000D01*
X160020000Y-116840000D02*
X175260000Y-116840000D01*
%TO.N,Net-(SW3-B)*%
X160025000Y-99055000D02*
X163840000Y-99055000D01*
X160020000Y-99060000D02*
X160025000Y-99055000D01*
X137160000Y-95070000D02*
X140790000Y-91440000D01*
X104140000Y-114750000D02*
X136710000Y-114750000D01*
X137160000Y-114300000D02*
X137160000Y-95070000D01*
X140790000Y-91440000D02*
X142240000Y-91440000D01*
X142240000Y-86360000D02*
X160020000Y-86360000D01*
X160020000Y-86360000D02*
X160020000Y-99060000D01*
X142240000Y-91440000D02*
X142240000Y-86360000D01*
X136710000Y-114750000D02*
X137160000Y-114300000D01*
%TO.N,Net-(SW2-B)*%
X114300000Y-104140000D02*
X111760000Y-104140000D01*
X114300000Y-111760000D02*
X114300000Y-104140000D01*
X111760000Y-114300000D02*
X114300000Y-111760000D01*
X101600000Y-114300000D02*
X111760000Y-114300000D01*
%TO.N,Net-(SW1-B)*%
X99060000Y-93980000D02*
X93980000Y-88900000D01*
X99060000Y-104140000D02*
X104140000Y-99060000D01*
X83820000Y-88900000D02*
X83820000Y-91440000D01*
X99060000Y-126010000D02*
X99060000Y-104140000D01*
X93980000Y-88900000D02*
X83820000Y-88900000D01*
%TD*%
M02*
