%TF.GenerationSoftware,KiCad,Pcbnew,7.0.9*%
%TF.CreationDate,2023-12-29T15:51:13+11:00*%
%TF.ProjectId,cpu,6370752e-6b69-4636-9164-5f7063625858,rev?*%
%TF.SameCoordinates,Original*%
%TF.FileFunction,Soldermask,Top*%
%TF.FilePolarity,Negative*%
%FSLAX46Y46*%
G04 Gerber Fmt 4.6, Leading zero omitted, Abs format (unit mm)*
G04 Created by KiCad (PCBNEW 7.0.9) date 2023-12-29 15:51:13*
%MOMM*%
%LPD*%
G01*
G04 APERTURE LIST*
%ADD10C,1.600000*%
%ADD11O,1.600000X1.600000*%
%ADD12C,2.000000*%
%ADD13R,1.800000X1.800000*%
%ADD14C,1.800000*%
%ADD15R,2.400000X1.600000*%
%ADD16O,2.400000X1.600000*%
%ADD17R,1.700000X1.700000*%
%ADD18O,1.700000X1.700000*%
%ADD19R,1.300000X1.300000*%
%ADD20C,1.300000*%
G04 APERTURE END LIST*
D10*
%TO.C,R3*%
X166624000Y-132334000D03*
D11*
X166624000Y-122174000D03*
%TD*%
D12*
%TO.C,SW8*%
X144454000Y-143458000D03*
X144454000Y-136958000D03*
X139954000Y-143458000D03*
X139954000Y-136958000D03*
%TD*%
%TO.C,SW7*%
X135564000Y-143458000D03*
X135564000Y-136958000D03*
X131064000Y-143458000D03*
X131064000Y-136958000D03*
%TD*%
%TO.C,SW6*%
X122174000Y-136958000D03*
X122174000Y-143458000D03*
X126674000Y-136958000D03*
X126674000Y-143458000D03*
%TD*%
%TO.C,SW5*%
X117784000Y-143458000D03*
X117784000Y-136958000D03*
X113284000Y-143458000D03*
X113284000Y-136958000D03*
%TD*%
%TO.C,SW4*%
X104394000Y-136958000D03*
X104394000Y-143458000D03*
X108894000Y-136958000D03*
X108894000Y-143458000D03*
%TD*%
%TO.C,SW3*%
X95794000Y-136958000D03*
X95794000Y-143458000D03*
X100294000Y-136958000D03*
X100294000Y-143458000D03*
%TD*%
%TO.C,SW2*%
X86904000Y-136958000D03*
X86904000Y-143458000D03*
X91404000Y-136958000D03*
X91404000Y-143458000D03*
%TD*%
%TO.C,SW1*%
X78014000Y-136958000D03*
X78014000Y-143458000D03*
X82514000Y-136958000D03*
X82514000Y-143458000D03*
%TD*%
D13*
%TO.C,D2*%
X159004000Y-139954000D03*
D14*
X161544000Y-139954000D03*
%TD*%
D15*
%TO.C,U4*%
X142240000Y-91440000D03*
D16*
X142240000Y-93980000D03*
X142240000Y-96520000D03*
X142240000Y-99060000D03*
X142240000Y-101600000D03*
X142240000Y-104140000D03*
X142240000Y-106680000D03*
X149860000Y-106680000D03*
X149860000Y-104140000D03*
X149860000Y-101600000D03*
X149860000Y-99060000D03*
X149860000Y-96520000D03*
X149860000Y-93980000D03*
X149860000Y-91440000D03*
%TD*%
D17*
%TO.C,J2*%
X71120000Y-137160000D03*
%TD*%
D15*
%TO.C,U5*%
X163840000Y-91435000D03*
D16*
X163840000Y-93975000D03*
X163840000Y-96515000D03*
X163840000Y-99055000D03*
X163840000Y-101595000D03*
X163840000Y-104135000D03*
X163840000Y-106675000D03*
X171460000Y-106675000D03*
X171460000Y-104135000D03*
X171460000Y-101595000D03*
X171460000Y-99055000D03*
X171460000Y-96515000D03*
X171460000Y-93975000D03*
X171460000Y-91435000D03*
%TD*%
D13*
%TO.C,D1*%
X151384000Y-139954000D03*
D14*
X153924000Y-139954000D03*
%TD*%
D17*
%TO.C,BT1*%
X71120000Y-149860000D03*
D18*
X71120000Y-147320000D03*
%TD*%
D10*
%TO.C,R1*%
X156464000Y-132334000D03*
D11*
X156464000Y-122174000D03*
%TD*%
D19*
%TO.C,U6*%
X78740000Y-152400000D03*
D20*
X80010000Y-151130000D03*
X81280000Y-152400000D03*
%TD*%
D17*
%TO.C,J1*%
X71120000Y-130810000D03*
%TD*%
D15*
%TO.C,U1*%
X83820000Y-91440000D03*
D16*
X83820000Y-93980000D03*
X83820000Y-96520000D03*
X83820000Y-99060000D03*
X83820000Y-101600000D03*
X83820000Y-104140000D03*
X83820000Y-106680000D03*
X91440000Y-106680000D03*
X91440000Y-104140000D03*
X91440000Y-101600000D03*
X91440000Y-99060000D03*
X91440000Y-96520000D03*
X91440000Y-93980000D03*
X91440000Y-91440000D03*
%TD*%
D13*
%TO.C,D4*%
X174244000Y-139954000D03*
D14*
X176784000Y-139954000D03*
%TD*%
D15*
%TO.C,U2*%
X104140000Y-91440000D03*
D16*
X104140000Y-93980000D03*
X104140000Y-96520000D03*
X104140000Y-99060000D03*
X104140000Y-101600000D03*
X104140000Y-104140000D03*
X104140000Y-106680000D03*
X111760000Y-106680000D03*
X111760000Y-104140000D03*
X111760000Y-101600000D03*
X111760000Y-99060000D03*
X111760000Y-96520000D03*
X111760000Y-93980000D03*
X111760000Y-91440000D03*
%TD*%
D15*
%TO.C,U3*%
X123200000Y-91435000D03*
D16*
X123200000Y-93975000D03*
X123200000Y-96515000D03*
X123200000Y-99055000D03*
X123200000Y-101595000D03*
X123200000Y-104135000D03*
X123200000Y-106675000D03*
X130820000Y-106675000D03*
X130820000Y-104135000D03*
X130820000Y-101595000D03*
X130820000Y-99055000D03*
X130820000Y-96515000D03*
X130820000Y-93975000D03*
X130820000Y-91435000D03*
%TD*%
D10*
%TO.C,R4*%
X171704000Y-132334000D03*
D11*
X171704000Y-122174000D03*
%TD*%
D13*
%TO.C,D3*%
X166744000Y-139954000D03*
D14*
X169284000Y-139954000D03*
%TD*%
D10*
%TO.C,R2*%
X161544000Y-132334000D03*
D11*
X161544000Y-122174000D03*
%TD*%
M02*
