%TF.GenerationSoftware,KiCad,Pcbnew,7.0.9*%
%TF.CreationDate,2023-12-29T15:51:13+11:00*%
%TF.ProjectId,cpu,6370752e-6b69-4636-9164-5f7063625858,rev?*%
%TF.SameCoordinates,Original*%
%TF.FileFunction,Legend,Top*%
%TF.FilePolarity,Positive*%
%FSLAX46Y46*%
G04 Gerber Fmt 4.6, Leading zero omitted, Abs format (unit mm)*
G04 Created by KiCad (PCBNEW 7.0.9) date 2023-12-29 15:51:13*
%MOMM*%
%LPD*%
G01*
G04 APERTURE LIST*
%ADD10C,0.150000*%
%ADD11C,0.120000*%
G04 APERTURE END LIST*
D10*
X164708819Y-127420666D02*
X164232628Y-127753999D01*
X164708819Y-127992094D02*
X163708819Y-127992094D01*
X163708819Y-127992094D02*
X163708819Y-127611142D01*
X163708819Y-127611142D02*
X163756438Y-127515904D01*
X163756438Y-127515904D02*
X163804057Y-127468285D01*
X163804057Y-127468285D02*
X163899295Y-127420666D01*
X163899295Y-127420666D02*
X164042152Y-127420666D01*
X164042152Y-127420666D02*
X164137390Y-127468285D01*
X164137390Y-127468285D02*
X164185009Y-127515904D01*
X164185009Y-127515904D02*
X164232628Y-127611142D01*
X164232628Y-127611142D02*
X164232628Y-127992094D01*
X163708819Y-127087332D02*
X163708819Y-126468285D01*
X163708819Y-126468285D02*
X164089771Y-126801618D01*
X164089771Y-126801618D02*
X164089771Y-126658761D01*
X164089771Y-126658761D02*
X164137390Y-126563523D01*
X164137390Y-126563523D02*
X164185009Y-126515904D01*
X164185009Y-126515904D02*
X164280247Y-126468285D01*
X164280247Y-126468285D02*
X164518342Y-126468285D01*
X164518342Y-126468285D02*
X164613580Y-126515904D01*
X164613580Y-126515904D02*
X164661200Y-126563523D01*
X164661200Y-126563523D02*
X164708819Y-126658761D01*
X164708819Y-126658761D02*
X164708819Y-126944475D01*
X164708819Y-126944475D02*
X164661200Y-127039713D01*
X164661200Y-127039713D02*
X164613580Y-127087332D01*
X138361200Y-141541332D02*
X138408819Y-141398475D01*
X138408819Y-141398475D02*
X138408819Y-141160380D01*
X138408819Y-141160380D02*
X138361200Y-141065142D01*
X138361200Y-141065142D02*
X138313580Y-141017523D01*
X138313580Y-141017523D02*
X138218342Y-140969904D01*
X138218342Y-140969904D02*
X138123104Y-140969904D01*
X138123104Y-140969904D02*
X138027866Y-141017523D01*
X138027866Y-141017523D02*
X137980247Y-141065142D01*
X137980247Y-141065142D02*
X137932628Y-141160380D01*
X137932628Y-141160380D02*
X137885009Y-141350856D01*
X137885009Y-141350856D02*
X137837390Y-141446094D01*
X137837390Y-141446094D02*
X137789771Y-141493713D01*
X137789771Y-141493713D02*
X137694533Y-141541332D01*
X137694533Y-141541332D02*
X137599295Y-141541332D01*
X137599295Y-141541332D02*
X137504057Y-141493713D01*
X137504057Y-141493713D02*
X137456438Y-141446094D01*
X137456438Y-141446094D02*
X137408819Y-141350856D01*
X137408819Y-141350856D02*
X137408819Y-141112761D01*
X137408819Y-141112761D02*
X137456438Y-140969904D01*
X137408819Y-140636570D02*
X138408819Y-140398475D01*
X138408819Y-140398475D02*
X137694533Y-140207999D01*
X137694533Y-140207999D02*
X138408819Y-140017523D01*
X138408819Y-140017523D02*
X137408819Y-139779428D01*
X137837390Y-139255618D02*
X137789771Y-139350856D01*
X137789771Y-139350856D02*
X137742152Y-139398475D01*
X137742152Y-139398475D02*
X137646914Y-139446094D01*
X137646914Y-139446094D02*
X137599295Y-139446094D01*
X137599295Y-139446094D02*
X137504057Y-139398475D01*
X137504057Y-139398475D02*
X137456438Y-139350856D01*
X137456438Y-139350856D02*
X137408819Y-139255618D01*
X137408819Y-139255618D02*
X137408819Y-139065142D01*
X137408819Y-139065142D02*
X137456438Y-138969904D01*
X137456438Y-138969904D02*
X137504057Y-138922285D01*
X137504057Y-138922285D02*
X137599295Y-138874666D01*
X137599295Y-138874666D02*
X137646914Y-138874666D01*
X137646914Y-138874666D02*
X137742152Y-138922285D01*
X137742152Y-138922285D02*
X137789771Y-138969904D01*
X137789771Y-138969904D02*
X137837390Y-139065142D01*
X137837390Y-139065142D02*
X137837390Y-139255618D01*
X137837390Y-139255618D02*
X137885009Y-139350856D01*
X137885009Y-139350856D02*
X137932628Y-139398475D01*
X137932628Y-139398475D02*
X138027866Y-139446094D01*
X138027866Y-139446094D02*
X138218342Y-139446094D01*
X138218342Y-139446094D02*
X138313580Y-139398475D01*
X138313580Y-139398475D02*
X138361200Y-139350856D01*
X138361200Y-139350856D02*
X138408819Y-139255618D01*
X138408819Y-139255618D02*
X138408819Y-139065142D01*
X138408819Y-139065142D02*
X138361200Y-138969904D01*
X138361200Y-138969904D02*
X138313580Y-138922285D01*
X138313580Y-138922285D02*
X138218342Y-138874666D01*
X138218342Y-138874666D02*
X138027866Y-138874666D01*
X138027866Y-138874666D02*
X137932628Y-138922285D01*
X137932628Y-138922285D02*
X137885009Y-138969904D01*
X137885009Y-138969904D02*
X137837390Y-139065142D01*
X129471200Y-141541332D02*
X129518819Y-141398475D01*
X129518819Y-141398475D02*
X129518819Y-141160380D01*
X129518819Y-141160380D02*
X129471200Y-141065142D01*
X129471200Y-141065142D02*
X129423580Y-141017523D01*
X129423580Y-141017523D02*
X129328342Y-140969904D01*
X129328342Y-140969904D02*
X129233104Y-140969904D01*
X129233104Y-140969904D02*
X129137866Y-141017523D01*
X129137866Y-141017523D02*
X129090247Y-141065142D01*
X129090247Y-141065142D02*
X129042628Y-141160380D01*
X129042628Y-141160380D02*
X128995009Y-141350856D01*
X128995009Y-141350856D02*
X128947390Y-141446094D01*
X128947390Y-141446094D02*
X128899771Y-141493713D01*
X128899771Y-141493713D02*
X128804533Y-141541332D01*
X128804533Y-141541332D02*
X128709295Y-141541332D01*
X128709295Y-141541332D02*
X128614057Y-141493713D01*
X128614057Y-141493713D02*
X128566438Y-141446094D01*
X128566438Y-141446094D02*
X128518819Y-141350856D01*
X128518819Y-141350856D02*
X128518819Y-141112761D01*
X128518819Y-141112761D02*
X128566438Y-140969904D01*
X128518819Y-140636570D02*
X129518819Y-140398475D01*
X129518819Y-140398475D02*
X128804533Y-140207999D01*
X128804533Y-140207999D02*
X129518819Y-140017523D01*
X129518819Y-140017523D02*
X128518819Y-139779428D01*
X128518819Y-139493713D02*
X128518819Y-138827047D01*
X128518819Y-138827047D02*
X129518819Y-139255618D01*
X120581200Y-141541332D02*
X120628819Y-141398475D01*
X120628819Y-141398475D02*
X120628819Y-141160380D01*
X120628819Y-141160380D02*
X120581200Y-141065142D01*
X120581200Y-141065142D02*
X120533580Y-141017523D01*
X120533580Y-141017523D02*
X120438342Y-140969904D01*
X120438342Y-140969904D02*
X120343104Y-140969904D01*
X120343104Y-140969904D02*
X120247866Y-141017523D01*
X120247866Y-141017523D02*
X120200247Y-141065142D01*
X120200247Y-141065142D02*
X120152628Y-141160380D01*
X120152628Y-141160380D02*
X120105009Y-141350856D01*
X120105009Y-141350856D02*
X120057390Y-141446094D01*
X120057390Y-141446094D02*
X120009771Y-141493713D01*
X120009771Y-141493713D02*
X119914533Y-141541332D01*
X119914533Y-141541332D02*
X119819295Y-141541332D01*
X119819295Y-141541332D02*
X119724057Y-141493713D01*
X119724057Y-141493713D02*
X119676438Y-141446094D01*
X119676438Y-141446094D02*
X119628819Y-141350856D01*
X119628819Y-141350856D02*
X119628819Y-141112761D01*
X119628819Y-141112761D02*
X119676438Y-140969904D01*
X119628819Y-140636570D02*
X120628819Y-140398475D01*
X120628819Y-140398475D02*
X119914533Y-140207999D01*
X119914533Y-140207999D02*
X120628819Y-140017523D01*
X120628819Y-140017523D02*
X119628819Y-139779428D01*
X119628819Y-138969904D02*
X119628819Y-139160380D01*
X119628819Y-139160380D02*
X119676438Y-139255618D01*
X119676438Y-139255618D02*
X119724057Y-139303237D01*
X119724057Y-139303237D02*
X119866914Y-139398475D01*
X119866914Y-139398475D02*
X120057390Y-139446094D01*
X120057390Y-139446094D02*
X120438342Y-139446094D01*
X120438342Y-139446094D02*
X120533580Y-139398475D01*
X120533580Y-139398475D02*
X120581200Y-139350856D01*
X120581200Y-139350856D02*
X120628819Y-139255618D01*
X120628819Y-139255618D02*
X120628819Y-139065142D01*
X120628819Y-139065142D02*
X120581200Y-138969904D01*
X120581200Y-138969904D02*
X120533580Y-138922285D01*
X120533580Y-138922285D02*
X120438342Y-138874666D01*
X120438342Y-138874666D02*
X120200247Y-138874666D01*
X120200247Y-138874666D02*
X120105009Y-138922285D01*
X120105009Y-138922285D02*
X120057390Y-138969904D01*
X120057390Y-138969904D02*
X120009771Y-139065142D01*
X120009771Y-139065142D02*
X120009771Y-139255618D01*
X120009771Y-139255618D02*
X120057390Y-139350856D01*
X120057390Y-139350856D02*
X120105009Y-139398475D01*
X120105009Y-139398475D02*
X120200247Y-139446094D01*
X111691200Y-141541332D02*
X111738819Y-141398475D01*
X111738819Y-141398475D02*
X111738819Y-141160380D01*
X111738819Y-141160380D02*
X111691200Y-141065142D01*
X111691200Y-141065142D02*
X111643580Y-141017523D01*
X111643580Y-141017523D02*
X111548342Y-140969904D01*
X111548342Y-140969904D02*
X111453104Y-140969904D01*
X111453104Y-140969904D02*
X111357866Y-141017523D01*
X111357866Y-141017523D02*
X111310247Y-141065142D01*
X111310247Y-141065142D02*
X111262628Y-141160380D01*
X111262628Y-141160380D02*
X111215009Y-141350856D01*
X111215009Y-141350856D02*
X111167390Y-141446094D01*
X111167390Y-141446094D02*
X111119771Y-141493713D01*
X111119771Y-141493713D02*
X111024533Y-141541332D01*
X111024533Y-141541332D02*
X110929295Y-141541332D01*
X110929295Y-141541332D02*
X110834057Y-141493713D01*
X110834057Y-141493713D02*
X110786438Y-141446094D01*
X110786438Y-141446094D02*
X110738819Y-141350856D01*
X110738819Y-141350856D02*
X110738819Y-141112761D01*
X110738819Y-141112761D02*
X110786438Y-140969904D01*
X110738819Y-140636570D02*
X111738819Y-140398475D01*
X111738819Y-140398475D02*
X111024533Y-140207999D01*
X111024533Y-140207999D02*
X111738819Y-140017523D01*
X111738819Y-140017523D02*
X110738819Y-139779428D01*
X110738819Y-138922285D02*
X110738819Y-139398475D01*
X110738819Y-139398475D02*
X111215009Y-139446094D01*
X111215009Y-139446094D02*
X111167390Y-139398475D01*
X111167390Y-139398475D02*
X111119771Y-139303237D01*
X111119771Y-139303237D02*
X111119771Y-139065142D01*
X111119771Y-139065142D02*
X111167390Y-138969904D01*
X111167390Y-138969904D02*
X111215009Y-138922285D01*
X111215009Y-138922285D02*
X111310247Y-138874666D01*
X111310247Y-138874666D02*
X111548342Y-138874666D01*
X111548342Y-138874666D02*
X111643580Y-138922285D01*
X111643580Y-138922285D02*
X111691200Y-138969904D01*
X111691200Y-138969904D02*
X111738819Y-139065142D01*
X111738819Y-139065142D02*
X111738819Y-139303237D01*
X111738819Y-139303237D02*
X111691200Y-139398475D01*
X111691200Y-139398475D02*
X111643580Y-139446094D01*
X102801200Y-141541332D02*
X102848819Y-141398475D01*
X102848819Y-141398475D02*
X102848819Y-141160380D01*
X102848819Y-141160380D02*
X102801200Y-141065142D01*
X102801200Y-141065142D02*
X102753580Y-141017523D01*
X102753580Y-141017523D02*
X102658342Y-140969904D01*
X102658342Y-140969904D02*
X102563104Y-140969904D01*
X102563104Y-140969904D02*
X102467866Y-141017523D01*
X102467866Y-141017523D02*
X102420247Y-141065142D01*
X102420247Y-141065142D02*
X102372628Y-141160380D01*
X102372628Y-141160380D02*
X102325009Y-141350856D01*
X102325009Y-141350856D02*
X102277390Y-141446094D01*
X102277390Y-141446094D02*
X102229771Y-141493713D01*
X102229771Y-141493713D02*
X102134533Y-141541332D01*
X102134533Y-141541332D02*
X102039295Y-141541332D01*
X102039295Y-141541332D02*
X101944057Y-141493713D01*
X101944057Y-141493713D02*
X101896438Y-141446094D01*
X101896438Y-141446094D02*
X101848819Y-141350856D01*
X101848819Y-141350856D02*
X101848819Y-141112761D01*
X101848819Y-141112761D02*
X101896438Y-140969904D01*
X101848819Y-140636570D02*
X102848819Y-140398475D01*
X102848819Y-140398475D02*
X102134533Y-140207999D01*
X102134533Y-140207999D02*
X102848819Y-140017523D01*
X102848819Y-140017523D02*
X101848819Y-139779428D01*
X102182152Y-138969904D02*
X102848819Y-138969904D01*
X101801200Y-139207999D02*
X102515485Y-139446094D01*
X102515485Y-139446094D02*
X102515485Y-138827047D01*
X94201200Y-141541332D02*
X94248819Y-141398475D01*
X94248819Y-141398475D02*
X94248819Y-141160380D01*
X94248819Y-141160380D02*
X94201200Y-141065142D01*
X94201200Y-141065142D02*
X94153580Y-141017523D01*
X94153580Y-141017523D02*
X94058342Y-140969904D01*
X94058342Y-140969904D02*
X93963104Y-140969904D01*
X93963104Y-140969904D02*
X93867866Y-141017523D01*
X93867866Y-141017523D02*
X93820247Y-141065142D01*
X93820247Y-141065142D02*
X93772628Y-141160380D01*
X93772628Y-141160380D02*
X93725009Y-141350856D01*
X93725009Y-141350856D02*
X93677390Y-141446094D01*
X93677390Y-141446094D02*
X93629771Y-141493713D01*
X93629771Y-141493713D02*
X93534533Y-141541332D01*
X93534533Y-141541332D02*
X93439295Y-141541332D01*
X93439295Y-141541332D02*
X93344057Y-141493713D01*
X93344057Y-141493713D02*
X93296438Y-141446094D01*
X93296438Y-141446094D02*
X93248819Y-141350856D01*
X93248819Y-141350856D02*
X93248819Y-141112761D01*
X93248819Y-141112761D02*
X93296438Y-140969904D01*
X93248819Y-140636570D02*
X94248819Y-140398475D01*
X94248819Y-140398475D02*
X93534533Y-140207999D01*
X93534533Y-140207999D02*
X94248819Y-140017523D01*
X94248819Y-140017523D02*
X93248819Y-139779428D01*
X93248819Y-139493713D02*
X93248819Y-138874666D01*
X93248819Y-138874666D02*
X93629771Y-139207999D01*
X93629771Y-139207999D02*
X93629771Y-139065142D01*
X93629771Y-139065142D02*
X93677390Y-138969904D01*
X93677390Y-138969904D02*
X93725009Y-138922285D01*
X93725009Y-138922285D02*
X93820247Y-138874666D01*
X93820247Y-138874666D02*
X94058342Y-138874666D01*
X94058342Y-138874666D02*
X94153580Y-138922285D01*
X94153580Y-138922285D02*
X94201200Y-138969904D01*
X94201200Y-138969904D02*
X94248819Y-139065142D01*
X94248819Y-139065142D02*
X94248819Y-139350856D01*
X94248819Y-139350856D02*
X94201200Y-139446094D01*
X94201200Y-139446094D02*
X94153580Y-139493713D01*
X85311200Y-141541332D02*
X85358819Y-141398475D01*
X85358819Y-141398475D02*
X85358819Y-141160380D01*
X85358819Y-141160380D02*
X85311200Y-141065142D01*
X85311200Y-141065142D02*
X85263580Y-141017523D01*
X85263580Y-141017523D02*
X85168342Y-140969904D01*
X85168342Y-140969904D02*
X85073104Y-140969904D01*
X85073104Y-140969904D02*
X84977866Y-141017523D01*
X84977866Y-141017523D02*
X84930247Y-141065142D01*
X84930247Y-141065142D02*
X84882628Y-141160380D01*
X84882628Y-141160380D02*
X84835009Y-141350856D01*
X84835009Y-141350856D02*
X84787390Y-141446094D01*
X84787390Y-141446094D02*
X84739771Y-141493713D01*
X84739771Y-141493713D02*
X84644533Y-141541332D01*
X84644533Y-141541332D02*
X84549295Y-141541332D01*
X84549295Y-141541332D02*
X84454057Y-141493713D01*
X84454057Y-141493713D02*
X84406438Y-141446094D01*
X84406438Y-141446094D02*
X84358819Y-141350856D01*
X84358819Y-141350856D02*
X84358819Y-141112761D01*
X84358819Y-141112761D02*
X84406438Y-140969904D01*
X84358819Y-140636570D02*
X85358819Y-140398475D01*
X85358819Y-140398475D02*
X84644533Y-140207999D01*
X84644533Y-140207999D02*
X85358819Y-140017523D01*
X85358819Y-140017523D02*
X84358819Y-139779428D01*
X84454057Y-139446094D02*
X84406438Y-139398475D01*
X84406438Y-139398475D02*
X84358819Y-139303237D01*
X84358819Y-139303237D02*
X84358819Y-139065142D01*
X84358819Y-139065142D02*
X84406438Y-138969904D01*
X84406438Y-138969904D02*
X84454057Y-138922285D01*
X84454057Y-138922285D02*
X84549295Y-138874666D01*
X84549295Y-138874666D02*
X84644533Y-138874666D01*
X84644533Y-138874666D02*
X84787390Y-138922285D01*
X84787390Y-138922285D02*
X85358819Y-139493713D01*
X85358819Y-139493713D02*
X85358819Y-138874666D01*
X76421200Y-141541332D02*
X76468819Y-141398475D01*
X76468819Y-141398475D02*
X76468819Y-141160380D01*
X76468819Y-141160380D02*
X76421200Y-141065142D01*
X76421200Y-141065142D02*
X76373580Y-141017523D01*
X76373580Y-141017523D02*
X76278342Y-140969904D01*
X76278342Y-140969904D02*
X76183104Y-140969904D01*
X76183104Y-140969904D02*
X76087866Y-141017523D01*
X76087866Y-141017523D02*
X76040247Y-141065142D01*
X76040247Y-141065142D02*
X75992628Y-141160380D01*
X75992628Y-141160380D02*
X75945009Y-141350856D01*
X75945009Y-141350856D02*
X75897390Y-141446094D01*
X75897390Y-141446094D02*
X75849771Y-141493713D01*
X75849771Y-141493713D02*
X75754533Y-141541332D01*
X75754533Y-141541332D02*
X75659295Y-141541332D01*
X75659295Y-141541332D02*
X75564057Y-141493713D01*
X75564057Y-141493713D02*
X75516438Y-141446094D01*
X75516438Y-141446094D02*
X75468819Y-141350856D01*
X75468819Y-141350856D02*
X75468819Y-141112761D01*
X75468819Y-141112761D02*
X75516438Y-140969904D01*
X75468819Y-140636570D02*
X76468819Y-140398475D01*
X76468819Y-140398475D02*
X75754533Y-140207999D01*
X75754533Y-140207999D02*
X76468819Y-140017523D01*
X76468819Y-140017523D02*
X75468819Y-139779428D01*
X76468819Y-138874666D02*
X76468819Y-139446094D01*
X76468819Y-139160380D02*
X75468819Y-139160380D01*
X75468819Y-139160380D02*
X75611676Y-139255618D01*
X75611676Y-139255618D02*
X75706914Y-139350856D01*
X75706914Y-139350856D02*
X75754533Y-139446094D01*
X159535905Y-136448819D02*
X159535905Y-135448819D01*
X159535905Y-135448819D02*
X159774000Y-135448819D01*
X159774000Y-135448819D02*
X159916857Y-135496438D01*
X159916857Y-135496438D02*
X160012095Y-135591676D01*
X160012095Y-135591676D02*
X160059714Y-135686914D01*
X160059714Y-135686914D02*
X160107333Y-135877390D01*
X160107333Y-135877390D02*
X160107333Y-136020247D01*
X160107333Y-136020247D02*
X160059714Y-136210723D01*
X160059714Y-136210723D02*
X160012095Y-136305961D01*
X160012095Y-136305961D02*
X159916857Y-136401200D01*
X159916857Y-136401200D02*
X159774000Y-136448819D01*
X159774000Y-136448819D02*
X159535905Y-136448819D01*
X160488286Y-135544057D02*
X160535905Y-135496438D01*
X160535905Y-135496438D02*
X160631143Y-135448819D01*
X160631143Y-135448819D02*
X160869238Y-135448819D01*
X160869238Y-135448819D02*
X160964476Y-135496438D01*
X160964476Y-135496438D02*
X161012095Y-135544057D01*
X161012095Y-135544057D02*
X161059714Y-135639295D01*
X161059714Y-135639295D02*
X161059714Y-135734533D01*
X161059714Y-135734533D02*
X161012095Y-135877390D01*
X161012095Y-135877390D02*
X160440667Y-136448819D01*
X160440667Y-136448819D02*
X161059714Y-136448819D01*
X145288095Y-88564819D02*
X145288095Y-89374342D01*
X145288095Y-89374342D02*
X145335714Y-89469580D01*
X145335714Y-89469580D02*
X145383333Y-89517200D01*
X145383333Y-89517200D02*
X145478571Y-89564819D01*
X145478571Y-89564819D02*
X145669047Y-89564819D01*
X145669047Y-89564819D02*
X145764285Y-89517200D01*
X145764285Y-89517200D02*
X145811904Y-89469580D01*
X145811904Y-89469580D02*
X145859523Y-89374342D01*
X145859523Y-89374342D02*
X145859523Y-88564819D01*
X146764285Y-88898152D02*
X146764285Y-89564819D01*
X146526190Y-88517200D02*
X146288095Y-89231485D01*
X146288095Y-89231485D02*
X146907142Y-89231485D01*
X70786666Y-134284819D02*
X70786666Y-134999104D01*
X70786666Y-134999104D02*
X70739047Y-135141961D01*
X70739047Y-135141961D02*
X70643809Y-135237200D01*
X70643809Y-135237200D02*
X70500952Y-135284819D01*
X70500952Y-135284819D02*
X70405714Y-135284819D01*
X71215238Y-134380057D02*
X71262857Y-134332438D01*
X71262857Y-134332438D02*
X71358095Y-134284819D01*
X71358095Y-134284819D02*
X71596190Y-134284819D01*
X71596190Y-134284819D02*
X71691428Y-134332438D01*
X71691428Y-134332438D02*
X71739047Y-134380057D01*
X71739047Y-134380057D02*
X71786666Y-134475295D01*
X71786666Y-134475295D02*
X71786666Y-134570533D01*
X71786666Y-134570533D02*
X71739047Y-134713390D01*
X71739047Y-134713390D02*
X71167619Y-135284819D01*
X71167619Y-135284819D02*
X71786666Y-135284819D01*
X166888095Y-88559819D02*
X166888095Y-89369342D01*
X166888095Y-89369342D02*
X166935714Y-89464580D01*
X166935714Y-89464580D02*
X166983333Y-89512200D01*
X166983333Y-89512200D02*
X167078571Y-89559819D01*
X167078571Y-89559819D02*
X167269047Y-89559819D01*
X167269047Y-89559819D02*
X167364285Y-89512200D01*
X167364285Y-89512200D02*
X167411904Y-89464580D01*
X167411904Y-89464580D02*
X167459523Y-89369342D01*
X167459523Y-89369342D02*
X167459523Y-88559819D01*
X168411904Y-88559819D02*
X167935714Y-88559819D01*
X167935714Y-88559819D02*
X167888095Y-89036009D01*
X167888095Y-89036009D02*
X167935714Y-88988390D01*
X167935714Y-88988390D02*
X168030952Y-88940771D01*
X168030952Y-88940771D02*
X168269047Y-88940771D01*
X168269047Y-88940771D02*
X168364285Y-88988390D01*
X168364285Y-88988390D02*
X168411904Y-89036009D01*
X168411904Y-89036009D02*
X168459523Y-89131247D01*
X168459523Y-89131247D02*
X168459523Y-89369342D01*
X168459523Y-89369342D02*
X168411904Y-89464580D01*
X168411904Y-89464580D02*
X168364285Y-89512200D01*
X168364285Y-89512200D02*
X168269047Y-89559819D01*
X168269047Y-89559819D02*
X168030952Y-89559819D01*
X168030952Y-89559819D02*
X167935714Y-89512200D01*
X167935714Y-89512200D02*
X167888095Y-89464580D01*
X151915905Y-136448819D02*
X151915905Y-135448819D01*
X151915905Y-135448819D02*
X152154000Y-135448819D01*
X152154000Y-135448819D02*
X152296857Y-135496438D01*
X152296857Y-135496438D02*
X152392095Y-135591676D01*
X152392095Y-135591676D02*
X152439714Y-135686914D01*
X152439714Y-135686914D02*
X152487333Y-135877390D01*
X152487333Y-135877390D02*
X152487333Y-136020247D01*
X152487333Y-136020247D02*
X152439714Y-136210723D01*
X152439714Y-136210723D02*
X152392095Y-136305961D01*
X152392095Y-136305961D02*
X152296857Y-136401200D01*
X152296857Y-136401200D02*
X152154000Y-136448819D01*
X152154000Y-136448819D02*
X151915905Y-136448819D01*
X153439714Y-136448819D02*
X152868286Y-136448819D01*
X153154000Y-136448819D02*
X153154000Y-135448819D01*
X153154000Y-135448819D02*
X153058762Y-135591676D01*
X153058762Y-135591676D02*
X152963524Y-135686914D01*
X152963524Y-135686914D02*
X152868286Y-135734533D01*
X70334285Y-152121009D02*
X70477142Y-152168628D01*
X70477142Y-152168628D02*
X70524761Y-152216247D01*
X70524761Y-152216247D02*
X70572380Y-152311485D01*
X70572380Y-152311485D02*
X70572380Y-152454342D01*
X70572380Y-152454342D02*
X70524761Y-152549580D01*
X70524761Y-152549580D02*
X70477142Y-152597200D01*
X70477142Y-152597200D02*
X70381904Y-152644819D01*
X70381904Y-152644819D02*
X70000952Y-152644819D01*
X70000952Y-152644819D02*
X70000952Y-151644819D01*
X70000952Y-151644819D02*
X70334285Y-151644819D01*
X70334285Y-151644819D02*
X70429523Y-151692438D01*
X70429523Y-151692438D02*
X70477142Y-151740057D01*
X70477142Y-151740057D02*
X70524761Y-151835295D01*
X70524761Y-151835295D02*
X70524761Y-151930533D01*
X70524761Y-151930533D02*
X70477142Y-152025771D01*
X70477142Y-152025771D02*
X70429523Y-152073390D01*
X70429523Y-152073390D02*
X70334285Y-152121009D01*
X70334285Y-152121009D02*
X70000952Y-152121009D01*
X70858095Y-151644819D02*
X71429523Y-151644819D01*
X71143809Y-152644819D02*
X71143809Y-151644819D01*
X72286666Y-152644819D02*
X71715238Y-152644819D01*
X72000952Y-152644819D02*
X72000952Y-151644819D01*
X72000952Y-151644819D02*
X71905714Y-151787676D01*
X71905714Y-151787676D02*
X71810476Y-151882914D01*
X71810476Y-151882914D02*
X71715238Y-151930533D01*
X154548819Y-127420666D02*
X154072628Y-127753999D01*
X154548819Y-127992094D02*
X153548819Y-127992094D01*
X153548819Y-127992094D02*
X153548819Y-127611142D01*
X153548819Y-127611142D02*
X153596438Y-127515904D01*
X153596438Y-127515904D02*
X153644057Y-127468285D01*
X153644057Y-127468285D02*
X153739295Y-127420666D01*
X153739295Y-127420666D02*
X153882152Y-127420666D01*
X153882152Y-127420666D02*
X153977390Y-127468285D01*
X153977390Y-127468285D02*
X154025009Y-127515904D01*
X154025009Y-127515904D02*
X154072628Y-127611142D01*
X154072628Y-127611142D02*
X154072628Y-127992094D01*
X154548819Y-126468285D02*
X154548819Y-127039713D01*
X154548819Y-126753999D02*
X153548819Y-126753999D01*
X153548819Y-126753999D02*
X153691676Y-126849237D01*
X153691676Y-126849237D02*
X153786914Y-126944475D01*
X153786914Y-126944475D02*
X153834533Y-127039713D01*
X79248095Y-148294819D02*
X79248095Y-149104342D01*
X79248095Y-149104342D02*
X79295714Y-149199580D01*
X79295714Y-149199580D02*
X79343333Y-149247200D01*
X79343333Y-149247200D02*
X79438571Y-149294819D01*
X79438571Y-149294819D02*
X79629047Y-149294819D01*
X79629047Y-149294819D02*
X79724285Y-149247200D01*
X79724285Y-149247200D02*
X79771904Y-149199580D01*
X79771904Y-149199580D02*
X79819523Y-149104342D01*
X79819523Y-149104342D02*
X79819523Y-148294819D01*
X80724285Y-148294819D02*
X80533809Y-148294819D01*
X80533809Y-148294819D02*
X80438571Y-148342438D01*
X80438571Y-148342438D02*
X80390952Y-148390057D01*
X80390952Y-148390057D02*
X80295714Y-148532914D01*
X80295714Y-148532914D02*
X80248095Y-148723390D01*
X80248095Y-148723390D02*
X80248095Y-149104342D01*
X80248095Y-149104342D02*
X80295714Y-149199580D01*
X80295714Y-149199580D02*
X80343333Y-149247200D01*
X80343333Y-149247200D02*
X80438571Y-149294819D01*
X80438571Y-149294819D02*
X80629047Y-149294819D01*
X80629047Y-149294819D02*
X80724285Y-149247200D01*
X80724285Y-149247200D02*
X80771904Y-149199580D01*
X80771904Y-149199580D02*
X80819523Y-149104342D01*
X80819523Y-149104342D02*
X80819523Y-148866247D01*
X80819523Y-148866247D02*
X80771904Y-148771009D01*
X80771904Y-148771009D02*
X80724285Y-148723390D01*
X80724285Y-148723390D02*
X80629047Y-148675771D01*
X80629047Y-148675771D02*
X80438571Y-148675771D01*
X80438571Y-148675771D02*
X80343333Y-148723390D01*
X80343333Y-148723390D02*
X80295714Y-148771009D01*
X80295714Y-148771009D02*
X80248095Y-148866247D01*
X70786666Y-127934819D02*
X70786666Y-128649104D01*
X70786666Y-128649104D02*
X70739047Y-128791961D01*
X70739047Y-128791961D02*
X70643809Y-128887200D01*
X70643809Y-128887200D02*
X70500952Y-128934819D01*
X70500952Y-128934819D02*
X70405714Y-128934819D01*
X71786666Y-128934819D02*
X71215238Y-128934819D01*
X71500952Y-128934819D02*
X71500952Y-127934819D01*
X71500952Y-127934819D02*
X71405714Y-128077676D01*
X71405714Y-128077676D02*
X71310476Y-128172914D01*
X71310476Y-128172914D02*
X71215238Y-128220533D01*
X86868095Y-88564819D02*
X86868095Y-89374342D01*
X86868095Y-89374342D02*
X86915714Y-89469580D01*
X86915714Y-89469580D02*
X86963333Y-89517200D01*
X86963333Y-89517200D02*
X87058571Y-89564819D01*
X87058571Y-89564819D02*
X87249047Y-89564819D01*
X87249047Y-89564819D02*
X87344285Y-89517200D01*
X87344285Y-89517200D02*
X87391904Y-89469580D01*
X87391904Y-89469580D02*
X87439523Y-89374342D01*
X87439523Y-89374342D02*
X87439523Y-88564819D01*
X88439523Y-89564819D02*
X87868095Y-89564819D01*
X88153809Y-89564819D02*
X88153809Y-88564819D01*
X88153809Y-88564819D02*
X88058571Y-88707676D01*
X88058571Y-88707676D02*
X87963333Y-88802914D01*
X87963333Y-88802914D02*
X87868095Y-88850533D01*
X174775905Y-136448819D02*
X174775905Y-135448819D01*
X174775905Y-135448819D02*
X175014000Y-135448819D01*
X175014000Y-135448819D02*
X175156857Y-135496438D01*
X175156857Y-135496438D02*
X175252095Y-135591676D01*
X175252095Y-135591676D02*
X175299714Y-135686914D01*
X175299714Y-135686914D02*
X175347333Y-135877390D01*
X175347333Y-135877390D02*
X175347333Y-136020247D01*
X175347333Y-136020247D02*
X175299714Y-136210723D01*
X175299714Y-136210723D02*
X175252095Y-136305961D01*
X175252095Y-136305961D02*
X175156857Y-136401200D01*
X175156857Y-136401200D02*
X175014000Y-136448819D01*
X175014000Y-136448819D02*
X174775905Y-136448819D01*
X176204476Y-135782152D02*
X176204476Y-136448819D01*
X175966381Y-135401200D02*
X175728286Y-136115485D01*
X175728286Y-136115485D02*
X176347333Y-136115485D01*
X107188095Y-88564819D02*
X107188095Y-89374342D01*
X107188095Y-89374342D02*
X107235714Y-89469580D01*
X107235714Y-89469580D02*
X107283333Y-89517200D01*
X107283333Y-89517200D02*
X107378571Y-89564819D01*
X107378571Y-89564819D02*
X107569047Y-89564819D01*
X107569047Y-89564819D02*
X107664285Y-89517200D01*
X107664285Y-89517200D02*
X107711904Y-89469580D01*
X107711904Y-89469580D02*
X107759523Y-89374342D01*
X107759523Y-89374342D02*
X107759523Y-88564819D01*
X108188095Y-88660057D02*
X108235714Y-88612438D01*
X108235714Y-88612438D02*
X108330952Y-88564819D01*
X108330952Y-88564819D02*
X108569047Y-88564819D01*
X108569047Y-88564819D02*
X108664285Y-88612438D01*
X108664285Y-88612438D02*
X108711904Y-88660057D01*
X108711904Y-88660057D02*
X108759523Y-88755295D01*
X108759523Y-88755295D02*
X108759523Y-88850533D01*
X108759523Y-88850533D02*
X108711904Y-88993390D01*
X108711904Y-88993390D02*
X108140476Y-89564819D01*
X108140476Y-89564819D02*
X108759523Y-89564819D01*
X126248095Y-88559819D02*
X126248095Y-89369342D01*
X126248095Y-89369342D02*
X126295714Y-89464580D01*
X126295714Y-89464580D02*
X126343333Y-89512200D01*
X126343333Y-89512200D02*
X126438571Y-89559819D01*
X126438571Y-89559819D02*
X126629047Y-89559819D01*
X126629047Y-89559819D02*
X126724285Y-89512200D01*
X126724285Y-89512200D02*
X126771904Y-89464580D01*
X126771904Y-89464580D02*
X126819523Y-89369342D01*
X126819523Y-89369342D02*
X126819523Y-88559819D01*
X127200476Y-88559819D02*
X127819523Y-88559819D01*
X127819523Y-88559819D02*
X127486190Y-88940771D01*
X127486190Y-88940771D02*
X127629047Y-88940771D01*
X127629047Y-88940771D02*
X127724285Y-88988390D01*
X127724285Y-88988390D02*
X127771904Y-89036009D01*
X127771904Y-89036009D02*
X127819523Y-89131247D01*
X127819523Y-89131247D02*
X127819523Y-89369342D01*
X127819523Y-89369342D02*
X127771904Y-89464580D01*
X127771904Y-89464580D02*
X127724285Y-89512200D01*
X127724285Y-89512200D02*
X127629047Y-89559819D01*
X127629047Y-89559819D02*
X127343333Y-89559819D01*
X127343333Y-89559819D02*
X127248095Y-89512200D01*
X127248095Y-89512200D02*
X127200476Y-89464580D01*
X169788819Y-127420666D02*
X169312628Y-127753999D01*
X169788819Y-127992094D02*
X168788819Y-127992094D01*
X168788819Y-127992094D02*
X168788819Y-127611142D01*
X168788819Y-127611142D02*
X168836438Y-127515904D01*
X168836438Y-127515904D02*
X168884057Y-127468285D01*
X168884057Y-127468285D02*
X168979295Y-127420666D01*
X168979295Y-127420666D02*
X169122152Y-127420666D01*
X169122152Y-127420666D02*
X169217390Y-127468285D01*
X169217390Y-127468285D02*
X169265009Y-127515904D01*
X169265009Y-127515904D02*
X169312628Y-127611142D01*
X169312628Y-127611142D02*
X169312628Y-127992094D01*
X169122152Y-126563523D02*
X169788819Y-126563523D01*
X168741200Y-126801618D02*
X169455485Y-127039713D01*
X169455485Y-127039713D02*
X169455485Y-126420666D01*
X167275905Y-136448819D02*
X167275905Y-135448819D01*
X167275905Y-135448819D02*
X167514000Y-135448819D01*
X167514000Y-135448819D02*
X167656857Y-135496438D01*
X167656857Y-135496438D02*
X167752095Y-135591676D01*
X167752095Y-135591676D02*
X167799714Y-135686914D01*
X167799714Y-135686914D02*
X167847333Y-135877390D01*
X167847333Y-135877390D02*
X167847333Y-136020247D01*
X167847333Y-136020247D02*
X167799714Y-136210723D01*
X167799714Y-136210723D02*
X167752095Y-136305961D01*
X167752095Y-136305961D02*
X167656857Y-136401200D01*
X167656857Y-136401200D02*
X167514000Y-136448819D01*
X167514000Y-136448819D02*
X167275905Y-136448819D01*
X168180667Y-135448819D02*
X168799714Y-135448819D01*
X168799714Y-135448819D02*
X168466381Y-135829771D01*
X168466381Y-135829771D02*
X168609238Y-135829771D01*
X168609238Y-135829771D02*
X168704476Y-135877390D01*
X168704476Y-135877390D02*
X168752095Y-135925009D01*
X168752095Y-135925009D02*
X168799714Y-136020247D01*
X168799714Y-136020247D02*
X168799714Y-136258342D01*
X168799714Y-136258342D02*
X168752095Y-136353580D01*
X168752095Y-136353580D02*
X168704476Y-136401200D01*
X168704476Y-136401200D02*
X168609238Y-136448819D01*
X168609238Y-136448819D02*
X168323524Y-136448819D01*
X168323524Y-136448819D02*
X168228286Y-136401200D01*
X168228286Y-136401200D02*
X168180667Y-136353580D01*
X159628819Y-127420666D02*
X159152628Y-127753999D01*
X159628819Y-127992094D02*
X158628819Y-127992094D01*
X158628819Y-127992094D02*
X158628819Y-127611142D01*
X158628819Y-127611142D02*
X158676438Y-127515904D01*
X158676438Y-127515904D02*
X158724057Y-127468285D01*
X158724057Y-127468285D02*
X158819295Y-127420666D01*
X158819295Y-127420666D02*
X158962152Y-127420666D01*
X158962152Y-127420666D02*
X159057390Y-127468285D01*
X159057390Y-127468285D02*
X159105009Y-127515904D01*
X159105009Y-127515904D02*
X159152628Y-127611142D01*
X159152628Y-127611142D02*
X159152628Y-127992094D01*
X158724057Y-127039713D02*
X158676438Y-126992094D01*
X158676438Y-126992094D02*
X158628819Y-126896856D01*
X158628819Y-126896856D02*
X158628819Y-126658761D01*
X158628819Y-126658761D02*
X158676438Y-126563523D01*
X158676438Y-126563523D02*
X158724057Y-126515904D01*
X158724057Y-126515904D02*
X158819295Y-126468285D01*
X158819295Y-126468285D02*
X158914533Y-126468285D01*
X158914533Y-126468285D02*
X159057390Y-126515904D01*
X159057390Y-126515904D02*
X159628819Y-127087332D01*
X159628819Y-127087332D02*
X159628819Y-126468285D01*
D11*
%TO.C,R3*%
X166624000Y-131294000D02*
X166624000Y-130524000D01*
X165254000Y-130524000D02*
X167994000Y-130524000D01*
X167994000Y-130524000D02*
X167994000Y-123984000D01*
X165254000Y-123984000D02*
X165254000Y-130524000D01*
X167994000Y-123984000D02*
X165254000Y-123984000D01*
X166624000Y-123214000D02*
X166624000Y-123984000D01*
%TO.C,SW8*%
X145454000Y-142458000D02*
X145454000Y-137958000D01*
X141454000Y-143708000D02*
X142954000Y-143708000D01*
X138954000Y-137958000D02*
X138954000Y-142458000D01*
X142954000Y-136708000D02*
X141454000Y-136708000D01*
%TO.C,SW7*%
X136564000Y-142458000D02*
X136564000Y-137958000D01*
X132564000Y-143708000D02*
X134064000Y-143708000D01*
X130064000Y-137958000D02*
X130064000Y-142458000D01*
X134064000Y-136708000D02*
X132564000Y-136708000D01*
%TO.C,SW6*%
X125174000Y-136708000D02*
X123674000Y-136708000D01*
X121174000Y-137958000D02*
X121174000Y-142458000D01*
X123674000Y-143708000D02*
X125174000Y-143708000D01*
X127674000Y-142458000D02*
X127674000Y-137958000D01*
%TO.C,SW5*%
X118784000Y-142458000D02*
X118784000Y-137958000D01*
X114784000Y-143708000D02*
X116284000Y-143708000D01*
X112284000Y-137958000D02*
X112284000Y-142458000D01*
X116284000Y-136708000D02*
X114784000Y-136708000D01*
%TO.C,SW4*%
X107394000Y-136708000D02*
X105894000Y-136708000D01*
X103394000Y-137958000D02*
X103394000Y-142458000D01*
X105894000Y-143708000D02*
X107394000Y-143708000D01*
X109894000Y-142458000D02*
X109894000Y-137958000D01*
%TO.C,SW3*%
X98794000Y-136708000D02*
X97294000Y-136708000D01*
X94794000Y-137958000D02*
X94794000Y-142458000D01*
X97294000Y-143708000D02*
X98794000Y-143708000D01*
X101294000Y-142458000D02*
X101294000Y-137958000D01*
%TO.C,SW2*%
X89904000Y-136708000D02*
X88404000Y-136708000D01*
X85904000Y-137958000D02*
X85904000Y-142458000D01*
X88404000Y-143708000D02*
X89904000Y-143708000D01*
X92404000Y-142458000D02*
X92404000Y-137958000D01*
%TO.C,SW1*%
X81014000Y-136708000D02*
X79514000Y-136708000D01*
X77014000Y-137958000D02*
X77014000Y-142458000D01*
X79514000Y-143708000D02*
X81014000Y-143708000D01*
X83514000Y-142458000D02*
X83514000Y-137958000D01*
%TO.C,D2*%
X157714000Y-138409000D02*
X157714000Y-141499000D01*
X163263999Y-139954462D02*
G75*
G03*
X157714001Y-138409170I-2989999J462D01*
G01*
X157714000Y-141498830D02*
G75*
G03*
X163264000Y-139953538I2560000J1544830D01*
G01*
X162774000Y-139954000D02*
G75*
G03*
X162774000Y-139954000I-2500000J0D01*
G01*
%TO.C,U4*%
X140800000Y-90050000D02*
X140800000Y-108070000D01*
X140800000Y-108070000D02*
X151300000Y-108070000D01*
X143800000Y-90110000D02*
X143800000Y-108010000D01*
X143800000Y-108010000D02*
X148300000Y-108010000D01*
X145050000Y-90110000D02*
X143800000Y-90110000D01*
X148300000Y-90110000D02*
X147050000Y-90110000D01*
X148300000Y-108010000D02*
X148300000Y-90110000D01*
X151300000Y-90050000D02*
X140800000Y-90050000D01*
X151300000Y-108070000D02*
X151300000Y-90050000D01*
X145050000Y-90110000D02*
G75*
G03*
X147050000Y-90110000I1000000J0D01*
G01*
%TO.C,J2*%
X72450000Y-138430000D02*
X72450000Y-138490000D01*
X69790000Y-138490000D02*
X72450000Y-138490000D01*
X69790000Y-138430000D02*
X72450000Y-138430000D01*
X69790000Y-138430000D02*
X69790000Y-138490000D01*
X69790000Y-137160000D02*
X69790000Y-135830000D01*
X69790000Y-135830000D02*
X71120000Y-135830000D01*
%TO.C,U5*%
X162400000Y-90045000D02*
X162400000Y-108065000D01*
X162400000Y-108065000D02*
X172900000Y-108065000D01*
X165400000Y-90105000D02*
X165400000Y-108005000D01*
X165400000Y-108005000D02*
X169900000Y-108005000D01*
X166650000Y-90105000D02*
X165400000Y-90105000D01*
X169900000Y-90105000D02*
X168650000Y-90105000D01*
X169900000Y-108005000D02*
X169900000Y-90105000D01*
X172900000Y-90045000D02*
X162400000Y-90045000D01*
X172900000Y-108065000D02*
X172900000Y-90045000D01*
X166650000Y-90105000D02*
G75*
G03*
X168650000Y-90105000I1000000J0D01*
G01*
%TO.C,D1*%
X150094000Y-138409000D02*
X150094000Y-141499000D01*
X155643999Y-139954462D02*
G75*
G03*
X150094001Y-138409170I-2989999J462D01*
G01*
X150094000Y-141498830D02*
G75*
G03*
X155644000Y-139953538I2560000J1544830D01*
G01*
X155154000Y-139954000D02*
G75*
G03*
X155154000Y-139954000I-2500000J0D01*
G01*
%TO.C,BT1*%
X72450000Y-151190000D02*
X71120000Y-151190000D01*
X72450000Y-149860000D02*
X72450000Y-151190000D01*
X72450000Y-148590000D02*
X72450000Y-145990000D01*
X72450000Y-148590000D02*
X69790000Y-148590000D01*
X72450000Y-145990000D02*
X69790000Y-145990000D01*
X69790000Y-148590000D02*
X69790000Y-145990000D01*
%TO.C,R1*%
X156464000Y-131294000D02*
X156464000Y-130524000D01*
X155094000Y-130524000D02*
X157834000Y-130524000D01*
X157834000Y-130524000D02*
X157834000Y-123984000D01*
X155094000Y-123984000D02*
X155094000Y-130524000D01*
X157834000Y-123984000D02*
X155094000Y-123984000D01*
X156464000Y-123214000D02*
X156464000Y-123984000D01*
%TO.C,U6*%
X78210000Y-154250000D02*
X81810000Y-154250000D01*
X80010000Y-149800000D02*
G75*
G03*
X78171522Y-154238478I0J-2600000D01*
G01*
X81848478Y-154238478D02*
G75*
G03*
X80010000Y-149800000I-1838478J1838478D01*
G01*
%TO.C,J1*%
X69790000Y-129480000D02*
X71120000Y-129480000D01*
X69790000Y-130810000D02*
X69790000Y-129480000D01*
X69790000Y-132080000D02*
X69790000Y-132140000D01*
X69790000Y-132080000D02*
X72450000Y-132080000D01*
X69790000Y-132140000D02*
X72450000Y-132140000D01*
X72450000Y-132080000D02*
X72450000Y-132140000D01*
%TO.C,U1*%
X82380000Y-90050000D02*
X82380000Y-108070000D01*
X82380000Y-108070000D02*
X92880000Y-108070000D01*
X85380000Y-90110000D02*
X85380000Y-108010000D01*
X85380000Y-108010000D02*
X89880000Y-108010000D01*
X86630000Y-90110000D02*
X85380000Y-90110000D01*
X89880000Y-90110000D02*
X88630000Y-90110000D01*
X89880000Y-108010000D02*
X89880000Y-90110000D01*
X92880000Y-90050000D02*
X82380000Y-90050000D01*
X92880000Y-108070000D02*
X92880000Y-90050000D01*
X86630000Y-90110000D02*
G75*
G03*
X88630000Y-90110000I1000000J0D01*
G01*
%TO.C,D4*%
X172954000Y-138409000D02*
X172954000Y-141499000D01*
X178503999Y-139954462D02*
G75*
G03*
X172954001Y-138409170I-2989999J462D01*
G01*
X172954000Y-141498830D02*
G75*
G03*
X178504000Y-139953538I2560000J1544830D01*
G01*
X178014000Y-139954000D02*
G75*
G03*
X178014000Y-139954000I-2500000J0D01*
G01*
%TO.C,U2*%
X102700000Y-90050000D02*
X102700000Y-108070000D01*
X102700000Y-108070000D02*
X113200000Y-108070000D01*
X105700000Y-90110000D02*
X105700000Y-108010000D01*
X105700000Y-108010000D02*
X110200000Y-108010000D01*
X106950000Y-90110000D02*
X105700000Y-90110000D01*
X110200000Y-90110000D02*
X108950000Y-90110000D01*
X110200000Y-108010000D02*
X110200000Y-90110000D01*
X113200000Y-90050000D02*
X102700000Y-90050000D01*
X113200000Y-108070000D02*
X113200000Y-90050000D01*
X106950000Y-90110000D02*
G75*
G03*
X108950000Y-90110000I1000000J0D01*
G01*
%TO.C,U3*%
X121760000Y-90045000D02*
X121760000Y-108065000D01*
X121760000Y-108065000D02*
X132260000Y-108065000D01*
X124760000Y-90105000D02*
X124760000Y-108005000D01*
X124760000Y-108005000D02*
X129260000Y-108005000D01*
X126010000Y-90105000D02*
X124760000Y-90105000D01*
X129260000Y-90105000D02*
X128010000Y-90105000D01*
X129260000Y-108005000D02*
X129260000Y-90105000D01*
X132260000Y-90045000D02*
X121760000Y-90045000D01*
X132260000Y-108065000D02*
X132260000Y-90045000D01*
X126010000Y-90105000D02*
G75*
G03*
X128010000Y-90105000I1000000J0D01*
G01*
%TO.C,R4*%
X171704000Y-131294000D02*
X171704000Y-130524000D01*
X170334000Y-130524000D02*
X173074000Y-130524000D01*
X173074000Y-130524000D02*
X173074000Y-123984000D01*
X170334000Y-123984000D02*
X170334000Y-130524000D01*
X173074000Y-123984000D02*
X170334000Y-123984000D01*
X171704000Y-123214000D02*
X171704000Y-123984000D01*
%TO.C,D3*%
X165454000Y-138409000D02*
X165454000Y-141499000D01*
X171003999Y-139954462D02*
G75*
G03*
X165454001Y-138409170I-2989999J462D01*
G01*
X165454000Y-141498830D02*
G75*
G03*
X171004000Y-139953538I2560000J1544830D01*
G01*
X170514000Y-139954000D02*
G75*
G03*
X170514000Y-139954000I-2500000J0D01*
G01*
%TO.C,R2*%
X161544000Y-131294000D02*
X161544000Y-130524000D01*
X160174000Y-130524000D02*
X162914000Y-130524000D01*
X162914000Y-130524000D02*
X162914000Y-123984000D01*
X160174000Y-123984000D02*
X160174000Y-130524000D01*
X162914000Y-123984000D02*
X160174000Y-123984000D01*
X161544000Y-123214000D02*
X161544000Y-123984000D01*
%TD*%
M02*
